<svg xmlns="http://www.w3.org/2000/svg" xmlns:xlink="http://www.w3.org/1999/xlink" width="611" zoomAndPan="magnify" viewBox="0 0 458.25 305.999988" height="408" preserveAspectRatio="xMidYMid meet" version="1.0"><defs><filter x="0%" y="0%" width="100%" height="100%" id="95c631fcbb"><feColorMatrix values="0 0 0 0 1 0 0 0 0 1 0 0 0 0 1 0 0 0 1 0" color-interpolation-filters="sRGB"/></filter><mask id="2ef3078cbc"><g filter="url(#95c631fcbb)"><rect x="-45.825" width="549.9" fill="#000000" y="-30.599999" height="367.199986" fill-opacity="0.64"/></g></mask><clipPath id="b937ee996a"><path d="M 0.441406 0.691406 L 225.0625 0.691406 L 225.0625 225.308594 L 0.441406 225.308594 Z M 0.441406 0.691406 " clip-rule="nonzero"/></clipPath><clipPath id="099fcded1e"><path d="M 112.75 0.691406 C 50.722656 0.691406 0.441406 50.972656 0.441406 113 C 0.441406 175.027344 50.722656 225.308594 112.75 225.308594 C 174.777344 225.308594 225.0625 175.027344 225.0625 113 C 225.0625 50.972656 174.777344 0.691406 112.75 0.691406 Z M 112.75 0.691406 " clip-rule="nonzero"/></clipPath><radialGradient gradientTransform="matrix(1, 0, 0, 1, 0.440398, 0.689783)" gradientUnits="userSpaceOnUse" r="158.830319" cx="112.310204" id="94dc54540a" cy="112.310204" fx="112.310204" fy="112.310204"><stop stop-opacity="1" stop-color="rgb(0.1297%, 0.1297%, 0.1297%)" offset="0"/><stop stop-opacity="1" stop-color="rgb(0.454712%, 0.454712%, 0.454712%)" offset="0.0078125"/><stop stop-opacity="1" stop-color="rgb(0.843811%, 0.843811%, 0.843811%)" offset="0.0195312"/><stop stop-opacity="1" stop-color="rgb(1.234436%, 1.234436%, 1.234436%)" offset="0.03125"/><stop stop-opacity="1" stop-color="rgb(1.625061%, 1.625061%, 1.625061%)" offset="0.0429688"/><stop stop-opacity="1" stop-color="rgb(2.015686%, 2.015686%, 2.015686%)" offset="0.0546875"/><stop stop-opacity="1" stop-color="rgb(2.404785%, 2.404785%, 2.404785%)" offset="0.0664062"/><stop stop-opacity="1" stop-color="rgb(2.79541%, 2.79541%, 2.79541%)" offset="0.078125"/><stop stop-opacity="1" stop-color="rgb(3.186035%, 3.186035%, 3.186035%)" offset="0.0898438"/><stop stop-opacity="1" stop-color="rgb(3.57666%, 3.57666%, 3.57666%)" offset="0.101562"/><stop stop-opacity="1" stop-color="rgb(3.965759%, 3.965759%, 3.965759%)" offset="0.113281"/><stop stop-opacity="1" stop-color="rgb(4.356384%, 4.356384%, 4.356384%)" offset="0.125"/><stop stop-opacity="1" stop-color="rgb(4.747009%, 4.747009%, 4.747009%)" offset="0.136719"/><stop stop-opacity="1" stop-color="rgb(5.137634%, 5.137634%, 5.137634%)" offset="0.148438"/><stop stop-opacity="1" stop-color="rgb(5.526733%, 5.526733%, 5.526733%)" offset="0.160156"/><stop stop-opacity="1" stop-color="rgb(5.917358%, 5.917358%, 5.917358%)" offset="0.171875"/><stop stop-opacity="1" stop-color="rgb(6.307983%, 6.307983%, 6.307983%)" offset="0.183594"/><stop stop-opacity="1" stop-color="rgb(6.698608%, 6.698608%, 6.698608%)" offset="0.195312"/><stop stop-opacity="1" stop-color="rgb(7.087708%, 7.087708%, 7.087708%)" offset="0.207031"/><stop stop-opacity="1" stop-color="rgb(7.478333%, 7.478333%, 7.478333%)" offset="0.21875"/><stop stop-opacity="1" stop-color="rgb(7.868958%, 7.868958%, 7.868958%)" offset="0.230469"/><stop stop-opacity="1" stop-color="rgb(8.259583%, 8.259583%, 8.259583%)" offset="0.242188"/><stop stop-opacity="1" stop-color="rgb(8.584595%, 8.584595%, 8.584595%)" offset="0.253906"/><stop stop-opacity="1" stop-color="rgb(8.843994%, 8.843994%, 8.843994%)" offset="0.261719"/><stop stop-opacity="1" stop-color="rgb(9.104919%, 9.104919%, 9.104919%)" offset="0.269531"/><stop stop-opacity="1" stop-color="rgb(9.364319%, 9.364319%, 9.364319%)" offset="0.277344"/><stop stop-opacity="1" stop-color="rgb(9.625244%, 9.625244%, 9.625244%)" offset="0.285156"/><stop stop-opacity="1" stop-color="rgb(9.884644%, 9.884644%, 9.884644%)" offset="0.292969"/><stop stop-opacity="1" stop-color="rgb(10.145569%, 10.145569%, 10.145569%)" offset="0.300781"/><stop stop-opacity="1" stop-color="rgb(10.404968%, 10.404968%, 10.404968%)" offset="0.308594"/><stop stop-opacity="1" stop-color="rgb(10.665894%, 10.665894%, 10.665894%)" offset="0.316406"/><stop stop-opacity="1" stop-color="rgb(10.925293%, 10.925293%, 10.925293%)" offset="0.324219"/><stop stop-opacity="1" stop-color="rgb(11.186218%, 11.186218%, 11.186218%)" offset="0.332031"/><stop stop-opacity="1" stop-color="rgb(11.445618%, 11.445618%, 11.445618%)" offset="0.339844"/><stop stop-opacity="1" stop-color="rgb(11.706543%, 11.706543%, 11.706543%)" offset="0.347656"/><stop stop-opacity="1" stop-color="rgb(11.965942%, 11.965942%, 11.965942%)" offset="0.355469"/><stop stop-opacity="1" stop-color="rgb(12.226868%, 12.226868%, 12.226868%)" offset="0.363281"/><stop stop-opacity="1" stop-color="rgb(12.486267%, 12.486267%, 12.486267%)" offset="0.371094"/><stop stop-opacity="1" stop-color="rgb(12.747192%, 12.747192%, 12.747192%)" offset="0.378906"/><stop stop-opacity="1" stop-color="rgb(13.006592%, 13.006592%, 13.006592%)" offset="0.386719"/><stop stop-opacity="1" stop-color="rgb(13.267517%, 13.267517%, 13.267517%)" offset="0.394531"/><stop stop-opacity="1" stop-color="rgb(13.526917%, 13.526917%, 13.526917%)" offset="0.402344"/><stop stop-opacity="1" stop-color="rgb(13.787842%, 13.787842%, 13.787842%)" offset="0.410156"/><stop stop-opacity="1" stop-color="rgb(14.047241%, 14.047241%, 14.047241%)" offset="0.417969"/><stop stop-opacity="1" stop-color="rgb(14.308167%, 14.308167%, 14.308167%)" offset="0.425781"/><stop stop-opacity="1" stop-color="rgb(14.567566%, 14.567566%, 14.567566%)" offset="0.433594"/><stop stop-opacity="1" stop-color="rgb(14.828491%, 14.828491%, 14.828491%)" offset="0.441406"/><stop stop-opacity="1" stop-color="rgb(15.087891%, 15.087891%, 15.087891%)" offset="0.449219"/><stop stop-opacity="1" stop-color="rgb(15.348816%, 15.348816%, 15.348816%)" offset="0.457031"/><stop stop-opacity="1" stop-color="rgb(15.608215%, 15.608215%, 15.608215%)" offset="0.464844"/><stop stop-opacity="1" stop-color="rgb(15.869141%, 15.869141%, 15.869141%)" offset="0.472656"/><stop stop-opacity="1" stop-color="rgb(16.12854%, 16.12854%, 16.12854%)" offset="0.480469"/><stop stop-opacity="1" stop-color="rgb(16.389465%, 16.389465%, 16.389465%)" offset="0.488281"/><stop stop-opacity="1" stop-color="rgb(16.648865%, 16.648865%, 16.648865%)" offset="0.496094"/><stop stop-opacity="1" stop-color="rgb(16.973877%, 16.973877%, 16.973877%)" offset="0.503906"/><stop stop-opacity="1" stop-color="rgb(17.364502%, 17.364502%, 17.364502%)" offset="0.515625"/><stop stop-opacity="1" stop-color="rgb(17.755127%, 17.755127%, 17.755127%)" offset="0.527344"/><stop stop-opacity="1" stop-color="rgb(18.144226%, 18.144226%, 18.144226%)" offset="0.539062"/><stop stop-opacity="1" stop-color="rgb(18.534851%, 18.534851%, 18.534851%)" offset="0.550781"/><stop stop-opacity="1" stop-color="rgb(18.925476%, 18.925476%, 18.925476%)" offset="0.5625"/><stop stop-opacity="1" stop-color="rgb(19.316101%, 19.316101%, 19.316101%)" offset="0.574219"/><stop stop-opacity="1" stop-color="rgb(19.7052%, 19.7052%, 19.7052%)" offset="0.585938"/><stop stop-opacity="1" stop-color="rgb(20.095825%, 20.095825%, 20.095825%)" offset="0.597656"/><stop stop-opacity="1" stop-color="rgb(20.48645%, 20.48645%, 20.48645%)" offset="0.609375"/><stop stop-opacity="1" stop-color="rgb(20.877075%, 20.877075%, 20.877075%)" offset="0.621094"/><stop stop-opacity="1" stop-color="rgb(21.202087%, 21.202087%, 21.202087%)" offset="0.632812"/><stop stop-opacity="1" stop-color="rgb(21.461487%, 21.461487%, 21.461487%)" offset="0.640625"/><stop stop-opacity="1" stop-color="rgb(21.722412%, 21.722412%, 21.722412%)" offset="0.648438"/><stop stop-opacity="1" stop-color="rgb(21.981812%, 21.981812%, 21.981812%)" offset="0.65625"/><stop stop-opacity="1" stop-color="rgb(22.242737%, 22.242737%, 22.242737%)" offset="0.664062"/><stop stop-opacity="1" stop-color="rgb(22.502136%, 22.502136%, 22.502136%)" offset="0.671875"/><stop stop-opacity="1" stop-color="rgb(22.763062%, 22.763062%, 22.763062%)" offset="0.679688"/><stop stop-opacity="1" stop-color="rgb(23.022461%, 23.022461%, 23.022461%)" offset="0.6875"/><stop stop-opacity="1" stop-color="rgb(23.283386%, 23.283386%, 23.283386%)" offset="0.695312"/><stop stop-opacity="1" stop-color="rgb(23.542786%, 23.542786%, 23.542786%)" offset="0.703125"/><stop stop-opacity="1" stop-color="rgb(23.803711%, 23.803711%, 23.803711%)" offset="0.710938"/><stop stop-opacity="1" stop-color="rgb(24.06311%, 24.06311%, 24.06311%)" offset="0.71875"/><stop stop-opacity="1" stop-color="rgb(24.324036%, 24.324036%, 24.324036%)" offset="0.726562"/><stop stop-opacity="1" stop-color="rgb(24.583435%, 24.583435%, 24.583435%)" offset="0.734375"/><stop stop-opacity="1" stop-color="rgb(24.84436%, 24.84436%, 24.84436%)" offset="0.742188"/><stop stop-opacity="1" stop-color="rgb(25.10376%, 25.10376%, 25.10376%)" offset="0.75"/><stop stop-opacity="1" stop-color="rgb(25.428772%, 25.428772%, 25.428772%)" offset="0.757812"/><stop stop-opacity="1" stop-color="rgb(25.819397%, 25.819397%, 25.819397%)" offset="0.769531"/><stop stop-opacity="1" stop-color="rgb(26.210022%, 26.210022%, 26.210022%)" offset="0.78125"/><stop stop-opacity="1" stop-color="rgb(26.600647%, 26.600647%, 26.600647%)" offset="0.792969"/><stop stop-opacity="1" stop-color="rgb(26.989746%, 26.989746%, 26.989746%)" offset="0.804688"/><stop stop-opacity="1" stop-color="rgb(27.314758%, 27.314758%, 27.314758%)" offset="0.816406"/><stop stop-opacity="1" stop-color="rgb(27.575684%, 27.575684%, 27.575684%)" offset="0.824219"/><stop stop-opacity="1" stop-color="rgb(27.835083%, 27.835083%, 27.835083%)" offset="0.832031"/><stop stop-opacity="1" stop-color="rgb(28.096008%, 28.096008%, 28.096008%)" offset="0.839844"/><stop stop-opacity="1" stop-color="rgb(28.355408%, 28.355408%, 28.355408%)" offset="0.847656"/><stop stop-opacity="1" stop-color="rgb(28.616333%, 28.616333%, 28.616333%)" offset="0.855469"/><stop stop-opacity="1" stop-color="rgb(28.875732%, 28.875732%, 28.875732%)" offset="0.863281"/><stop stop-opacity="1" stop-color="rgb(29.136658%, 29.136658%, 29.136658%)" offset="0.871094"/><stop stop-opacity="1" stop-color="rgb(29.46167%, 29.46167%, 29.46167%)" offset="0.878906"/><stop stop-opacity="1" stop-color="rgb(29.852295%, 29.852295%, 29.852295%)" offset="0.890625"/><stop stop-opacity="1" stop-color="rgb(30.24292%, 30.24292%, 30.24292%)" offset="0.902344"/><stop stop-opacity="1" stop-color="rgb(30.567932%, 30.567932%, 30.567932%)" offset="0.914062"/><stop stop-opacity="1" stop-color="rgb(30.827332%, 30.827332%, 30.827332%)" offset="0.921875"/><stop stop-opacity="1" stop-color="rgb(31.088257%, 31.088257%, 31.088257%)" offset="0.929688"/><stop stop-opacity="1" stop-color="rgb(31.347656%, 31.347656%, 31.347656%)" offset="0.9375"/><stop stop-opacity="1" stop-color="rgb(31.672668%, 31.672668%, 31.672668%)" offset="0.945312"/><stop stop-opacity="1" stop-color="rgb(31.997681%, 31.997681%, 31.997681%)" offset="0.957031"/><stop stop-opacity="1" stop-color="rgb(32.258606%, 32.258606%, 32.258606%)" offset="0.964844"/><stop stop-opacity="1" stop-color="rgb(32.583618%, 32.583618%, 32.583618%)" offset="0.972656"/><stop stop-opacity="1" stop-color="rgb(32.90863%, 32.90863%, 32.90863%)" offset="0.984375"/><stop stop-opacity="1" stop-color="rgb(33.16803%, 33.16803%, 33.16803%)" offset="0.992188"/><stop stop-opacity="1" stop-color="rgb(33.299255%, 33.299255%, 33.299255%)" offset="1"/></radialGradient><clipPath id="9583d13c0f"><rect x="0" width="226" y="0" height="226"/></clipPath><clipPath id="7e62fcd55f"><path d="M 182.488281 102.578125 L 279.832031 102.578125 L 279.832031 208.15625 L 182.488281 208.15625 Z M 182.488281 102.578125 " clip-rule="nonzero"/></clipPath></defs><g mask="url(#2ef3078cbc)"><g transform="matrix(1, 0, 0, 1, 116, 40)"><g clip-path="url(#9583d13c0f)"><g clip-path="url(#b937ee996a)"><g clip-path="url(#099fcded1e)"><path fill="url(#94dc54540a)" d="M 0.441406 0.691406 L 0.441406 225.308594 L 225.0625 225.308594 L 225.0625 0.691406 Z M 0.441406 0.691406 " fill-rule="nonzero"/></g></g></g></g></g><g clip-path="url(#7e62fcd55f)"><path fill="#2196f3" d="M 279.21875 103.300781 C 278.777344 102.820312 278.230469 102.578125 277.578125 102.578125 L 184.742188 102.578125 C 184.429688 102.578125 184.128906 102.640625 183.84375 102.765625 C 183.554688 102.890625 183.308594 103.070312 183.097656 103.300781 C 182.886719 103.53125 182.730469 103.792969 182.632812 104.089844 C 182.535156 104.386719 182.5 104.6875 182.53125 105 L 191.375 192.980469 C 191.417969 193.410156 191.574219 193.796875 191.847656 194.136719 C 192.117188 194.472656 192.460938 194.710938 192.871094 194.851562 L 232.660156 208.046875 C 232.890625 208.121094 233.128906 208.15625 233.371094 208.15625 C 233.636719 208.15625 233.898438 208.109375 234.148438 208.015625 L 269.515625 194.820312 C 269.910156 194.671875 270.234375 194.433594 270.496094 194.101562 C 270.753906 193.773438 270.902344 193.398438 270.945312 192.980469 L 279.789062 105 C 279.851562 104.347656 279.660156 103.78125 279.21875 103.300781 Z M 279.21875 103.300781 " fill-opacity="1" fill-rule="nonzero"/></g><path fill="#fafafa" d="M 233.371094 186.160156 C 233.132812 186.160156 232.898438 186.125 232.671875 186.050781 L 212.777344 179.453125 C 212.402344 179.328125 212.085938 179.117188 211.824219 178.824219 C 211.558594 178.53125 211.390625 178.1875 211.3125 177.804688 L 209.101562 166.804688 C 209.042969 166.519531 209.039062 166.234375 209.097656 165.945312 C 209.152344 165.660156 209.261719 165.394531 209.421875 165.152344 C 209.585938 164.910156 209.785156 164.707031 210.03125 164.542969 C 210.273438 164.378906 210.539062 164.269531 210.824219 164.210938 C 211.113281 164.152344 211.398438 164.148438 211.6875 164.207031 C 211.976562 164.261719 212.242188 164.367188 212.488281 164.53125 C 212.730469 164.691406 212.933594 164.890625 213.097656 165.132812 C 213.261719 165.375 213.375 165.640625 213.433594 165.925781 L 215.390625 175.667969 L 233.328125 181.628906 L 249.089844 175.75 L 257.269531 128.972656 L 206.847656 128.972656 C 206.554688 128.972656 206.269531 128.917969 206 128.804688 C 205.730469 128.695312 205.492188 128.535156 205.285156 128.328125 C 205.078125 128.125 204.917969 127.886719 204.804688 127.617188 C 204.691406 127.347656 204.636719 127.066406 204.636719 126.773438 C 204.636719 126.484375 204.691406 126.203125 204.804688 125.933594 C 204.917969 125.664062 205.078125 125.425781 205.285156 125.21875 C 205.492188 125.011719 205.730469 124.855469 206 124.742188 C 206.269531 124.628906 206.554688 124.574219 206.847656 124.574219 L 259.894531 124.574219 C 260.222656 124.574219 260.53125 124.644531 260.828125 124.78125 C 261.125 124.917969 261.378906 125.109375 261.589844 125.359375 C 261.796875 125.605469 261.945312 125.886719 262.03125 126.203125 C 262.117188 126.515625 262.128906 126.832031 262.074219 127.152344 L 253.234375 177.742188 C 253.164062 178.125 253.007812 178.46875 252.757812 178.765625 C 252.507812 179.066406 252.199219 179.285156 251.832031 179.421875 L 234.148438 186.019531 C 233.898438 186.113281 233.636719 186.160156 233.371094 186.160156 Z M 233.371094 186.160156 " fill-opacity="1" fill-rule="nonzero"/><path fill="#fafafa" d="M 255.472656 150.96875 L 209.058594 150.96875 C 208.765625 150.96875 208.480469 150.914062 208.210938 150.800781 C 207.941406 150.691406 207.703125 150.53125 207.492188 150.324219 C 207.285156 150.117188 207.128906 149.878906 207.015625 149.609375 C 206.902344 149.34375 206.847656 149.0625 206.847656 148.769531 C 206.847656 148.476562 206.902344 148.199219 207.015625 147.929688 C 207.128906 147.660156 207.285156 147.421875 207.492188 147.214844 C 207.703125 147.007812 207.941406 146.847656 208.210938 146.738281 C 208.480469 146.625 208.765625 146.570312 209.058594 146.570312 L 255.472656 146.570312 C 255.765625 146.570312 256.050781 146.625 256.320312 146.738281 C 256.589844 146.847656 256.828125 147.007812 257.035156 147.214844 C 257.242188 147.421875 257.402344 147.660156 257.515625 147.929688 C 257.628906 148.199219 257.683594 148.476562 257.683594 148.769531 C 257.683594 149.0625 257.628906 149.34375 257.515625 149.609375 C 257.402344 149.878906 257.242188 150.117188 257.035156 150.324219 C 256.828125 150.53125 256.589844 150.691406 256.320312 150.800781 C 256.050781 150.914062 255.765625 150.96875 255.472656 150.96875 Z M 255.472656 150.96875 " fill-opacity="1" fill-rule="nonzero"/></svg>