<svg xmlns="http://www.w3.org/2000/svg" xmlns:xlink="http://www.w3.org/1999/xlink" width="611" zoomAndPan="magnify" viewBox="0 0 458.25 305.999988" height="408" preserveAspectRatio="xMidYMid meet" version="1.0"><defs><filter x="0%" y="0%" width="100%" height="100%" id="7acff3cae5"><feColorMatrix values="0 0 0 0 1 0 0 0 0 1 0 0 0 0 1 0 0 0 1 0" color-interpolation-filters="sRGB"/></filter><mask id="f21e740c4a"><g filter="url(#7acff3cae5)"><rect x="-45.825" width="549.9" fill="#000000" y="-30.599999" height="367.199986" fill-opacity="0.64"/></g></mask><clipPath id="cf003d2045"><path d="M 0.484375 0.734375 L 225.019531 0.734375 L 225.019531 225.265625 L 0.484375 225.265625 Z M 0.484375 0.734375 " clip-rule="nonzero"/></clipPath><clipPath id="8263986fe4"><path d="M 112.75 0.734375 C 50.746094 0.734375 0.484375 50.996094 0.484375 113 C 0.484375 175.003906 50.746094 225.265625 112.75 225.265625 C 174.753906 225.265625 225.019531 175.003906 225.019531 113 C 225.019531 50.996094 174.753906 0.734375 112.75 0.734375 Z M 112.75 0.734375 " clip-rule="nonzero"/></clipPath><radialGradient gradientTransform="matrix(1, 0, 0, 1, 0.483043, 0.732486)" gradientUnits="userSpaceOnUse" r="158.769991" cx="112.267546" id="dd45284fa6" cy="112.267546" fx="112.267546" fy="112.267546"><stop stop-opacity="1" stop-color="rgb(0.1297%, 0.1297%, 0.1297%)" offset="0"/><stop stop-opacity="1" stop-color="rgb(0.454712%, 0.454712%, 0.454712%)" offset="0.0078125"/><stop stop-opacity="1" stop-color="rgb(0.843811%, 0.843811%, 0.843811%)" offset="0.0195312"/><stop stop-opacity="1" stop-color="rgb(1.234436%, 1.234436%, 1.234436%)" offset="0.03125"/><stop stop-opacity="1" stop-color="rgb(1.625061%, 1.625061%, 1.625061%)" offset="0.0429688"/><stop stop-opacity="1" stop-color="rgb(2.015686%, 2.015686%, 2.015686%)" offset="0.0546875"/><stop stop-opacity="1" stop-color="rgb(2.404785%, 2.404785%, 2.404785%)" offset="0.0664062"/><stop stop-opacity="1" stop-color="rgb(2.79541%, 2.79541%, 2.79541%)" offset="0.078125"/><stop stop-opacity="1" stop-color="rgb(3.186035%, 3.186035%, 3.186035%)" offset="0.0898438"/><stop stop-opacity="1" stop-color="rgb(3.57666%, 3.57666%, 3.57666%)" offset="0.101562"/><stop stop-opacity="1" stop-color="rgb(3.965759%, 3.965759%, 3.965759%)" offset="0.113281"/><stop stop-opacity="1" stop-color="rgb(4.356384%, 4.356384%, 4.356384%)" offset="0.125"/><stop stop-opacity="1" stop-color="rgb(4.747009%, 4.747009%, 4.747009%)" offset="0.136719"/><stop stop-opacity="1" stop-color="rgb(5.137634%, 5.137634%, 5.137634%)" offset="0.148438"/><stop stop-opacity="1" stop-color="rgb(5.526733%, 5.526733%, 5.526733%)" offset="0.160156"/><stop stop-opacity="1" stop-color="rgb(5.917358%, 5.917358%, 5.917358%)" offset="0.171875"/><stop stop-opacity="1" stop-color="rgb(6.307983%, 6.307983%, 6.307983%)" offset="0.183594"/><stop stop-opacity="1" stop-color="rgb(6.698608%, 6.698608%, 6.698608%)" offset="0.195312"/><stop stop-opacity="1" stop-color="rgb(7.087708%, 7.087708%, 7.087708%)" offset="0.207031"/><stop stop-opacity="1" stop-color="rgb(7.478333%, 7.478333%, 7.478333%)" offset="0.21875"/><stop stop-opacity="1" stop-color="rgb(7.868958%, 7.868958%, 7.868958%)" offset="0.230469"/><stop stop-opacity="1" stop-color="rgb(8.259583%, 8.259583%, 8.259583%)" offset="0.242188"/><stop stop-opacity="1" stop-color="rgb(8.584595%, 8.584595%, 8.584595%)" offset="0.253906"/><stop stop-opacity="1" stop-color="rgb(8.843994%, 8.843994%, 8.843994%)" offset="0.261719"/><stop stop-opacity="1" stop-color="rgb(9.104919%, 9.104919%, 9.104919%)" offset="0.269531"/><stop stop-opacity="1" stop-color="rgb(9.364319%, 9.364319%, 9.364319%)" offset="0.277344"/><stop stop-opacity="1" stop-color="rgb(9.625244%, 9.625244%, 9.625244%)" offset="0.285156"/><stop stop-opacity="1" stop-color="rgb(9.884644%, 9.884644%, 9.884644%)" offset="0.292969"/><stop stop-opacity="1" stop-color="rgb(10.145569%, 10.145569%, 10.145569%)" offset="0.300781"/><stop stop-opacity="1" stop-color="rgb(10.404968%, 10.404968%, 10.404968%)" offset="0.308594"/><stop stop-opacity="1" stop-color="rgb(10.665894%, 10.665894%, 10.665894%)" offset="0.316406"/><stop stop-opacity="1" stop-color="rgb(10.925293%, 10.925293%, 10.925293%)" offset="0.324219"/><stop stop-opacity="1" stop-color="rgb(11.186218%, 11.186218%, 11.186218%)" offset="0.332031"/><stop stop-opacity="1" stop-color="rgb(11.445618%, 11.445618%, 11.445618%)" offset="0.339844"/><stop stop-opacity="1" stop-color="rgb(11.706543%, 11.706543%, 11.706543%)" offset="0.347656"/><stop stop-opacity="1" stop-color="rgb(11.965942%, 11.965942%, 11.965942%)" offset="0.355469"/><stop stop-opacity="1" stop-color="rgb(12.226868%, 12.226868%, 12.226868%)" offset="0.363281"/><stop stop-opacity="1" stop-color="rgb(12.486267%, 12.486267%, 12.486267%)" offset="0.371094"/><stop stop-opacity="1" stop-color="rgb(12.747192%, 12.747192%, 12.747192%)" offset="0.378906"/><stop stop-opacity="1" stop-color="rgb(13.006592%, 13.006592%, 13.006592%)" offset="0.386719"/><stop stop-opacity="1" stop-color="rgb(13.267517%, 13.267517%, 13.267517%)" offset="0.394531"/><stop stop-opacity="1" stop-color="rgb(13.526917%, 13.526917%, 13.526917%)" offset="0.402344"/><stop stop-opacity="1" stop-color="rgb(13.787842%, 13.787842%, 13.787842%)" offset="0.410156"/><stop stop-opacity="1" stop-color="rgb(14.047241%, 14.047241%, 14.047241%)" offset="0.417969"/><stop stop-opacity="1" stop-color="rgb(14.308167%, 14.308167%, 14.308167%)" offset="0.425781"/><stop stop-opacity="1" stop-color="rgb(14.567566%, 14.567566%, 14.567566%)" offset="0.433594"/><stop stop-opacity="1" stop-color="rgb(14.828491%, 14.828491%, 14.828491%)" offset="0.441406"/><stop stop-opacity="1" stop-color="rgb(15.087891%, 15.087891%, 15.087891%)" offset="0.449219"/><stop stop-opacity="1" stop-color="rgb(15.348816%, 15.348816%, 15.348816%)" offset="0.457031"/><stop stop-opacity="1" stop-color="rgb(15.608215%, 15.608215%, 15.608215%)" offset="0.464844"/><stop stop-opacity="1" stop-color="rgb(15.869141%, 15.869141%, 15.869141%)" offset="0.472656"/><stop stop-opacity="1" stop-color="rgb(16.12854%, 16.12854%, 16.12854%)" offset="0.480469"/><stop stop-opacity="1" stop-color="rgb(16.389465%, 16.389465%, 16.389465%)" offset="0.488281"/><stop stop-opacity="1" stop-color="rgb(16.648865%, 16.648865%, 16.648865%)" offset="0.496094"/><stop stop-opacity="1" stop-color="rgb(16.973877%, 16.973877%, 16.973877%)" offset="0.503906"/><stop stop-opacity="1" stop-color="rgb(17.364502%, 17.364502%, 17.364502%)" offset="0.515625"/><stop stop-opacity="1" stop-color="rgb(17.755127%, 17.755127%, 17.755127%)" offset="0.527344"/><stop stop-opacity="1" stop-color="rgb(18.144226%, 18.144226%, 18.144226%)" offset="0.539062"/><stop stop-opacity="1" stop-color="rgb(18.534851%, 18.534851%, 18.534851%)" offset="0.550781"/><stop stop-opacity="1" stop-color="rgb(18.925476%, 18.925476%, 18.925476%)" offset="0.5625"/><stop stop-opacity="1" stop-color="rgb(19.316101%, 19.316101%, 19.316101%)" offset="0.574219"/><stop stop-opacity="1" stop-color="rgb(19.7052%, 19.7052%, 19.7052%)" offset="0.585938"/><stop stop-opacity="1" stop-color="rgb(20.095825%, 20.095825%, 20.095825%)" offset="0.597656"/><stop stop-opacity="1" stop-color="rgb(20.48645%, 20.48645%, 20.48645%)" offset="0.609375"/><stop stop-opacity="1" stop-color="rgb(20.877075%, 20.877075%, 20.877075%)" offset="0.621094"/><stop stop-opacity="1" stop-color="rgb(21.202087%, 21.202087%, 21.202087%)" offset="0.632812"/><stop stop-opacity="1" stop-color="rgb(21.461487%, 21.461487%, 21.461487%)" offset="0.640625"/><stop stop-opacity="1" stop-color="rgb(21.722412%, 21.722412%, 21.722412%)" offset="0.648438"/><stop stop-opacity="1" stop-color="rgb(21.981812%, 21.981812%, 21.981812%)" offset="0.65625"/><stop stop-opacity="1" stop-color="rgb(22.242737%, 22.242737%, 22.242737%)" offset="0.664062"/><stop stop-opacity="1" stop-color="rgb(22.502136%, 22.502136%, 22.502136%)" offset="0.671875"/><stop stop-opacity="1" stop-color="rgb(22.763062%, 22.763062%, 22.763062%)" offset="0.679688"/><stop stop-opacity="1" stop-color="rgb(23.022461%, 23.022461%, 23.022461%)" offset="0.6875"/><stop stop-opacity="1" stop-color="rgb(23.283386%, 23.283386%, 23.283386%)" offset="0.695312"/><stop stop-opacity="1" stop-color="rgb(23.542786%, 23.542786%, 23.542786%)" offset="0.703125"/><stop stop-opacity="1" stop-color="rgb(23.803711%, 23.803711%, 23.803711%)" offset="0.710938"/><stop stop-opacity="1" stop-color="rgb(24.06311%, 24.06311%, 24.06311%)" offset="0.71875"/><stop stop-opacity="1" stop-color="rgb(24.324036%, 24.324036%, 24.324036%)" offset="0.726562"/><stop stop-opacity="1" stop-color="rgb(24.583435%, 24.583435%, 24.583435%)" offset="0.734375"/><stop stop-opacity="1" stop-color="rgb(24.84436%, 24.84436%, 24.84436%)" offset="0.742188"/><stop stop-opacity="1" stop-color="rgb(25.10376%, 25.10376%, 25.10376%)" offset="0.75"/><stop stop-opacity="1" stop-color="rgb(25.428772%, 25.428772%, 25.428772%)" offset="0.757812"/><stop stop-opacity="1" stop-color="rgb(25.819397%, 25.819397%, 25.819397%)" offset="0.769531"/><stop stop-opacity="1" stop-color="rgb(26.210022%, 26.210022%, 26.210022%)" offset="0.78125"/><stop stop-opacity="1" stop-color="rgb(26.600647%, 26.600647%, 26.600647%)" offset="0.792969"/><stop stop-opacity="1" stop-color="rgb(26.989746%, 26.989746%, 26.989746%)" offset="0.804688"/><stop stop-opacity="1" stop-color="rgb(27.314758%, 27.314758%, 27.314758%)" offset="0.816406"/><stop stop-opacity="1" stop-color="rgb(27.575684%, 27.575684%, 27.575684%)" offset="0.824219"/><stop stop-opacity="1" stop-color="rgb(27.835083%, 27.835083%, 27.835083%)" offset="0.832031"/><stop stop-opacity="1" stop-color="rgb(28.096008%, 28.096008%, 28.096008%)" offset="0.839844"/><stop stop-opacity="1" stop-color="rgb(28.355408%, 28.355408%, 28.355408%)" offset="0.847656"/><stop stop-opacity="1" stop-color="rgb(28.616333%, 28.616333%, 28.616333%)" offset="0.855469"/><stop stop-opacity="1" stop-color="rgb(28.875732%, 28.875732%, 28.875732%)" offset="0.863281"/><stop stop-opacity="1" stop-color="rgb(29.136658%, 29.136658%, 29.136658%)" offset="0.871094"/><stop stop-opacity="1" stop-color="rgb(29.46167%, 29.46167%, 29.46167%)" offset="0.878906"/><stop stop-opacity="1" stop-color="rgb(29.852295%, 29.852295%, 29.852295%)" offset="0.890625"/><stop stop-opacity="1" stop-color="rgb(30.24292%, 30.24292%, 30.24292%)" offset="0.902344"/><stop stop-opacity="1" stop-color="rgb(30.567932%, 30.567932%, 30.567932%)" offset="0.914062"/><stop stop-opacity="1" stop-color="rgb(30.827332%, 30.827332%, 30.827332%)" offset="0.921875"/><stop stop-opacity="1" stop-color="rgb(31.088257%, 31.088257%, 31.088257%)" offset="0.929688"/><stop stop-opacity="1" stop-color="rgb(31.347656%, 31.347656%, 31.347656%)" offset="0.9375"/><stop stop-opacity="1" stop-color="rgb(31.672668%, 31.672668%, 31.672668%)" offset="0.945312"/><stop stop-opacity="1" stop-color="rgb(31.997681%, 31.997681%, 31.997681%)" offset="0.957031"/><stop stop-opacity="1" stop-color="rgb(32.258606%, 32.258606%, 32.258606%)" offset="0.964844"/><stop stop-opacity="1" stop-color="rgb(32.583618%, 32.583618%, 32.583618%)" offset="0.972656"/><stop stop-opacity="1" stop-color="rgb(32.90863%, 32.90863%, 32.90863%)" offset="0.984375"/><stop stop-opacity="1" stop-color="rgb(33.16803%, 33.16803%, 33.16803%)" offset="0.992188"/><stop stop-opacity="1" stop-color="rgb(33.299255%, 33.299255%, 33.299255%)" offset="1"/></radialGradient><clipPath id="04f0cc3874"><rect x="0" width="226" y="0" height="226"/></clipPath><clipPath id="4dcd082d37"><path d="M 145.796875 70.046875 L 310.59375 70.046875 L 310.59375 234.84375 L 145.796875 234.84375 Z M 145.796875 70.046875 " clip-rule="nonzero"/></clipPath></defs><g mask="url(#f21e740c4a)"><g transform="matrix(1, 0, 0, 1, 116, 40)"><g clip-path="url(#04f0cc3874)"><g clip-path="url(#cf003d2045)"><g clip-path="url(#8263986fe4)"><path fill="url(#dd45284fa6)" d="M 0.484375 0.734375 L 0.484375 225.265625 L 225.019531 225.265625 L 225.019531 0.734375 Z M 0.484375 0.734375 " fill-rule="nonzero"/></g></g></g></g></g><path fill="#bce2f6" d="M 189.480469 164.09375 L 189.480469 113.792969 C 189.480469 106.007812 195.847656 99.703125 203.570312 99.703125 L 247.628906 99.703125 C 247.382812 99.703125 247.132812 99.765625 246.949219 99.828125 C 246.207031 100.136719 245.710938 100.878906 245.710938 101.621094 L 245.710938 114.472656 C 245.710938 117.996094 248.617188 120.835938 252.078125 120.835938 L 264.992188 120.835938 C 265.917969 120.835938 266.722656 120.15625 266.90625 119.230469 L 266.90625 164.09375 Z M 189.480469 164.09375 " fill-opacity="1" fill-rule="evenodd"/><path fill="#98b7c7" d="M 264.992188 120.835938 C 264.992188 120.835938 264.929688 120.835938 264.929688 120.835938 L 252.078125 120.835938 C 248.617188 120.835938 245.710938 117.996094 245.710938 114.472656 L 245.710938 99.703125 L 247.628906 99.703125 C 248.121094 99.703125 248.679688 99.890625 249.050781 100.261719 L 266.164062 117.378906 C 266.597656 117.75 266.90625 118.304688 266.90625 118.921875 C 266.90625 119.046875 266.90625 119.109375 266.90625 119.230469 L 266.90625 120.835938 Z M 264.992188 120.835938 " fill-opacity="1" fill-rule="evenodd"/><path fill="#ffe600" d="M 268.203125 205.183594 L 188.121094 205.183594 C 183.242188 205.183594 179.285156 201.167969 179.285156 196.347656 L 179.285156 172.929688 C 179.285156 168.046875 183.242188 164.09375 188.121094 164.09375 L 268.203125 164.09375 C 273.085938 164.09375 277.042969 168.046875 277.042969 172.929688 L 277.042969 196.347656 C 277.042969 201.167969 273.085938 205.183594 268.203125 205.183594 Z M 268.203125 205.183594 " fill-opacity="1" fill-rule="evenodd"/><path fill="#333333" d="M 252.878906 156.800781 L 203.507812 156.800781 C 202.707031 156.800781 202.085938 156.183594 202.085938 155.378906 C 202.085938 154.636719 202.707031 153.957031 203.507812 153.957031 L 252.878906 153.957031 C 253.621094 153.957031 254.238281 154.636719 254.238281 155.378906 C 254.238281 156.183594 253.621094 156.800781 252.878906 156.800781 Z M 252.878906 145.988281 L 203.507812 145.988281 C 202.707031 145.988281 202.085938 145.367188 202.085938 144.628906 C 202.085938 143.824219 202.707031 143.207031 203.507812 143.207031 L 252.878906 143.207031 C 253.621094 143.207031 254.238281 143.824219 254.238281 144.628906 C 254.238281 145.367188 253.621094 145.988281 252.878906 145.988281 Z M 252.878906 135.234375 L 203.507812 135.234375 C 202.707031 135.234375 202.085938 134.617188 202.085938 133.8125 C 202.085938 133.074219 202.707031 132.394531 203.507812 132.394531 L 252.878906 132.394531 C 253.621094 132.394531 254.238281 133.074219 254.238281 133.8125 C 254.238281 134.617188 253.621094 135.234375 252.878906 135.234375 Z M 240.152344 117.378906 L 234.464844 111.691406 C 233.910156 111.136719 233.910156 110.269531 234.464844 109.714844 C 235.023438 109.160156 235.886719 109.160156 236.445312 109.714844 L 243.117188 116.328125 C 243.363281 116.636719 243.488281 117.007812 243.488281 117.378906 C 243.488281 117.75 243.363281 118.058594 243.117188 118.367188 L 236.445312 124.976562 C 236.195312 125.226562 235.824219 125.410156 235.457031 125.410156 C 235.085938 125.410156 234.714844 125.226562 234.464844 124.976562 C 233.910156 124.421875 233.910156 123.558594 234.464844 123 Z M 216.054688 117.378906 L 221.675781 123 C 222.230469 123.558594 222.230469 124.421875 221.675781 124.976562 C 221.429688 125.226562 221.058594 125.410156 220.6875 125.410156 C 220.316406 125.410156 219.945312 125.226562 219.699219 124.976562 L 213.085938 118.367188 C 212.777344 118.058594 212.652344 117.75 212.652344 117.378906 C 212.652344 117.007812 212.777344 116.636719 213.085938 116.328125 L 219.699219 109.714844 C 220.253906 109.160156 221.121094 109.160156 221.675781 109.714844 C 222.230469 110.269531 222.230469 111.136719 221.675781 111.691406 Z M 226.308594 125.65625 C 226 125.65625 226.1875 125.65625 225.9375 125.597656 C 225.199219 125.410156 224.765625 124.605469 224.949219 123.867188 L 228.535156 110.519531 C 228.71875 109.777344 229.523438 109.28125 230.265625 109.53125 C 231.007812 109.714844 231.4375 110.457031 231.253906 111.199219 L 227.667969 124.605469 C 227.484375 125.226562 226.929688 125.65625 226.308594 125.65625 Z M 226.308594 125.65625 " fill-opacity="1" fill-rule="evenodd"/><path fill="#333333" d="M 217.101562 198.015625 C 215.25 198.015625 213.394531 197.460938 211.914062 196.222656 C 210.246094 194.863281 209.441406 192.949219 209.441406 190.847656 L 209.441406 189.734375 C 209.441406 188.933594 210.121094 188.3125 210.863281 188.3125 C 211.664062 188.3125 212.285156 188.933594 212.285156 189.734375 L 212.285156 190.847656 C 212.285156 192.144531 212.714844 193.257812 213.703125 194.0625 C 215.496094 195.542969 218.773438 195.542969 220.5625 194.0625 C 221.613281 193.257812 222.046875 192.082031 222.046875 190.785156 L 222.046875 173.300781 C 222.046875 172.558594 222.664062 171.941406 223.46875 171.941406 C 224.210938 171.941406 224.828125 172.558594 224.828125 173.300781 L 224.828125 190.785156 C 224.828125 195.171875 221.367188 198.015625 217.101562 198.015625 Z M 237.863281 198.015625 C 234.34375 198.015625 230.265625 196.160156 229.152344 192.515625 C 228.96875 191.960938 228.84375 191.402344 228.84375 190.785156 C 228.84375 189.984375 229.460938 189.363281 230.265625 189.363281 C 231.066406 189.363281 231.6875 189.984375 231.6875 190.785156 C 231.6875 190.972656 231.6875 191.15625 231.746094 191.34375 C 232.242188 193.9375 235.515625 195.171875 237.863281 195.171875 C 240.214844 195.171875 243.550781 193.9375 244.042969 191.34375 C 244.105469 191.15625 244.105469 190.972656 244.105469 190.785156 C 244.105469 190.042969 243.984375 189.242188 243.488281 188.625 C 242.4375 187.140625 239.347656 186.644531 237.617188 186.335938 C 233.292969 185.535156 228.84375 184.546875 228.84375 179.167969 C 228.84375 178.550781 228.96875 177.933594 229.152344 177.378906 C 230.265625 173.792969 234.34375 171.941406 237.863281 171.941406 C 241.449219 171.941406 245.464844 173.792969 246.640625 177.378906 C 246.824219 177.933594 246.886719 178.550781 246.886719 179.167969 C 246.886719 179.910156 246.269531 180.527344 245.527344 180.527344 C 244.722656 180.527344 244.105469 179.910156 244.105469 179.167969 C 244.105469 178.984375 244.105469 178.738281 244.042969 178.550781 C 243.550781 175.957031 240.214844 174.71875 237.863281 174.71875 C 235.515625 174.71875 232.242188 175.957031 231.746094 178.550781 C 231.6875 178.738281 231.6875 178.984375 231.6875 179.167969 C 231.6875 179.910156 231.808594 180.652344 232.242188 181.269531 C 233.355469 182.816406 236.445312 183.246094 238.113281 183.554688 C 242.5 184.359375 246.886719 185.347656 246.886719 190.785156 C 246.886719 191.402344 246.824219 191.960938 246.640625 192.515625 C 245.464844 196.160156 241.449219 198.015625 237.863281 198.015625 Z M 237.863281 198.015625 " fill-opacity="1" fill-rule="evenodd"/><g clip-path="url(#4dcd082d37)"><path fill="#bce2f6" d="M 228.164062 70.046875 C 273.703125 70.046875 310.59375 106.933594 310.59375 152.414062 C 310.59375 197.953125 273.703125 234.84375 228.164062 234.84375 C 182.683594 234.84375 145.796875 197.953125 145.796875 152.414062 C 145.796875 106.933594 182.683594 70.046875 228.164062 70.046875 Z M 228.164062 77.027344 C 269.8125 77.027344 303.613281 110.765625 303.613281 152.414062 C 303.613281 194.0625 269.8125 227.859375 228.164062 227.859375 C 186.515625 227.859375 152.777344 194.0625 152.777344 152.414062 C 152.777344 110.765625 186.515625 77.027344 228.164062 77.027344 Z M 228.164062 77.027344 " fill-opacity="1" fill-rule="evenodd"/></g><path fill="#333333" d="M 228.164062 74.679688 C 271.109375 74.679688 305.898438 109.53125 305.898438 152.414062 C 305.898438 195.359375 271.109375 230.148438 228.164062 230.148438 C 185.28125 230.148438 150.429688 195.359375 150.429688 152.414062 C 150.429688 109.53125 185.28125 74.679688 228.164062 74.679688 Z M 228.164062 77.027344 C 269.8125 77.027344 303.613281 110.765625 303.613281 152.414062 C 303.613281 194.0625 269.8125 227.859375 228.164062 227.859375 C 186.515625 227.859375 152.777344 194.0625 152.777344 152.414062 C 152.777344 110.765625 186.515625 77.027344 228.164062 77.027344 Z M 228.164062 77.027344 " fill-opacity="1" fill-rule="evenodd"/></svg>