<svg xmlns="http://www.w3.org/2000/svg" xmlns:xlink="http://www.w3.org/1999/xlink" width="611" zoomAndPan="magnify" viewBox="0 0 458.25 305.999988" height="408" preserveAspectRatio="xMidYMid meet" version="1.0"><defs><filter x="0%" y="0%" width="100%" height="100%" id="78b17d93d7"><feColorMatrix values="0 0 0 0 1 0 0 0 0 1 0 0 0 0 1 0 0 0 1 0" color-interpolation-filters="sRGB"/></filter><mask id="00bc287674"><g filter="url(#78b17d93d7)"><rect x="-45.825" width="549.9" fill="#000000" y="-30.599999" height="367.199986" fill-opacity="0.64"/></g></mask><clipPath id="f05e25e92d"><path d="M 0.40625 0.65625 L 224.726562 0.65625 L 224.726562 224.972656 L 0.40625 224.972656 Z M 0.40625 0.65625 " clip-rule="nonzero"/></clipPath><clipPath id="2f28c42834"><path d="M 112.566406 0.65625 C 50.621094 0.65625 0.40625 50.871094 0.40625 112.816406 C 0.40625 174.757812 50.621094 224.972656 112.566406 224.972656 C 174.511719 224.972656 224.726562 174.757812 224.726562 112.816406 C 224.726562 50.871094 174.511719 0.65625 112.566406 0.65625 Z M 112.566406 0.65625 " clip-rule="nonzero"/></clipPath><radialGradient gradientTransform="matrix(1, 0, 0, 1, 0.407813, 0.657205)" gradientUnits="userSpaceOnUse" r="158.615876" cx="112.15857" id="2e25091875" cy="112.15857" fx="112.15857" fy="112.15857"><stop stop-opacity="1" stop-color="rgb(0.1297%, 0.1297%, 0.1297%)" offset="0"/><stop stop-opacity="1" stop-color="rgb(0.454712%, 0.454712%, 0.454712%)" offset="0.0078125"/><stop stop-opacity="1" stop-color="rgb(0.843811%, 0.843811%, 0.843811%)" offset="0.0195312"/><stop stop-opacity="1" stop-color="rgb(1.234436%, 1.234436%, 1.234436%)" offset="0.03125"/><stop stop-opacity="1" stop-color="rgb(1.625061%, 1.625061%, 1.625061%)" offset="0.0429688"/><stop stop-opacity="1" stop-color="rgb(2.015686%, 2.015686%, 2.015686%)" offset="0.0546875"/><stop stop-opacity="1" stop-color="rgb(2.404785%, 2.404785%, 2.404785%)" offset="0.0664062"/><stop stop-opacity="1" stop-color="rgb(2.79541%, 2.79541%, 2.79541%)" offset="0.078125"/><stop stop-opacity="1" stop-color="rgb(3.186035%, 3.186035%, 3.186035%)" offset="0.0898438"/><stop stop-opacity="1" stop-color="rgb(3.57666%, 3.57666%, 3.57666%)" offset="0.101562"/><stop stop-opacity="1" stop-color="rgb(3.965759%, 3.965759%, 3.965759%)" offset="0.113281"/><stop stop-opacity="1" stop-color="rgb(4.356384%, 4.356384%, 4.356384%)" offset="0.125"/><stop stop-opacity="1" stop-color="rgb(4.747009%, 4.747009%, 4.747009%)" offset="0.136719"/><stop stop-opacity="1" stop-color="rgb(5.137634%, 5.137634%, 5.137634%)" offset="0.148438"/><stop stop-opacity="1" stop-color="rgb(5.526733%, 5.526733%, 5.526733%)" offset="0.160156"/><stop stop-opacity="1" stop-color="rgb(5.917358%, 5.917358%, 5.917358%)" offset="0.171875"/><stop stop-opacity="1" stop-color="rgb(6.307983%, 6.307983%, 6.307983%)" offset="0.183594"/><stop stop-opacity="1" stop-color="rgb(6.698608%, 6.698608%, 6.698608%)" offset="0.195312"/><stop stop-opacity="1" stop-color="rgb(7.087708%, 7.087708%, 7.087708%)" offset="0.207031"/><stop stop-opacity="1" stop-color="rgb(7.478333%, 7.478333%, 7.478333%)" offset="0.21875"/><stop stop-opacity="1" stop-color="rgb(7.868958%, 7.868958%, 7.868958%)" offset="0.230469"/><stop stop-opacity="1" stop-color="rgb(8.259583%, 8.259583%, 8.259583%)" offset="0.242188"/><stop stop-opacity="1" stop-color="rgb(8.584595%, 8.584595%, 8.584595%)" offset="0.253906"/><stop stop-opacity="1" stop-color="rgb(8.843994%, 8.843994%, 8.843994%)" offset="0.261719"/><stop stop-opacity="1" stop-color="rgb(9.104919%, 9.104919%, 9.104919%)" offset="0.269531"/><stop stop-opacity="1" stop-color="rgb(9.364319%, 9.364319%, 9.364319%)" offset="0.277344"/><stop stop-opacity="1" stop-color="rgb(9.625244%, 9.625244%, 9.625244%)" offset="0.285156"/><stop stop-opacity="1" stop-color="rgb(9.884644%, 9.884644%, 9.884644%)" offset="0.292969"/><stop stop-opacity="1" stop-color="rgb(10.145569%, 10.145569%, 10.145569%)" offset="0.300781"/><stop stop-opacity="1" stop-color="rgb(10.404968%, 10.404968%, 10.404968%)" offset="0.308594"/><stop stop-opacity="1" stop-color="rgb(10.665894%, 10.665894%, 10.665894%)" offset="0.316406"/><stop stop-opacity="1" stop-color="rgb(10.925293%, 10.925293%, 10.925293%)" offset="0.324219"/><stop stop-opacity="1" stop-color="rgb(11.186218%, 11.186218%, 11.186218%)" offset="0.332031"/><stop stop-opacity="1" stop-color="rgb(11.445618%, 11.445618%, 11.445618%)" offset="0.339844"/><stop stop-opacity="1" stop-color="rgb(11.706543%, 11.706543%, 11.706543%)" offset="0.347656"/><stop stop-opacity="1" stop-color="rgb(11.965942%, 11.965942%, 11.965942%)" offset="0.355469"/><stop stop-opacity="1" stop-color="rgb(12.226868%, 12.226868%, 12.226868%)" offset="0.363281"/><stop stop-opacity="1" stop-color="rgb(12.486267%, 12.486267%, 12.486267%)" offset="0.371094"/><stop stop-opacity="1" stop-color="rgb(12.747192%, 12.747192%, 12.747192%)" offset="0.378906"/><stop stop-opacity="1" stop-color="rgb(13.006592%, 13.006592%, 13.006592%)" offset="0.386719"/><stop stop-opacity="1" stop-color="rgb(13.267517%, 13.267517%, 13.267517%)" offset="0.394531"/><stop stop-opacity="1" stop-color="rgb(13.526917%, 13.526917%, 13.526917%)" offset="0.402344"/><stop stop-opacity="1" stop-color="rgb(13.787842%, 13.787842%, 13.787842%)" offset="0.410156"/><stop stop-opacity="1" stop-color="rgb(14.047241%, 14.047241%, 14.047241%)" offset="0.417969"/><stop stop-opacity="1" stop-color="rgb(14.308167%, 14.308167%, 14.308167%)" offset="0.425781"/><stop stop-opacity="1" stop-color="rgb(14.567566%, 14.567566%, 14.567566%)" offset="0.433594"/><stop stop-opacity="1" stop-color="rgb(14.828491%, 14.828491%, 14.828491%)" offset="0.441406"/><stop stop-opacity="1" stop-color="rgb(15.087891%, 15.087891%, 15.087891%)" offset="0.449219"/><stop stop-opacity="1" stop-color="rgb(15.348816%, 15.348816%, 15.348816%)" offset="0.457031"/><stop stop-opacity="1" stop-color="rgb(15.608215%, 15.608215%, 15.608215%)" offset="0.464844"/><stop stop-opacity="1" stop-color="rgb(15.869141%, 15.869141%, 15.869141%)" offset="0.472656"/><stop stop-opacity="1" stop-color="rgb(16.12854%, 16.12854%, 16.12854%)" offset="0.480469"/><stop stop-opacity="1" stop-color="rgb(16.389465%, 16.389465%, 16.389465%)" offset="0.488281"/><stop stop-opacity="1" stop-color="rgb(16.648865%, 16.648865%, 16.648865%)" offset="0.496094"/><stop stop-opacity="1" stop-color="rgb(16.973877%, 16.973877%, 16.973877%)" offset="0.503906"/><stop stop-opacity="1" stop-color="rgb(17.364502%, 17.364502%, 17.364502%)" offset="0.515625"/><stop stop-opacity="1" stop-color="rgb(17.755127%, 17.755127%, 17.755127%)" offset="0.527344"/><stop stop-opacity="1" stop-color="rgb(18.144226%, 18.144226%, 18.144226%)" offset="0.539062"/><stop stop-opacity="1" stop-color="rgb(18.534851%, 18.534851%, 18.534851%)" offset="0.550781"/><stop stop-opacity="1" stop-color="rgb(18.925476%, 18.925476%, 18.925476%)" offset="0.5625"/><stop stop-opacity="1" stop-color="rgb(19.316101%, 19.316101%, 19.316101%)" offset="0.574219"/><stop stop-opacity="1" stop-color="rgb(19.7052%, 19.7052%, 19.7052%)" offset="0.585938"/><stop stop-opacity="1" stop-color="rgb(20.095825%, 20.095825%, 20.095825%)" offset="0.597656"/><stop stop-opacity="1" stop-color="rgb(20.48645%, 20.48645%, 20.48645%)" offset="0.609375"/><stop stop-opacity="1" stop-color="rgb(20.877075%, 20.877075%, 20.877075%)" offset="0.621094"/><stop stop-opacity="1" stop-color="rgb(21.202087%, 21.202087%, 21.202087%)" offset="0.632812"/><stop stop-opacity="1" stop-color="rgb(21.461487%, 21.461487%, 21.461487%)" offset="0.640625"/><stop stop-opacity="1" stop-color="rgb(21.722412%, 21.722412%, 21.722412%)" offset="0.648438"/><stop stop-opacity="1" stop-color="rgb(21.981812%, 21.981812%, 21.981812%)" offset="0.65625"/><stop stop-opacity="1" stop-color="rgb(22.242737%, 22.242737%, 22.242737%)" offset="0.664062"/><stop stop-opacity="1" stop-color="rgb(22.502136%, 22.502136%, 22.502136%)" offset="0.671875"/><stop stop-opacity="1" stop-color="rgb(22.763062%, 22.763062%, 22.763062%)" offset="0.679688"/><stop stop-opacity="1" stop-color="rgb(23.022461%, 23.022461%, 23.022461%)" offset="0.6875"/><stop stop-opacity="1" stop-color="rgb(23.283386%, 23.283386%, 23.283386%)" offset="0.695312"/><stop stop-opacity="1" stop-color="rgb(23.542786%, 23.542786%, 23.542786%)" offset="0.703125"/><stop stop-opacity="1" stop-color="rgb(23.803711%, 23.803711%, 23.803711%)" offset="0.710938"/><stop stop-opacity="1" stop-color="rgb(24.06311%, 24.06311%, 24.06311%)" offset="0.71875"/><stop stop-opacity="1" stop-color="rgb(24.324036%, 24.324036%, 24.324036%)" offset="0.726562"/><stop stop-opacity="1" stop-color="rgb(24.583435%, 24.583435%, 24.583435%)" offset="0.734375"/><stop stop-opacity="1" stop-color="rgb(24.84436%, 24.84436%, 24.84436%)" offset="0.742188"/><stop stop-opacity="1" stop-color="rgb(25.10376%, 25.10376%, 25.10376%)" offset="0.75"/><stop stop-opacity="1" stop-color="rgb(25.428772%, 25.428772%, 25.428772%)" offset="0.757812"/><stop stop-opacity="1" stop-color="rgb(25.819397%, 25.819397%, 25.819397%)" offset="0.769531"/><stop stop-opacity="1" stop-color="rgb(26.210022%, 26.210022%, 26.210022%)" offset="0.78125"/><stop stop-opacity="1" stop-color="rgb(26.600647%, 26.600647%, 26.600647%)" offset="0.792969"/><stop stop-opacity="1" stop-color="rgb(26.989746%, 26.989746%, 26.989746%)" offset="0.804688"/><stop stop-opacity="1" stop-color="rgb(27.314758%, 27.314758%, 27.314758%)" offset="0.816406"/><stop stop-opacity="1" stop-color="rgb(27.575684%, 27.575684%, 27.575684%)" offset="0.824219"/><stop stop-opacity="1" stop-color="rgb(27.835083%, 27.835083%, 27.835083%)" offset="0.832031"/><stop stop-opacity="1" stop-color="rgb(28.096008%, 28.096008%, 28.096008%)" offset="0.839844"/><stop stop-opacity="1" stop-color="rgb(28.355408%, 28.355408%, 28.355408%)" offset="0.847656"/><stop stop-opacity="1" stop-color="rgb(28.616333%, 28.616333%, 28.616333%)" offset="0.855469"/><stop stop-opacity="1" stop-color="rgb(28.875732%, 28.875732%, 28.875732%)" offset="0.863281"/><stop stop-opacity="1" stop-color="rgb(29.136658%, 29.136658%, 29.136658%)" offset="0.871094"/><stop stop-opacity="1" stop-color="rgb(29.46167%, 29.46167%, 29.46167%)" offset="0.878906"/><stop stop-opacity="1" stop-color="rgb(29.852295%, 29.852295%, 29.852295%)" offset="0.890625"/><stop stop-opacity="1" stop-color="rgb(30.24292%, 30.24292%, 30.24292%)" offset="0.902344"/><stop stop-opacity="1" stop-color="rgb(30.567932%, 30.567932%, 30.567932%)" offset="0.914062"/><stop stop-opacity="1" stop-color="rgb(30.827332%, 30.827332%, 30.827332%)" offset="0.921875"/><stop stop-opacity="1" stop-color="rgb(31.088257%, 31.088257%, 31.088257%)" offset="0.929688"/><stop stop-opacity="1" stop-color="rgb(31.347656%, 31.347656%, 31.347656%)" offset="0.9375"/><stop stop-opacity="1" stop-color="rgb(31.672668%, 31.672668%, 31.672668%)" offset="0.945312"/><stop stop-opacity="1" stop-color="rgb(31.997681%, 31.997681%, 31.997681%)" offset="0.957031"/><stop stop-opacity="1" stop-color="rgb(32.258606%, 32.258606%, 32.258606%)" offset="0.964844"/><stop stop-opacity="1" stop-color="rgb(32.583618%, 32.583618%, 32.583618%)" offset="0.972656"/><stop stop-opacity="1" stop-color="rgb(32.90863%, 32.90863%, 32.90863%)" offset="0.984375"/><stop stop-opacity="1" stop-color="rgb(33.16803%, 33.16803%, 33.16803%)" offset="0.992188"/><stop stop-opacity="1" stop-color="rgb(33.299255%, 33.299255%, 33.299255%)" offset="1"/></radialGradient><clipPath id="ef321ed401"><rect x="0" width="225" y="0" height="226"/></clipPath><clipPath id="5baaab7d02"><path d="M 145.921875 87 L 311 87 L 311 174 L 145.921875 174 Z M 145.921875 87 " clip-rule="nonzero"/></clipPath></defs><g mask="url(#00bc287674)"><g transform="matrix(1, 0, 0, 1, 115, 39)"><g clip-path="url(#ef321ed401)"><g clip-path="url(#f05e25e92d)"><g clip-path="url(#2f28c42834)"><path fill="url(#2e25091875)" d="M 0.40625 0.65625 L 0.40625 224.972656 L 224.726562 224.972656 L 224.726562 0.65625 Z M 0.40625 0.65625 " fill-rule="nonzero"/></g></g></g></g></g><g clip-path="url(#5baaab7d02)"><path fill="#00678c" d="M 145.617188 165.523438 L 151.054688 165.523438 L 151.054688 144.019531 L 159.542969 162.765625 C 160.503906 165.019531 161.886719 165.855469 164.558594 165.855469 C 167.234375 165.855469 168.53125 165.019531 169.527344 162.765625 L 177.972656 144.019531 L 177.972656 165.523438 L 183.449219 165.523438 L 183.449219 144.019531 C 183.449219 141.933594 182.613281 140.929688 180.855469 140.386719 C 176.71875 139.132812 173.957031 140.21875 172.703125 143.015625 L 164.382812 161.554688 L 156.355469 143.015625 C 155.144531 140.21875 152.339844 139.132812 148.160156 140.386719 C 146.445312 140.929688 145.609375 141.929688 145.609375 144.019531 L 145.609375 165.523438 Z M 187.972656 148.027344 L 193.453125 148.027344 L 193.453125 159.84375 C 193.410156 160.511719 193.660156 162.015625 196.636719 162.054688 C 198.183594 162.097656 208.429688 162.054688 208.511719 162.054688 L 208.511719 147.945312 L 213.988281 147.945312 L 213.988281 167.277344 C 213.988281 172.035156 208.085938 173.078125 205.332031 173.121094 L 188.109375 173.121094 L 188.109375 169.488281 L 205.378906 169.488281 C 208.890625 169.113281 208.472656 167.359375 208.472656 166.777344 L 208.472656 165.355469 L 196.890625 165.355469 C 191.496094 165.3125 188.023438 162.933594 187.984375 160.21875 L 187.984375 148.027344 Z M 305.460938 134.332031 C 302.117188 134.246094 299.523438 134.582031 297.347656 135.5 C 296.722656 135.753906 295.71875 135.753906 295.636719 136.546875 C 295.96875 136.878906 296.011719 137.421875 296.304688 137.882812 C 296.804688 138.71875 297.683594 139.84375 298.476562 140.429688 C 299.355469 141.097656 300.234375 141.765625 301.152344 142.347656 C 302.785156 143.351562 304.625 143.933594 306.210938 144.9375 C 307.132812 145.523438 308.050781 146.273438 308.972656 146.902344 C 309.441406 147.234375 309.722656 147.777344 310.308594 147.988281 L 310.308594 147.859375 C 310.019531 147.484375 309.933594 146.941406 309.640625 146.523438 C 309.222656 146.105469 308.804688 145.730469 308.386719 145.3125 C 307.175781 143.683594 305.667969 142.265625 304.039062 141.097656 C 302.699219 140.179688 299.773438 138.925781 299.230469 137.382812 L 299.148438 137.296875 C 300.066406 137.214844 301.152344 136.878906 302.03125 136.628906 C 303.453125 136.253906 304.75 136.335938 306.210938 135.960938 C 306.882812 135.792969 307.550781 135.585938 308.21875 135.375 L 308.21875 135 C 307.46875 134.25 306.925781 133.246094 306.128906 132.539062 C 304 130.703125 301.65625 128.90625 299.230469 127.402344 C 297.933594 126.566406 296.261719 126.023438 294.882812 125.316406 C 294.378906 125.066406 293.542969 124.941406 293.25 124.523438 C 292.496094 123.605469 292.082031 122.394531 291.535156 121.308594 C 290.324219 119.011719 289.152344 116.464844 288.109375 114.042969 C 287.355469 112.414062 286.894531 110.785156 285.976562 109.28125 C 281.667969 102.183594 276.984375 97.882812 269.792969 93.664062 C 268.25 92.789062 266.410156 92.410156 264.453125 91.953125 L 261.316406 91.785156 C 260.648438 91.492188 259.980469 90.699219 259.394531 90.324219 C 257.011719 88.820312 250.863281 85.5625 249.105469 89.863281 C 247.976562 92.578125 250.78125 95.25 251.730469 96.628906 C 252.441406 97.589844 253.363281 98.675781 253.863281 99.761719 C 254.144531 100.46875 254.238281 101.222656 254.53125 101.972656 C 255.199219 103.808594 255.828125 105.855469 256.707031 107.570312 C 257.175781 108.445312 257.667969 109.367188 258.253906 110.160156 C 258.585938 110.617188 259.171875 110.828125 259.296875 111.578125 C 258.710938 112.414062 258.671875 113.664062 258.335938 114.710938 C 256.832031 119.429688 257.417969 125.273438 259.550781 128.738281 C 260.21875 129.78125 261.796875 132.082031 263.941406 131.203125 C 265.824219 130.449219 265.402344 128.070312 265.945312 125.984375 C 266.074219 125.484375 265.988281 125.148438 266.238281 124.8125 L 266.238281 124.898438 L 267.953125 128.363281 C 269.25 130.410156 271.507812 132.539062 273.386719 133.960938 C 274.390625 134.710938 275.1875 136.007812 276.441406 136.464844 L 276.441406 136.339844 L 276.359375 136.339844 C 276.105469 135.964844 275.730469 135.796875 275.394531 135.503906 C 274.640625 134.75 273.804688 133.832031 273.222656 133 C 271.464844 130.660156 269.917969 128.070312 268.539062 125.398438 C 267.867188 124.105469 267.285156 122.683594 266.742188 121.390625 C 266.488281 120.890625 266.488281 120.136719 266.070312 119.886719 C 265.445312 120.804688 264.527344 121.601562 264.0625 122.726562 C 263.269531 124.523438 263.1875 126.734375 262.894531 129.03125 C 262.726562 129.074219 262.800781 129.03125 262.726562 129.117188 C 261.390625 128.78125 260.929688 127.402344 260.425781 126.234375 C 259.171875 123.269531 258.960938 118.511719 260.050781 115.085938 C 260.34375 114.210938 261.597656 111.453125 261.097656 110.621094 C 260.84375 109.824219 260.007812 109.367188 259.546875 108.742188 C 259.003906 107.945312 258.421875 106.945312 258.042969 106.070312 C 257.042969 103.730469 256.539062 101.140625 255.453125 98.800781 C 254.949219 97.71875 254.070312 96.589844 253.359375 95.589844 C 252.566406 94.460938 251.691406 93.667969 251.0625 92.332031 C 250.851562 91.871094 250.5625 91.121094 250.894531 90.617188 C 250.976562 90.285156 251.144531 90.160156 251.480469 90.074219 C 252.023438 89.617188 253.570312 90.203125 254.113281 90.449219 C 255.660156 91.078125 256.957031 91.660156 258.253906 92.539062 C 258.839844 92.953125 259.464844 93.75 260.21875 93.957031 L 261.097656 93.957031 C 262.4375 94.25 263.941406 94.042969 265.191406 94.417969 C 267.410156 95.128906 269.414062 96.171875 271.214844 97.296875 C 276.691406 100.765625 281.207031 105.691406 284.257812 111.578125 C 284.761719 112.539062 284.96875 113.417969 285.429688 114.417969 C 286.308594 116.464844 287.398438 118.550781 288.273438 120.558594 C 289.152344 122.519531 289.988281 124.527344 291.242188 126.15625 C 291.871094 127.03125 294.378906 127.488281 295.503906 127.949219 C 296.34375 128.324219 297.636719 128.660156 298.390625 129.117188 C 299.8125 129.996094 301.234375 131 302.570312 131.957031 C 303.238281 132.457031 305.332031 133.503906 305.457031 134.335938 Z M 262.820312 98.046875 C 262.242188 98.042969 261.671875 98.113281 261.109375 98.257812 L 261.109375 98.339844 L 261.191406 98.339844 C 261.527344 99.007812 262.113281 99.46875 262.53125 100.054688 L 263.492188 102.058594 L 263.574219 101.972656 C 264.160156 101.554688 264.453125 100.886719 264.453125 99.886719 C 264.203125 99.59375 264.160156 99.300781 263.953125 99.007812 C 263.699219 98.59375 263.15625 98.382812 262.820312 98.050781 Z M 262.820312 98.046875 " fill-opacity="1" fill-rule="evenodd"/></g><path fill="#ce8b2c" d="M 218.164062 165.523438 L 233.882812 165.523438 C 235.722656 165.523438 237.480469 165.148438 238.902344 164.480469 C 241.285156 163.394531 242.414062 161.933594 242.414062 160.011719 L 242.414062 156.003906 C 242.414062 154.460938 241.117188 152.996094 238.527344 151.996094 C 237.1875 151.496094 235.515625 151.203125 233.882812 151.203125 L 227.277344 151.203125 C 225.0625 151.203125 224.015625 150.53125 223.722656 149.074219 C 223.683594 148.90625 223.683594 148.738281 223.683594 148.574219 L 223.683594 146.109375 C 223.683594 145.980469 223.683594 145.816406 223.722656 145.648438 C 224.015625 144.523438 224.601562 144.230469 226.535156 144.019531 L 242.632812 144.019531 L 242.632812 140.386719 L 227.328125 140.386719 C 225.113281 140.386719 223.941406 140.515625 222.894531 140.847656 C 219.675781 141.847656 218.253906 143.4375 218.253906 146.234375 L 218.253906 149.40625 C 218.253906 151.871094 221.015625 153.960938 225.695312 154.460938 C 226.199219 154.5 226.742188 154.5 227.285156 154.5 L 232.929688 154.5 C 233.140625 154.5 233.347656 154.5 233.515625 154.542969 C 235.230469 154.710938 235.980469 155.003906 236.484375 155.628906 C 236.816406 155.960938 236.902344 156.253906 236.902344 156.628906 L 236.902344 159.804688 C 236.902344 160.175781 236.652344 160.679688 236.148438 161.097656 C 235.648438 161.515625 234.851562 161.808594 233.808594 161.847656 C 233.597656 161.847656 233.472656 161.890625 233.261719 161.890625 L 218.164062 161.890625 Z M 276.445312 159.21875 C 276.445312 162.933594 279.257812 165.019531 284.851562 165.441406 C 285.394531 165.480469 285.898438 165.523438 286.441406 165.523438 L 300.65625 165.523438 L 300.65625 161.890625 L 286.316406 161.890625 C 283.136719 161.890625 281.925781 161.097656 281.925781 159.175781 L 281.925781 140.386719 L 276.433594 140.386719 L 276.433594 159.21875 Z M 245.882812 159.382812 L 245.882812 146.441406 C 245.882812 143.144531 248.222656 141.136719 252.78125 140.511719 C 253.285156 140.46875 253.785156 140.429688 254.246094 140.429688 L 264.613281 140.429688 C 265.15625 140.429688 265.617188 140.46875 266.160156 140.511719 C 270.71875 141.136719 273.015625 143.140625 273.015625 146.441406 L 273.015625 159.382812 C 273.015625 162.054688 272.054688 163.476562 269.796875 164.4375 L 275.148438 169.28125 L 268.835938 169.28125 L 264.488281 165.355469 L 260.09375 165.605469 L 254.242188 165.605469 C 253.164062 165.601562 252.105469 165.460938 251.066406 165.191406 C 247.597656 164.226562 245.882812 162.390625 245.882812 159.382812 Z M 251.777344 159.09375 C 251.777344 159.261719 251.871094 159.425781 251.902344 159.636719 C 252.195312 161.140625 253.617188 161.972656 255.789062 161.972656 L 260.726562 161.972656 L 256.210938 157.882812 L 262.523438 157.882812 L 266.496094 161.472656 C 267.25 161.054688 267.707031 160.46875 267.875 159.71875 C 267.917969 159.550781 267.917969 159.34375 267.917969 159.175781 L 267.917969 146.773438 C 267.917969 146.609375 267.917969 146.441406 267.875 146.273438 C 267.582031 144.855469 266.160156 144.0625 264.027344 144.0625 L 255.792969 144.0625 C 253.367188 144.0625 251.777344 145.105469 251.777344 146.773438 Z M 251.777344 159.09375 " fill-opacity="1" fill-rule="evenodd"/></svg>