<svg xmlns="http://www.w3.org/2000/svg" xmlns:xlink="http://www.w3.org/1999/xlink" width="611" zoomAndPan="magnify" viewBox="0 0 458.25 305.999988" height="408" preserveAspectRatio="xMidYMid meet" version="1.0"><defs><filter x="0%" y="0%" width="100%" height="100%" id="3c5126a6f1"><feColorMatrix values="0 0 0 0 1 0 0 0 0 1 0 0 0 0 1 0 0 0 1 0" color-interpolation-filters="sRGB"/></filter><mask id="548ceabd1e"><g filter="url(#3c5126a6f1)"><rect x="-45.825" width="549.9" fill="#000000" y="-30.599999" height="367.199986" fill-opacity="0.64"/></g></mask><clipPath id="a413f10332"><path d="M 0.3125 0.5625 L 225.1875 0.5625 L 225.1875 225.4375 L 0.3125 225.4375 Z M 0.3125 0.5625 " clip-rule="nonzero"/></clipPath><clipPath id="a737cb551f"><path d="M 112.75 0.5625 C 50.652344 0.5625 0.3125 50.902344 0.3125 113 C 0.3125 175.097656 50.652344 225.4375 112.75 225.4375 C 174.847656 225.4375 225.1875 175.097656 225.1875 113 C 225.1875 50.902344 174.847656 0.5625 112.75 0.5625 Z M 112.75 0.5625 " clip-rule="nonzero"/></clipPath><radialGradient gradientTransform="matrix(1, 0, 0, 1, 0.313867, 0.56331)" gradientUnits="userSpaceOnUse" r="159.00924" cx="112.43672" id="7a59cbdb08" cy="112.43672" fx="112.43672" fy="112.43672"><stop stop-opacity="1" stop-color="rgb(0.1297%, 0.1297%, 0.1297%)" offset="0"/><stop stop-opacity="1" stop-color="rgb(0.454712%, 0.454712%, 0.454712%)" offset="0.0078125"/><stop stop-opacity="1" stop-color="rgb(0.843811%, 0.843811%, 0.843811%)" offset="0.0195312"/><stop stop-opacity="1" stop-color="rgb(1.234436%, 1.234436%, 1.234436%)" offset="0.03125"/><stop stop-opacity="1" stop-color="rgb(1.625061%, 1.625061%, 1.625061%)" offset="0.0429688"/><stop stop-opacity="1" stop-color="rgb(2.015686%, 2.015686%, 2.015686%)" offset="0.0546875"/><stop stop-opacity="1" stop-color="rgb(2.404785%, 2.404785%, 2.404785%)" offset="0.0664062"/><stop stop-opacity="1" stop-color="rgb(2.79541%, 2.79541%, 2.79541%)" offset="0.078125"/><stop stop-opacity="1" stop-color="rgb(3.186035%, 3.186035%, 3.186035%)" offset="0.0898438"/><stop stop-opacity="1" stop-color="rgb(3.57666%, 3.57666%, 3.57666%)" offset="0.101562"/><stop stop-opacity="1" stop-color="rgb(3.965759%, 3.965759%, 3.965759%)" offset="0.113281"/><stop stop-opacity="1" stop-color="rgb(4.356384%, 4.356384%, 4.356384%)" offset="0.125"/><stop stop-opacity="1" stop-color="rgb(4.747009%, 4.747009%, 4.747009%)" offset="0.136719"/><stop stop-opacity="1" stop-color="rgb(5.137634%, 5.137634%, 5.137634%)" offset="0.148438"/><stop stop-opacity="1" stop-color="rgb(5.526733%, 5.526733%, 5.526733%)" offset="0.160156"/><stop stop-opacity="1" stop-color="rgb(5.917358%, 5.917358%, 5.917358%)" offset="0.171875"/><stop stop-opacity="1" stop-color="rgb(6.307983%, 6.307983%, 6.307983%)" offset="0.183594"/><stop stop-opacity="1" stop-color="rgb(6.698608%, 6.698608%, 6.698608%)" offset="0.195312"/><stop stop-opacity="1" stop-color="rgb(7.087708%, 7.087708%, 7.087708%)" offset="0.207031"/><stop stop-opacity="1" stop-color="rgb(7.478333%, 7.478333%, 7.478333%)" offset="0.21875"/><stop stop-opacity="1" stop-color="rgb(7.868958%, 7.868958%, 7.868958%)" offset="0.230469"/><stop stop-opacity="1" stop-color="rgb(8.259583%, 8.259583%, 8.259583%)" offset="0.242188"/><stop stop-opacity="1" stop-color="rgb(8.584595%, 8.584595%, 8.584595%)" offset="0.253906"/><stop stop-opacity="1" stop-color="rgb(8.843994%, 8.843994%, 8.843994%)" offset="0.261719"/><stop stop-opacity="1" stop-color="rgb(9.104919%, 9.104919%, 9.104919%)" offset="0.269531"/><stop stop-opacity="1" stop-color="rgb(9.364319%, 9.364319%, 9.364319%)" offset="0.277344"/><stop stop-opacity="1" stop-color="rgb(9.625244%, 9.625244%, 9.625244%)" offset="0.285156"/><stop stop-opacity="1" stop-color="rgb(9.884644%, 9.884644%, 9.884644%)" offset="0.292969"/><stop stop-opacity="1" stop-color="rgb(10.145569%, 10.145569%, 10.145569%)" offset="0.300781"/><stop stop-opacity="1" stop-color="rgb(10.404968%, 10.404968%, 10.404968%)" offset="0.308594"/><stop stop-opacity="1" stop-color="rgb(10.665894%, 10.665894%, 10.665894%)" offset="0.316406"/><stop stop-opacity="1" stop-color="rgb(10.925293%, 10.925293%, 10.925293%)" offset="0.324219"/><stop stop-opacity="1" stop-color="rgb(11.186218%, 11.186218%, 11.186218%)" offset="0.332031"/><stop stop-opacity="1" stop-color="rgb(11.445618%, 11.445618%, 11.445618%)" offset="0.339844"/><stop stop-opacity="1" stop-color="rgb(11.706543%, 11.706543%, 11.706543%)" offset="0.347656"/><stop stop-opacity="1" stop-color="rgb(11.965942%, 11.965942%, 11.965942%)" offset="0.355469"/><stop stop-opacity="1" stop-color="rgb(12.226868%, 12.226868%, 12.226868%)" offset="0.363281"/><stop stop-opacity="1" stop-color="rgb(12.486267%, 12.486267%, 12.486267%)" offset="0.371094"/><stop stop-opacity="1" stop-color="rgb(12.747192%, 12.747192%, 12.747192%)" offset="0.378906"/><stop stop-opacity="1" stop-color="rgb(13.006592%, 13.006592%, 13.006592%)" offset="0.386719"/><stop stop-opacity="1" stop-color="rgb(13.267517%, 13.267517%, 13.267517%)" offset="0.394531"/><stop stop-opacity="1" stop-color="rgb(13.526917%, 13.526917%, 13.526917%)" offset="0.402344"/><stop stop-opacity="1" stop-color="rgb(13.787842%, 13.787842%, 13.787842%)" offset="0.410156"/><stop stop-opacity="1" stop-color="rgb(14.047241%, 14.047241%, 14.047241%)" offset="0.417969"/><stop stop-opacity="1" stop-color="rgb(14.308167%, 14.308167%, 14.308167%)" offset="0.425781"/><stop stop-opacity="1" stop-color="rgb(14.567566%, 14.567566%, 14.567566%)" offset="0.433594"/><stop stop-opacity="1" stop-color="rgb(14.828491%, 14.828491%, 14.828491%)" offset="0.441406"/><stop stop-opacity="1" stop-color="rgb(15.087891%, 15.087891%, 15.087891%)" offset="0.449219"/><stop stop-opacity="1" stop-color="rgb(15.348816%, 15.348816%, 15.348816%)" offset="0.457031"/><stop stop-opacity="1" stop-color="rgb(15.608215%, 15.608215%, 15.608215%)" offset="0.464844"/><stop stop-opacity="1" stop-color="rgb(15.869141%, 15.869141%, 15.869141%)" offset="0.472656"/><stop stop-opacity="1" stop-color="rgb(16.12854%, 16.12854%, 16.12854%)" offset="0.480469"/><stop stop-opacity="1" stop-color="rgb(16.389465%, 16.389465%, 16.389465%)" offset="0.488281"/><stop stop-opacity="1" stop-color="rgb(16.648865%, 16.648865%, 16.648865%)" offset="0.496094"/><stop stop-opacity="1" stop-color="rgb(16.973877%, 16.973877%, 16.973877%)" offset="0.503906"/><stop stop-opacity="1" stop-color="rgb(17.364502%, 17.364502%, 17.364502%)" offset="0.515625"/><stop stop-opacity="1" stop-color="rgb(17.755127%, 17.755127%, 17.755127%)" offset="0.527344"/><stop stop-opacity="1" stop-color="rgb(18.144226%, 18.144226%, 18.144226%)" offset="0.539062"/><stop stop-opacity="1" stop-color="rgb(18.534851%, 18.534851%, 18.534851%)" offset="0.550781"/><stop stop-opacity="1" stop-color="rgb(18.925476%, 18.925476%, 18.925476%)" offset="0.5625"/><stop stop-opacity="1" stop-color="rgb(19.316101%, 19.316101%, 19.316101%)" offset="0.574219"/><stop stop-opacity="1" stop-color="rgb(19.7052%, 19.7052%, 19.7052%)" offset="0.585938"/><stop stop-opacity="1" stop-color="rgb(20.095825%, 20.095825%, 20.095825%)" offset="0.597656"/><stop stop-opacity="1" stop-color="rgb(20.48645%, 20.48645%, 20.48645%)" offset="0.609375"/><stop stop-opacity="1" stop-color="rgb(20.877075%, 20.877075%, 20.877075%)" offset="0.621094"/><stop stop-opacity="1" stop-color="rgb(21.202087%, 21.202087%, 21.202087%)" offset="0.632812"/><stop stop-opacity="1" stop-color="rgb(21.461487%, 21.461487%, 21.461487%)" offset="0.640625"/><stop stop-opacity="1" stop-color="rgb(21.722412%, 21.722412%, 21.722412%)" offset="0.648438"/><stop stop-opacity="1" stop-color="rgb(21.981812%, 21.981812%, 21.981812%)" offset="0.65625"/><stop stop-opacity="1" stop-color="rgb(22.242737%, 22.242737%, 22.242737%)" offset="0.664062"/><stop stop-opacity="1" stop-color="rgb(22.502136%, 22.502136%, 22.502136%)" offset="0.671875"/><stop stop-opacity="1" stop-color="rgb(22.763062%, 22.763062%, 22.763062%)" offset="0.679688"/><stop stop-opacity="1" stop-color="rgb(23.022461%, 23.022461%, 23.022461%)" offset="0.6875"/><stop stop-opacity="1" stop-color="rgb(23.283386%, 23.283386%, 23.283386%)" offset="0.695312"/><stop stop-opacity="1" stop-color="rgb(23.542786%, 23.542786%, 23.542786%)" offset="0.703125"/><stop stop-opacity="1" stop-color="rgb(23.803711%, 23.803711%, 23.803711%)" offset="0.710938"/><stop stop-opacity="1" stop-color="rgb(24.06311%, 24.06311%, 24.06311%)" offset="0.71875"/><stop stop-opacity="1" stop-color="rgb(24.324036%, 24.324036%, 24.324036%)" offset="0.726562"/><stop stop-opacity="1" stop-color="rgb(24.583435%, 24.583435%, 24.583435%)" offset="0.734375"/><stop stop-opacity="1" stop-color="rgb(24.84436%, 24.84436%, 24.84436%)" offset="0.742188"/><stop stop-opacity="1" stop-color="rgb(25.10376%, 25.10376%, 25.10376%)" offset="0.75"/><stop stop-opacity="1" stop-color="rgb(25.428772%, 25.428772%, 25.428772%)" offset="0.757812"/><stop stop-opacity="1" stop-color="rgb(25.819397%, 25.819397%, 25.819397%)" offset="0.769531"/><stop stop-opacity="1" stop-color="rgb(26.210022%, 26.210022%, 26.210022%)" offset="0.78125"/><stop stop-opacity="1" stop-color="rgb(26.600647%, 26.600647%, 26.600647%)" offset="0.792969"/><stop stop-opacity="1" stop-color="rgb(26.989746%, 26.989746%, 26.989746%)" offset="0.804688"/><stop stop-opacity="1" stop-color="rgb(27.314758%, 27.314758%, 27.314758%)" offset="0.816406"/><stop stop-opacity="1" stop-color="rgb(27.575684%, 27.575684%, 27.575684%)" offset="0.824219"/><stop stop-opacity="1" stop-color="rgb(27.835083%, 27.835083%, 27.835083%)" offset="0.832031"/><stop stop-opacity="1" stop-color="rgb(28.096008%, 28.096008%, 28.096008%)" offset="0.839844"/><stop stop-opacity="1" stop-color="rgb(28.355408%, 28.355408%, 28.355408%)" offset="0.847656"/><stop stop-opacity="1" stop-color="rgb(28.616333%, 28.616333%, 28.616333%)" offset="0.855469"/><stop stop-opacity="1" stop-color="rgb(28.875732%, 28.875732%, 28.875732%)" offset="0.863281"/><stop stop-opacity="1" stop-color="rgb(29.136658%, 29.136658%, 29.136658%)" offset="0.871094"/><stop stop-opacity="1" stop-color="rgb(29.46167%, 29.46167%, 29.46167%)" offset="0.878906"/><stop stop-opacity="1" stop-color="rgb(29.852295%, 29.852295%, 29.852295%)" offset="0.890625"/><stop stop-opacity="1" stop-color="rgb(30.24292%, 30.24292%, 30.24292%)" offset="0.902344"/><stop stop-opacity="1" stop-color="rgb(30.567932%, 30.567932%, 30.567932%)" offset="0.914062"/><stop stop-opacity="1" stop-color="rgb(30.827332%, 30.827332%, 30.827332%)" offset="0.921875"/><stop stop-opacity="1" stop-color="rgb(31.088257%, 31.088257%, 31.088257%)" offset="0.929688"/><stop stop-opacity="1" stop-color="rgb(31.347656%, 31.347656%, 31.347656%)" offset="0.9375"/><stop stop-opacity="1" stop-color="rgb(31.672668%, 31.672668%, 31.672668%)" offset="0.945312"/><stop stop-opacity="1" stop-color="rgb(31.997681%, 31.997681%, 31.997681%)" offset="0.957031"/><stop stop-opacity="1" stop-color="rgb(32.258606%, 32.258606%, 32.258606%)" offset="0.964844"/><stop stop-opacity="1" stop-color="rgb(32.583618%, 32.583618%, 32.583618%)" offset="0.972656"/><stop stop-opacity="1" stop-color="rgb(32.90863%, 32.90863%, 32.90863%)" offset="0.984375"/><stop stop-opacity="1" stop-color="rgb(33.16803%, 33.16803%, 33.16803%)" offset="0.992188"/><stop stop-opacity="1" stop-color="rgb(33.299255%, 33.299255%, 33.299255%)" offset="1"/></radialGradient><clipPath id="fcd919cea1"><rect x="0" width="226" y="0" height="226"/></clipPath><clipPath id="3a65176265"><path d="M 170.15625 88.417969 L 286.898438 88.417969 L 286.898438 217 L 170.15625 217 Z M 170.15625 88.417969 " clip-rule="nonzero"/></clipPath></defs><g mask="url(#548ceabd1e)"><g transform="matrix(1, 0, 0, 1, 116, 40)"><g clip-path="url(#fcd919cea1)"><g clip-path="url(#a413f10332)"><g clip-path="url(#a737cb551f)"><path fill="url(#7a59cbdb08)" d="M 0.3125 0.5625 L 0.3125 225.4375 L 225.1875 225.4375 L 225.1875 0.5625 Z M 0.3125 0.5625 " fill-rule="nonzero"/></g></g></g></g></g><g clip-path="url(#3a65176265)"><path fill="#8cc84b" d="M 223.140625 90.132812 C 226.347656 88.3125 230.433594 88.304688 233.5625 90.132812 L 281.429688 117.152344 C 284.421875 118.835938 286.425781 122.179688 286.398438 125.632812 L 286.398438 179.808594 C 286.417969 183.410156 284.21875 186.824219 281.058594 188.476562 L 233.449219 215.375 C 232.632812 215.824219 231.777344 216.160156 230.871094 216.378906 C 229.96875 216.597656 229.050781 216.695312 228.121094 216.671875 C 227.191406 216.644531 226.28125 216.496094 225.390625 216.226562 C 224.5 215.957031 223.660156 215.574219 222.871094 215.082031 L 208.585938 206.8125 C 207.613281 206.230469 206.515625 205.769531 205.828125 204.828125 C 206.4375 204.007812 207.519531 203.902344 208.402344 203.542969 C 210.390625 202.910156 212.207031 201.9375 214.035156 200.910156 C 214.496094 200.589844 215.0625 200.710938 215.503906 201 L 227.6875 208.054688 C 228.554688 208.554688 229.4375 207.894531 230.183594 207.472656 L 276.933594 181.054688 C 277.507812 180.773438 277.828125 180.164062 277.78125 179.527344 L 277.78125 125.875 C 277.847656 125.152344 277.433594 124.496094 276.78125 124.203125 L 229.289062 97.421875 C 229.007812 97.230469 228.699219 97.132812 228.359375 97.132812 C 228.015625 97.128906 227.707031 97.226562 227.425781 97.417969 L 180.003906 124.253906 C 179.359375 124.546875 178.921875 125.195312 179 125.917969 L 179 179.574219 C 178.945312 180.207031 179.28125 180.804688 179.863281 181.078125 L 192.535156 188.242188 C 194.914062 189.527344 197.835938 190.246094 200.457031 189.304688 C 201.03125 189.089844 201.558594 188.792969 202.042969 188.414062 C 202.523438 188.035156 202.941406 187.59375 203.289062 187.085938 C 203.636719 186.582031 203.898438 186.035156 204.082031 185.449219 C 204.261719 184.863281 204.351562 184.265625 204.347656 183.652344 L 204.359375 130.316406 C 204.304688 129.527344 205.050781 128.875 205.816406 128.953125 L 211.90625 128.953125 C 212.710938 128.933594 213.339844 129.785156 213.230469 130.578125 L 213.21875 184.25 C 213.222656 189.015625 211.265625 194.199219 206.863281 196.539062 C 201.4375 199.347656 194.726562 198.757812 189.363281 196.058594 L 175.738281 188.515625 C 172.53125 186.910156 170.378906 183.441406 170.398438 179.847656 L 170.398438 125.671875 C 170.40625 124.789062 170.527344 123.925781 170.765625 123.078125 C 171.003906 122.230469 171.347656 121.429688 171.800781 120.675781 C 172.253906 119.917969 172.792969 119.234375 173.429688 118.625 C 174.0625 118.015625 174.765625 117.5 175.539062 117.078125 Z M 236.945312 127.683594 C 243.863281 127.285156 251.273438 127.421875 257.503906 130.835938 C 262.324219 133.453125 264.996094 138.941406 265.085938 144.3125 C 264.949219 145.035156 264.195312 145.433594 263.507812 145.382812 C 261.503906 145.378906 259.492188 145.410156 257.480469 145.371094 C 256.625 145.402344 256.132812 144.617188 256.023438 143.863281 C 255.445312 141.292969 254.046875 138.753906 251.636719 137.511719 C 247.933594 135.65625 243.636719 135.746094 239.597656 135.789062 C 236.648438 135.949219 233.476562 136.199219 230.980469 137.933594 C 229.054688 139.25 228.480469 141.949219 229.164062 144.042969 C 229.804688 145.578125 231.582031 146.074219 233.027344 146.53125 C 241.371094 148.714844 250.210938 148.535156 258.398438 151.375 C 261.78125 152.546875 265.097656 154.824219 266.261719 158.375 C 267.773438 163.136719 267.113281 168.828125 263.734375 172.648438 C 260.992188 175.792969 257.003906 177.460938 253.015625 178.433594 C 247.710938 179.617188 242.214844 179.644531 236.832031 179.117188 C 231.769531 178.539062 226.503906 177.207031 222.597656 173.753906 C 219.253906 170.847656 217.625 166.324219 217.785156 161.957031 C 217.828125 161.21875 218.558594 160.703125 219.269531 160.765625 L 225.28125 160.765625 C 226.089844 160.707031 226.683594 161.40625 226.722656 162.167969 C 227.097656 164.578125 228.015625 167.183594 230.148438 168.589844 C 234.257812 171.246094 239.417969 171.0625 244.121094 171.136719 C 248.019531 170.964844 252.398438 170.914062 255.582031 168.328125 C 257.265625 166.855469 257.757812 164.394531 257.304688 162.277344 C 256.8125 160.488281 254.902344 159.65625 253.300781 159.066406 C 245.0625 156.457031 236.125 157.40625 227.96875 154.453125 C 224.660156 153.28125 221.457031 151.066406 220.1875 147.65625 C 218.414062 142.84375 219.226562 136.875 222.964844 133.183594 C 226.570312 129.511719 231.863281 128.09375 236.871094 127.589844 Z M 236.945312 127.683594 " fill-opacity="1" fill-rule="nonzero"/></g></svg>