<svg xmlns="http://www.w3.org/2000/svg" xmlns:xlink="http://www.w3.org/1999/xlink" width="611" zoomAndPan="magnify" viewBox="0 0 458.25 305.999988" height="408" preserveAspectRatio="xMidYMid meet" version="1.0"><defs><filter x="0%" y="0%" width="100%" height="100%" id="6e38df4500"><feColorMatrix values="0 0 0 0 1 0 0 0 0 1 0 0 0 0 1 0 0 0 1 0" color-interpolation-filters="sRGB"/></filter><mask id="975384d6c9"><g filter="url(#6e38df4500)"><rect x="-45.825" width="549.9" fill="#000000" y="-30.599999" height="367.199986" fill-opacity="0.64"/></g></mask><clipPath id="6e8d1814d2"><path d="M 0.40625 0.65625 L 224.726562 0.65625 L 224.726562 224.972656 L 0.40625 224.972656 Z M 0.40625 0.65625 " clip-rule="nonzero"/></clipPath><clipPath id="3ad89ab3ca"><path d="M 112.566406 0.65625 C 50.621094 0.65625 0.40625 50.871094 0.40625 112.816406 C 0.40625 174.757812 50.621094 224.972656 112.566406 224.972656 C 174.511719 224.972656 224.726562 174.757812 224.726562 112.816406 C 224.726562 50.871094 174.511719 0.65625 112.566406 0.65625 Z M 112.566406 0.65625 " clip-rule="nonzero"/></clipPath><radialGradient gradientTransform="matrix(1, 0, 0, 1, 0.407813, 0.657176)" gradientUnits="userSpaceOnUse" r="158.615876" cx="112.15857" id="1670824613" cy="112.15857" fx="112.15857" fy="112.15857"><stop stop-opacity="1" stop-color="rgb(0.1297%, 0.1297%, 0.1297%)" offset="0"/><stop stop-opacity="1" stop-color="rgb(0.454712%, 0.454712%, 0.454712%)" offset="0.0078125"/><stop stop-opacity="1" stop-color="rgb(0.843811%, 0.843811%, 0.843811%)" offset="0.0195312"/><stop stop-opacity="1" stop-color="rgb(1.234436%, 1.234436%, 1.234436%)" offset="0.03125"/><stop stop-opacity="1" stop-color="rgb(1.625061%, 1.625061%, 1.625061%)" offset="0.0429688"/><stop stop-opacity="1" stop-color="rgb(2.015686%, 2.015686%, 2.015686%)" offset="0.0546875"/><stop stop-opacity="1" stop-color="rgb(2.404785%, 2.404785%, 2.404785%)" offset="0.0664062"/><stop stop-opacity="1" stop-color="rgb(2.79541%, 2.79541%, 2.79541%)" offset="0.078125"/><stop stop-opacity="1" stop-color="rgb(3.186035%, 3.186035%, 3.186035%)" offset="0.0898438"/><stop stop-opacity="1" stop-color="rgb(3.57666%, 3.57666%, 3.57666%)" offset="0.101562"/><stop stop-opacity="1" stop-color="rgb(3.965759%, 3.965759%, 3.965759%)" offset="0.113281"/><stop stop-opacity="1" stop-color="rgb(4.356384%, 4.356384%, 4.356384%)" offset="0.125"/><stop stop-opacity="1" stop-color="rgb(4.747009%, 4.747009%, 4.747009%)" offset="0.136719"/><stop stop-opacity="1" stop-color="rgb(5.137634%, 5.137634%, 5.137634%)" offset="0.148438"/><stop stop-opacity="1" stop-color="rgb(5.526733%, 5.526733%, 5.526733%)" offset="0.160156"/><stop stop-opacity="1" stop-color="rgb(5.917358%, 5.917358%, 5.917358%)" offset="0.171875"/><stop stop-opacity="1" stop-color="rgb(6.307983%, 6.307983%, 6.307983%)" offset="0.183594"/><stop stop-opacity="1" stop-color="rgb(6.698608%, 6.698608%, 6.698608%)" offset="0.195312"/><stop stop-opacity="1" stop-color="rgb(7.087708%, 7.087708%, 7.087708%)" offset="0.207031"/><stop stop-opacity="1" stop-color="rgb(7.478333%, 7.478333%, 7.478333%)" offset="0.21875"/><stop stop-opacity="1" stop-color="rgb(7.868958%, 7.868958%, 7.868958%)" offset="0.230469"/><stop stop-opacity="1" stop-color="rgb(8.259583%, 8.259583%, 8.259583%)" offset="0.242188"/><stop stop-opacity="1" stop-color="rgb(8.584595%, 8.584595%, 8.584595%)" offset="0.253906"/><stop stop-opacity="1" stop-color="rgb(8.843994%, 8.843994%, 8.843994%)" offset="0.261719"/><stop stop-opacity="1" stop-color="rgb(9.104919%, 9.104919%, 9.104919%)" offset="0.269531"/><stop stop-opacity="1" stop-color="rgb(9.364319%, 9.364319%, 9.364319%)" offset="0.277344"/><stop stop-opacity="1" stop-color="rgb(9.625244%, 9.625244%, 9.625244%)" offset="0.285156"/><stop stop-opacity="1" stop-color="rgb(9.884644%, 9.884644%, 9.884644%)" offset="0.292969"/><stop stop-opacity="1" stop-color="rgb(10.145569%, 10.145569%, 10.145569%)" offset="0.300781"/><stop stop-opacity="1" stop-color="rgb(10.404968%, 10.404968%, 10.404968%)" offset="0.308594"/><stop stop-opacity="1" stop-color="rgb(10.665894%, 10.665894%, 10.665894%)" offset="0.316406"/><stop stop-opacity="1" stop-color="rgb(10.925293%, 10.925293%, 10.925293%)" offset="0.324219"/><stop stop-opacity="1" stop-color="rgb(11.186218%, 11.186218%, 11.186218%)" offset="0.332031"/><stop stop-opacity="1" stop-color="rgb(11.445618%, 11.445618%, 11.445618%)" offset="0.339844"/><stop stop-opacity="1" stop-color="rgb(11.706543%, 11.706543%, 11.706543%)" offset="0.347656"/><stop stop-opacity="1" stop-color="rgb(11.965942%, 11.965942%, 11.965942%)" offset="0.355469"/><stop stop-opacity="1" stop-color="rgb(12.226868%, 12.226868%, 12.226868%)" offset="0.363281"/><stop stop-opacity="1" stop-color="rgb(12.486267%, 12.486267%, 12.486267%)" offset="0.371094"/><stop stop-opacity="1" stop-color="rgb(12.747192%, 12.747192%, 12.747192%)" offset="0.378906"/><stop stop-opacity="1" stop-color="rgb(13.006592%, 13.006592%, 13.006592%)" offset="0.386719"/><stop stop-opacity="1" stop-color="rgb(13.267517%, 13.267517%, 13.267517%)" offset="0.394531"/><stop stop-opacity="1" stop-color="rgb(13.526917%, 13.526917%, 13.526917%)" offset="0.402344"/><stop stop-opacity="1" stop-color="rgb(13.787842%, 13.787842%, 13.787842%)" offset="0.410156"/><stop stop-opacity="1" stop-color="rgb(14.047241%, 14.047241%, 14.047241%)" offset="0.417969"/><stop stop-opacity="1" stop-color="rgb(14.308167%, 14.308167%, 14.308167%)" offset="0.425781"/><stop stop-opacity="1" stop-color="rgb(14.567566%, 14.567566%, 14.567566%)" offset="0.433594"/><stop stop-opacity="1" stop-color="rgb(14.828491%, 14.828491%, 14.828491%)" offset="0.441406"/><stop stop-opacity="1" stop-color="rgb(15.087891%, 15.087891%, 15.087891%)" offset="0.449219"/><stop stop-opacity="1" stop-color="rgb(15.348816%, 15.348816%, 15.348816%)" offset="0.457031"/><stop stop-opacity="1" stop-color="rgb(15.608215%, 15.608215%, 15.608215%)" offset="0.464844"/><stop stop-opacity="1" stop-color="rgb(15.869141%, 15.869141%, 15.869141%)" offset="0.472656"/><stop stop-opacity="1" stop-color="rgb(16.12854%, 16.12854%, 16.12854%)" offset="0.480469"/><stop stop-opacity="1" stop-color="rgb(16.389465%, 16.389465%, 16.389465%)" offset="0.488281"/><stop stop-opacity="1" stop-color="rgb(16.648865%, 16.648865%, 16.648865%)" offset="0.496094"/><stop stop-opacity="1" stop-color="rgb(16.973877%, 16.973877%, 16.973877%)" offset="0.503906"/><stop stop-opacity="1" stop-color="rgb(17.364502%, 17.364502%, 17.364502%)" offset="0.515625"/><stop stop-opacity="1" stop-color="rgb(17.755127%, 17.755127%, 17.755127%)" offset="0.527344"/><stop stop-opacity="1" stop-color="rgb(18.144226%, 18.144226%, 18.144226%)" offset="0.539062"/><stop stop-opacity="1" stop-color="rgb(18.534851%, 18.534851%, 18.534851%)" offset="0.550781"/><stop stop-opacity="1" stop-color="rgb(18.925476%, 18.925476%, 18.925476%)" offset="0.5625"/><stop stop-opacity="1" stop-color="rgb(19.316101%, 19.316101%, 19.316101%)" offset="0.574219"/><stop stop-opacity="1" stop-color="rgb(19.7052%, 19.7052%, 19.7052%)" offset="0.585938"/><stop stop-opacity="1" stop-color="rgb(20.095825%, 20.095825%, 20.095825%)" offset="0.597656"/><stop stop-opacity="1" stop-color="rgb(20.48645%, 20.48645%, 20.48645%)" offset="0.609375"/><stop stop-opacity="1" stop-color="rgb(20.877075%, 20.877075%, 20.877075%)" offset="0.621094"/><stop stop-opacity="1" stop-color="rgb(21.202087%, 21.202087%, 21.202087%)" offset="0.632812"/><stop stop-opacity="1" stop-color="rgb(21.461487%, 21.461487%, 21.461487%)" offset="0.640625"/><stop stop-opacity="1" stop-color="rgb(21.722412%, 21.722412%, 21.722412%)" offset="0.648438"/><stop stop-opacity="1" stop-color="rgb(21.981812%, 21.981812%, 21.981812%)" offset="0.65625"/><stop stop-opacity="1" stop-color="rgb(22.242737%, 22.242737%, 22.242737%)" offset="0.664062"/><stop stop-opacity="1" stop-color="rgb(22.502136%, 22.502136%, 22.502136%)" offset="0.671875"/><stop stop-opacity="1" stop-color="rgb(22.763062%, 22.763062%, 22.763062%)" offset="0.679688"/><stop stop-opacity="1" stop-color="rgb(23.022461%, 23.022461%, 23.022461%)" offset="0.6875"/><stop stop-opacity="1" stop-color="rgb(23.283386%, 23.283386%, 23.283386%)" offset="0.695312"/><stop stop-opacity="1" stop-color="rgb(23.542786%, 23.542786%, 23.542786%)" offset="0.703125"/><stop stop-opacity="1" stop-color="rgb(23.803711%, 23.803711%, 23.803711%)" offset="0.710938"/><stop stop-opacity="1" stop-color="rgb(24.06311%, 24.06311%, 24.06311%)" offset="0.71875"/><stop stop-opacity="1" stop-color="rgb(24.324036%, 24.324036%, 24.324036%)" offset="0.726562"/><stop stop-opacity="1" stop-color="rgb(24.583435%, 24.583435%, 24.583435%)" offset="0.734375"/><stop stop-opacity="1" stop-color="rgb(24.84436%, 24.84436%, 24.84436%)" offset="0.742188"/><stop stop-opacity="1" stop-color="rgb(25.10376%, 25.10376%, 25.10376%)" offset="0.75"/><stop stop-opacity="1" stop-color="rgb(25.428772%, 25.428772%, 25.428772%)" offset="0.757812"/><stop stop-opacity="1" stop-color="rgb(25.819397%, 25.819397%, 25.819397%)" offset="0.769531"/><stop stop-opacity="1" stop-color="rgb(26.210022%, 26.210022%, 26.210022%)" offset="0.78125"/><stop stop-opacity="1" stop-color="rgb(26.600647%, 26.600647%, 26.600647%)" offset="0.792969"/><stop stop-opacity="1" stop-color="rgb(26.989746%, 26.989746%, 26.989746%)" offset="0.804688"/><stop stop-opacity="1" stop-color="rgb(27.314758%, 27.314758%, 27.314758%)" offset="0.816406"/><stop stop-opacity="1" stop-color="rgb(27.575684%, 27.575684%, 27.575684%)" offset="0.824219"/><stop stop-opacity="1" stop-color="rgb(27.835083%, 27.835083%, 27.835083%)" offset="0.832031"/><stop stop-opacity="1" stop-color="rgb(28.096008%, 28.096008%, 28.096008%)" offset="0.839844"/><stop stop-opacity="1" stop-color="rgb(28.355408%, 28.355408%, 28.355408%)" offset="0.847656"/><stop stop-opacity="1" stop-color="rgb(28.616333%, 28.616333%, 28.616333%)" offset="0.855469"/><stop stop-opacity="1" stop-color="rgb(28.875732%, 28.875732%, 28.875732%)" offset="0.863281"/><stop stop-opacity="1" stop-color="rgb(29.136658%, 29.136658%, 29.136658%)" offset="0.871094"/><stop stop-opacity="1" stop-color="rgb(29.46167%, 29.46167%, 29.46167%)" offset="0.878906"/><stop stop-opacity="1" stop-color="rgb(29.852295%, 29.852295%, 29.852295%)" offset="0.890625"/><stop stop-opacity="1" stop-color="rgb(30.24292%, 30.24292%, 30.24292%)" offset="0.902344"/><stop stop-opacity="1" stop-color="rgb(30.567932%, 30.567932%, 30.567932%)" offset="0.914062"/><stop stop-opacity="1" stop-color="rgb(30.827332%, 30.827332%, 30.827332%)" offset="0.921875"/><stop stop-opacity="1" stop-color="rgb(31.088257%, 31.088257%, 31.088257%)" offset="0.929688"/><stop stop-opacity="1" stop-color="rgb(31.347656%, 31.347656%, 31.347656%)" offset="0.9375"/><stop stop-opacity="1" stop-color="rgb(31.672668%, 31.672668%, 31.672668%)" offset="0.945312"/><stop stop-opacity="1" stop-color="rgb(31.997681%, 31.997681%, 31.997681%)" offset="0.957031"/><stop stop-opacity="1" stop-color="rgb(32.258606%, 32.258606%, 32.258606%)" offset="0.964844"/><stop stop-opacity="1" stop-color="rgb(32.583618%, 32.583618%, 32.583618%)" offset="0.972656"/><stop stop-opacity="1" stop-color="rgb(32.90863%, 32.90863%, 32.90863%)" offset="0.984375"/><stop stop-opacity="1" stop-color="rgb(33.16803%, 33.16803%, 33.16803%)" offset="0.992188"/><stop stop-opacity="1" stop-color="rgb(33.299255%, 33.299255%, 33.299255%)" offset="1"/></radialGradient><clipPath id="e6e9ce9fc2"><rect x="0" width="225" y="0" height="226"/></clipPath><clipPath id="e6ede3f776"><path d="M 155.464844 113.847656 L 301.804688 113.847656 L 301.804688 189.472656 L 155.464844 189.472656 Z M 155.464844 113.847656 " clip-rule="nonzero"/></clipPath><clipPath id="b7aaa9edcc"><path d="M 155.601562 151.714844 C 155.601562 172.601562 188.300781 189.53125 228.636719 189.53125 C 268.96875 189.53125 301.667969 172.601562 301.667969 151.714844 C 301.667969 130.828125 268.96875 113.898438 228.636719 113.898438 C 188.300781 113.898438 155.601562 130.828125 155.601562 151.714844 " clip-rule="nonzero"/></clipPath><clipPath id="1e65cf5991"><path d="M 155.601562 151.714844 C 155.601562 172.601562 188.300781 189.53125 228.636719 189.53125 C 268.96875 189.53125 301.667969 172.601562 301.667969 151.714844 C 301.667969 130.828125 268.96875 113.898438 228.636719 113.898438 C 188.300781 113.898438 155.601562 130.828125 155.601562 151.714844 " clip-rule="nonzero"/></clipPath><radialGradient gradientTransform="matrix(1.007882, 0, 0, 0.992118, 199.451585, 127.191584)" gradientUnits="userSpaceOnUse" r="95.15395" cx="0" id="52c839f3e4" cy="0" fx="0" fy="0"><stop stop-opacity="1" stop-color="rgb(68.199158%, 69.799805%, 83.499146%)" offset="0"/><stop stop-opacity="1" stop-color="rgb(68.199158%, 69.799805%, 83.499146%)" offset="0.25"/><stop stop-opacity="1" stop-color="rgb(68.164062%, 69.764709%, 83.473206%)" offset="0.296875"/><stop stop-opacity="1" stop-color="rgb(67.956543%, 69.555664%, 83.317566%)" offset="0.300781"/><stop stop-opacity="1" stop-color="rgb(67.608643%, 69.20929%, 83.059692%)" offset="0.304688"/><stop stop-opacity="1" stop-color="rgb(67.260742%, 68.861389%, 82.800293%)" offset="0.308594"/><stop stop-opacity="1" stop-color="rgb(66.914368%, 68.513489%, 82.542419%)" offset="0.3125"/><stop stop-opacity="1" stop-color="rgb(66.566467%, 68.167114%, 82.28302%)" offset="0.316406"/><stop stop-opacity="1" stop-color="rgb(66.220093%, 67.819214%, 82.025146%)" offset="0.320312"/><stop stop-opacity="1" stop-color="rgb(65.872192%, 67.472839%, 81.765747%)" offset="0.324219"/><stop stop-opacity="1" stop-color="rgb(65.525818%, 67.124939%, 81.506348%)" offset="0.328125"/><stop stop-opacity="1" stop-color="rgb(65.177917%, 66.778564%, 81.248474%)" offset="0.332031"/><stop stop-opacity="1" stop-color="rgb(64.831543%, 66.430664%, 80.989075%)" offset="0.335938"/><stop stop-opacity="1" stop-color="rgb(64.483643%, 66.08429%, 80.731201%)" offset="0.339844"/><stop stop-opacity="1" stop-color="rgb(64.135742%, 65.736389%, 80.471802%)" offset="0.34375"/><stop stop-opacity="1" stop-color="rgb(63.789368%, 65.388489%, 80.213928%)" offset="0.347656"/><stop stop-opacity="1" stop-color="rgb(63.441467%, 65.042114%, 79.954529%)" offset="0.351562"/><stop stop-opacity="1" stop-color="rgb(63.095093%, 64.694214%, 79.696655%)" offset="0.355469"/><stop stop-opacity="1" stop-color="rgb(62.747192%, 64.347839%, 79.437256%)" offset="0.359375"/><stop stop-opacity="1" stop-color="rgb(62.400818%, 63.999939%, 79.179382%)" offset="0.363281"/><stop stop-opacity="1" stop-color="rgb(62.052917%, 63.653564%, 78.919983%)" offset="0.367188"/><stop stop-opacity="1" stop-color="rgb(61.706543%, 63.305664%, 78.662109%)" offset="0.371094"/><stop stop-opacity="1" stop-color="rgb(61.358643%, 62.95929%, 78.40271%)" offset="0.375"/><stop stop-opacity="1" stop-color="rgb(61.010742%, 62.611389%, 78.144836%)" offset="0.378906"/><stop stop-opacity="1" stop-color="rgb(60.664368%, 62.263489%, 77.885437%)" offset="0.382812"/><stop stop-opacity="1" stop-color="rgb(60.316467%, 61.917114%, 77.627563%)" offset="0.386719"/><stop stop-opacity="1" stop-color="rgb(59.970093%, 61.569214%, 77.368164%)" offset="0.390625"/><stop stop-opacity="1" stop-color="rgb(59.622192%, 61.222839%, 77.108765%)" offset="0.394531"/><stop stop-opacity="1" stop-color="rgb(59.275818%, 60.874939%, 76.850891%)" offset="0.398438"/><stop stop-opacity="1" stop-color="rgb(58.927917%, 60.528564%, 76.591492%)" offset="0.402344"/><stop stop-opacity="1" stop-color="rgb(58.581543%, 60.180664%, 76.333618%)" offset="0.40625"/><stop stop-opacity="1" stop-color="rgb(58.233643%, 59.83429%, 76.074219%)" offset="0.410156"/><stop stop-opacity="1" stop-color="rgb(57.885742%, 59.486389%, 75.816345%)" offset="0.414062"/><stop stop-opacity="1" stop-color="rgb(57.539368%, 59.138489%, 75.556946%)" offset="0.417969"/><stop stop-opacity="1" stop-color="rgb(57.191467%, 58.792114%, 75.299072%)" offset="0.421875"/><stop stop-opacity="1" stop-color="rgb(56.845093%, 58.444214%, 75.039673%)" offset="0.425781"/><stop stop-opacity="1" stop-color="rgb(56.497192%, 58.097839%, 74.781799%)" offset="0.429688"/><stop stop-opacity="1" stop-color="rgb(56.150818%, 57.749939%, 74.5224%)" offset="0.433594"/><stop stop-opacity="1" stop-color="rgb(55.802917%, 57.403564%, 74.264526%)" offset="0.4375"/><stop stop-opacity="1" stop-color="rgb(55.456543%, 57.055664%, 74.005127%)" offset="0.441406"/><stop stop-opacity="1" stop-color="rgb(55.108643%, 56.70929%, 73.747253%)" offset="0.445312"/><stop stop-opacity="1" stop-color="rgb(54.760742%, 56.361389%, 73.487854%)" offset="0.449219"/><stop stop-opacity="1" stop-color="rgb(54.414368%, 56.013489%, 73.22998%)" offset="0.453125"/><stop stop-opacity="1" stop-color="rgb(54.066467%, 55.667114%, 72.970581%)" offset="0.457031"/><stop stop-opacity="1" stop-color="rgb(53.720093%, 55.319214%, 72.711182%)" offset="0.460938"/><stop stop-opacity="1" stop-color="rgb(53.372192%, 54.972839%, 72.453308%)" offset="0.464844"/><stop stop-opacity="1" stop-color="rgb(53.025818%, 54.624939%, 72.193909%)" offset="0.46875"/><stop stop-opacity="1" stop-color="rgb(52.677917%, 54.278564%, 71.936035%)" offset="0.472656"/><stop stop-opacity="1" stop-color="rgb(52.331543%, 53.930664%, 71.676636%)" offset="0.476562"/><stop stop-opacity="1" stop-color="rgb(51.983643%, 53.58429%, 71.418762%)" offset="0.480469"/><stop stop-opacity="1" stop-color="rgb(51.635742%, 53.236389%, 71.159363%)" offset="0.484375"/><stop stop-opacity="1" stop-color="rgb(51.289368%, 52.888489%, 70.901489%)" offset="0.488281"/><stop stop-opacity="1" stop-color="rgb(50.941467%, 52.542114%, 70.64209%)" offset="0.492188"/><stop stop-opacity="1" stop-color="rgb(50.595093%, 52.194214%, 70.384216%)" offset="0.496094"/><stop stop-opacity="1" stop-color="rgb(50.247192%, 51.847839%, 70.124817%)" offset="0.5"/><stop stop-opacity="1" stop-color="rgb(49.900818%, 51.499939%, 69.866943%)" offset="0.503906"/><stop stop-opacity="1" stop-color="rgb(49.552917%, 51.153564%, 69.607544%)" offset="0.507812"/><stop stop-opacity="1" stop-color="rgb(49.206543%, 50.805664%, 69.34967%)" offset="0.511719"/><stop stop-opacity="1" stop-color="rgb(48.858643%, 50.45929%, 69.090271%)" offset="0.515625"/><stop stop-opacity="1" stop-color="rgb(48.510742%, 50.111389%, 68.832397%)" offset="0.519531"/><stop stop-opacity="1" stop-color="rgb(48.164368%, 49.763489%, 68.572998%)" offset="0.523438"/><stop stop-opacity="1" stop-color="rgb(47.816467%, 49.417114%, 68.313599%)" offset="0.527344"/><stop stop-opacity="1" stop-color="rgb(47.470093%, 49.069214%, 68.055725%)" offset="0.53125"/><stop stop-opacity="1" stop-color="rgb(47.122192%, 48.722839%, 67.796326%)" offset="0.535156"/><stop stop-opacity="1" stop-color="rgb(46.775818%, 48.374939%, 67.538452%)" offset="0.539062"/><stop stop-opacity="1" stop-color="rgb(46.427917%, 48.028564%, 67.279053%)" offset="0.542969"/><stop stop-opacity="1" stop-color="rgb(46.081543%, 47.680664%, 67.021179%)" offset="0.546875"/><stop stop-opacity="1" stop-color="rgb(45.733643%, 47.33429%, 66.76178%)" offset="0.550781"/><stop stop-opacity="1" stop-color="rgb(45.385742%, 46.986389%, 66.503906%)" offset="0.554688"/><stop stop-opacity="1" stop-color="rgb(45.039368%, 46.638489%, 66.244507%)" offset="0.558594"/><stop stop-opacity="1" stop-color="rgb(44.691467%, 46.292114%, 65.986633%)" offset="0.5625"/><stop stop-opacity="1" stop-color="rgb(44.345093%, 45.944214%, 65.727234%)" offset="0.566406"/><stop stop-opacity="1" stop-color="rgb(43.997192%, 45.597839%, 65.46936%)" offset="0.570312"/><stop stop-opacity="1" stop-color="rgb(43.650818%, 45.249939%, 65.209961%)" offset="0.574219"/><stop stop-opacity="1" stop-color="rgb(43.302917%, 44.903564%, 64.952087%)" offset="0.578125"/><stop stop-opacity="1" stop-color="rgb(42.956543%, 44.555664%, 64.692688%)" offset="0.582031"/><stop stop-opacity="1" stop-color="rgb(42.608643%, 44.20929%, 64.434814%)" offset="0.585938"/><stop stop-opacity="1" stop-color="rgb(42.260742%, 43.861389%, 64.175415%)" offset="0.589844"/><stop stop-opacity="1" stop-color="rgb(41.914368%, 43.513489%, 63.916016%)" offset="0.59375"/><stop stop-opacity="1" stop-color="rgb(41.566467%, 43.167114%, 63.658142%)" offset="0.597656"/><stop stop-opacity="1" stop-color="rgb(41.220093%, 42.819214%, 63.398743%)" offset="0.601562"/><stop stop-opacity="1" stop-color="rgb(40.872192%, 42.472839%, 63.140869%)" offset="0.605469"/><stop stop-opacity="1" stop-color="rgb(40.525818%, 42.124939%, 62.88147%)" offset="0.609375"/><stop stop-opacity="1" stop-color="rgb(40.177917%, 41.778564%, 62.623596%)" offset="0.613281"/><stop stop-opacity="1" stop-color="rgb(39.831543%, 41.430664%, 62.364197%)" offset="0.617188"/><stop stop-opacity="1" stop-color="rgb(39.483643%, 41.08429%, 62.106323%)" offset="0.621094"/><stop stop-opacity="1" stop-color="rgb(39.135742%, 40.736389%, 61.846924%)" offset="0.625"/><stop stop-opacity="1" stop-color="rgb(38.789368%, 40.388489%, 61.58905%)" offset="0.628906"/><stop stop-opacity="1" stop-color="rgb(38.441467%, 40.042114%, 61.329651%)" offset="0.632812"/><stop stop-opacity="1" stop-color="rgb(38.095093%, 39.694214%, 61.071777%)" offset="0.636719"/><stop stop-opacity="1" stop-color="rgb(37.747192%, 39.347839%, 60.812378%)" offset="0.640625"/><stop stop-opacity="1" stop-color="rgb(37.400818%, 38.999939%, 60.554504%)" offset="0.644531"/><stop stop-opacity="1" stop-color="rgb(37.052917%, 38.653564%, 60.295105%)" offset="0.648438"/><stop stop-opacity="1" stop-color="rgb(36.706543%, 38.305664%, 60.037231%)" offset="0.652344"/><stop stop-opacity="1" stop-color="rgb(36.358643%, 37.95929%, 59.777832%)" offset="0.65625"/><stop stop-opacity="1" stop-color="rgb(36.010742%, 37.611389%, 59.518433%)" offset="0.660156"/><stop stop-opacity="1" stop-color="rgb(35.664368%, 37.263489%, 59.260559%)" offset="0.664062"/><stop stop-opacity="1" stop-color="rgb(35.316467%, 36.917114%, 59.00116%)" offset="0.667969"/><stop stop-opacity="1" stop-color="rgb(34.970093%, 36.569214%, 58.743286%)" offset="0.671875"/><stop stop-opacity="1" stop-color="rgb(34.622192%, 36.222839%, 58.483887%)" offset="0.675781"/><stop stop-opacity="1" stop-color="rgb(34.275818%, 35.874939%, 58.226013%)" offset="0.679688"/><stop stop-opacity="1" stop-color="rgb(33.927917%, 35.528564%, 57.966614%)" offset="0.683594"/><stop stop-opacity="1" stop-color="rgb(33.581543%, 35.180664%, 57.70874%)" offset="0.6875"/><stop stop-opacity="1" stop-color="rgb(33.233643%, 34.83429%, 57.449341%)" offset="0.691406"/><stop stop-opacity="1" stop-color="rgb(32.885742%, 34.486389%, 57.191467%)" offset="0.695312"/><stop stop-opacity="1" stop-color="rgb(32.539368%, 34.138489%, 56.932068%)" offset="0.699219"/><stop stop-opacity="1" stop-color="rgb(32.191467%, 33.792114%, 56.674194%)" offset="0.703125"/><stop stop-opacity="1" stop-color="rgb(31.845093%, 33.444214%, 56.414795%)" offset="0.707031"/><stop stop-opacity="1" stop-color="rgb(31.497192%, 33.097839%, 56.156921%)" offset="0.710938"/><stop stop-opacity="1" stop-color="rgb(31.150818%, 32.749939%, 55.897522%)" offset="0.714844"/><stop stop-opacity="1" stop-color="rgb(30.802917%, 32.403564%, 55.639648%)" offset="0.71875"/><stop stop-opacity="1" stop-color="rgb(30.456543%, 32.055664%, 55.380249%)" offset="0.722656"/><stop stop-opacity="1" stop-color="rgb(30.108643%, 31.70929%, 55.122375%)" offset="0.726562"/><stop stop-opacity="1" stop-color="rgb(29.760742%, 31.361389%, 54.862976%)" offset="0.730469"/><stop stop-opacity="1" stop-color="rgb(29.414368%, 31.013489%, 54.603577%)" offset="0.734375"/><stop stop-opacity="1" stop-color="rgb(29.066467%, 30.667114%, 54.345703%)" offset="0.738281"/><stop stop-opacity="1" stop-color="rgb(28.720093%, 30.319214%, 54.086304%)" offset="0.742188"/><stop stop-opacity="1" stop-color="rgb(28.372192%, 29.972839%, 53.82843%)" offset="0.746094"/><stop stop-opacity="1" stop-color="rgb(28.199768%, 29.798889%, 53.69873%)" offset="1"/></radialGradient></defs><g mask="url(#975384d6c9)"><g transform="matrix(1, 0, 0, 1, 115, 39)"><g clip-path="url(#e6e9ce9fc2)"><g clip-path="url(#6e8d1814d2)"><g clip-path="url(#3ad89ab3ca)"><path fill="url(#1670824613)" d="M 0.40625 0.65625 L 0.40625 224.972656 L 224.726562 224.972656 L 224.726562 0.65625 Z M 0.40625 0.65625 " fill-rule="nonzero"/></g></g></g></g></g><g clip-path="url(#e6ede3f776)"><g clip-path="url(#b7aaa9edcc)"><g clip-path="url(#1e65cf5991)"><path fill="url(#52c839f3e4)" d="M 155.601562 113.898438 L 155.601562 189.472656 L 301.667969 189.472656 L 301.667969 113.898438 Z M 155.601562 113.898438 " fill-rule="nonzero"/></g></g></g><path fill="#777bb3" d="M 228.636719 186.722656 C 267.394531 186.722656 298.816406 171.050781 298.816406 151.714844 C 298.816406 132.378906 267.394531 116.703125 228.636719 116.703125 C 189.875 116.703125 158.453125 132.378906 158.453125 151.714844 C 158.453125 171.050781 189.875 186.722656 228.636719 186.722656 " fill-opacity="1" fill-rule="nonzero"/><path fill="#000000" d="M 195.28125 156.054688 C 198.46875 156.054688 200.847656 155.476562 202.351562 154.335938 C 203.839844 153.207031 204.871094 151.25 205.410156 148.523438 C 205.910156 145.972656 205.71875 144.191406 204.839844 143.230469 C 203.941406 142.25 201.996094 141.753906 199.058594 141.753906 L 193.964844 141.753906 L 191.140625 156.054688 Z M 178.621094 173.671875 C 178.386719 173.671875 178.160156 173.566406 178.011719 173.386719 C 177.851562 173.199219 177.796875 172.984375 177.84375 172.742188 L 185.328125 134.84375 C 185.363281 134.660156 185.457031 134.511719 185.601562 134.390625 C 185.75 134.273438 185.917969 134.214844 186.105469 134.214844 L 202.234375 134.214844 C 207.300781 134.214844 211.074219 135.566406 213.445312 138.238281 C 215.832031 140.925781 216.566406 144.679688 215.632812 149.402344 C 215.253906 151.324219 214.601562 153.109375 213.695312 154.707031 C 212.785156 156.308594 211.585938 157.789062 210.125 159.109375 C 208.378906 160.71875 206.402344 161.886719 204.253906 162.574219 C 202.140625 163.253906 199.425781 163.597656 196.183594 163.597656 L 189.652344 163.597656 L 187.789062 173.039062 C 187.753906 173.222656 187.660156 173.375 187.515625 173.492188 C 187.367188 173.613281 187.199219 173.671875 187.011719 173.671875 Z M 178.621094 173.671875 " fill-opacity="1" fill-rule="nonzero"/><path fill="#ffffff" d="M 194.617188 142.53125 L 199.058594 142.53125 C 202.601562 142.53125 203.835938 143.296875 204.253906 143.753906 C 204.945312 144.511719 205.078125 146.109375 204.632812 148.375 C 204.128906 150.910156 203.199219 152.707031 201.867188 153.71875 C 200.503906 154.75 198.289062 155.273438 195.28125 155.273438 L 192.101562 155.273438 Z M 202.234375 133.433594 L 186.105469 133.433594 C 185.726562 133.433594 185.390625 133.550781 185.097656 133.789062 C 184.804688 134.027344 184.625 134.328125 184.550781 134.695312 L 177.066406 172.59375 C 177.023438 172.824219 177.03125 173.050781 177.089844 173.277344 C 177.144531 173.503906 177.25 173.707031 177.402344 173.886719 C 177.550781 174.066406 177.734375 174.203125 177.949219 174.304688 C 178.160156 174.402344 178.386719 174.453125 178.625 174.453125 L 187.011719 174.453125 C 187.390625 174.453125 187.726562 174.335938 188.019531 174.097656 C 188.3125 173.859375 188.496094 173.558594 188.566406 173.191406 L 190.308594 164.378906 L 196.183594 164.378906 C 199.507812 164.378906 202.304688 164.019531 204.5 163.316406 C 206.753906 162.59375 208.832031 161.371094 210.667969 159.679688 C 212.1875 158.304688 213.441406 156.761719 214.386719 155.089844 C 215.332031 153.417969 216.019531 151.554688 216.414062 149.550781 C 217.394531 144.582031 216.597656 140.605469 214.042969 137.726562 C 211.515625 134.878906 207.542969 133.433594 202.234375 133.433594 M 190.179688 156.835938 L 195.28125 156.835938 C 198.664062 156.835938 201.183594 156.210938 202.835938 154.957031 C 204.492188 153.703125 205.609375 151.609375 206.1875 148.675781 C 206.742188 145.859375 206.492188 143.871094 205.429688 142.710938 C 204.371094 141.554688 202.246094 140.976562 199.058594 140.976562 L 193.3125 140.976562 L 190.179688 156.835938 M 202.234375 134.996094 C 207.085938 134.996094 210.625 136.246094 212.851562 138.753906 C 215.074219 141.261719 215.746094 144.761719 214.859375 149.253906 C 214.492188 151.101562 213.875 152.796875 213.003906 154.328125 C 212.136719 155.863281 210.996094 157.265625 209.589844 158.535156 C 207.917969 160.078125 206.054688 161.179688 204.007812 161.832031 C 201.960938 162.492188 199.355469 162.816406 196.183594 162.816406 L 189 162.816406 L 187.011719 172.894531 L 178.625 172.894531 L 186.109375 134.996094 L 202.234375 134.996094 " fill-opacity="1" fill-rule="nonzero"/><path fill="#000000" d="M 234.863281 163.59375 C 234.628906 163.59375 234.402344 163.492188 234.253906 163.3125 C 234.101562 163.132812 234.039062 162.894531 234.085938 162.664062 L 237.394531 145.898438 C 237.710938 144.300781 237.632812 143.15625 237.179688 142.675781 C 236.898438 142.378906 236.0625 141.882812 233.582031 141.882812 L 227.585938 141.882812 L 223.425781 162.964844 C 223.390625 163.148438 223.296875 163.296875 223.152344 163.417969 C 223.003906 163.535156 222.835938 163.59375 222.648438 163.59375 L 214.324219 163.59375 C 214.207031 163.59375 214.09375 163.570312 213.988281 163.519531 C 213.882812 163.46875 213.789062 163.402344 213.714844 163.3125 C 213.640625 163.222656 213.585938 163.121094 213.558594 163.007812 C 213.527344 162.894531 213.527344 162.78125 213.546875 162.664062 L 221.03125 124.765625 C 221.066406 124.585938 221.160156 124.433594 221.304688 124.3125 C 221.453125 124.195312 221.621094 124.136719 221.808594 124.136719 L 230.128906 124.136719 C 230.25 124.136719 230.359375 124.160156 230.46875 124.210938 C 230.574219 124.261719 230.667969 124.332031 230.742188 124.421875 C 230.816406 124.511719 230.867188 124.613281 230.898438 124.722656 C 230.925781 124.835938 230.929688 124.949219 230.90625 125.066406 L 229.101562 134.210938 L 235.554688 134.210938 C 240.46875 134.210938 243.800781 135.066406 245.742188 136.820312 C 247.722656 138.609375 248.335938 141.472656 247.578125 145.328125 L 244.09375 162.964844 C 244.058594 163.148438 243.96875 163.296875 243.820312 163.417969 C 243.675781 163.535156 243.507812 163.59375 243.316406 163.59375 Z M 234.863281 163.59375 " fill-opacity="1" fill-rule="nonzero"/><path fill="#ffffff" d="M 230.128906 123.355469 L 221.808594 123.355469 C 221.429688 123.355469 221.09375 123.476562 220.800781 123.710938 C 220.507812 123.949219 220.324219 124.253906 220.253906 124.617188 L 212.769531 162.515625 C 212.726562 162.746094 212.730469 162.972656 212.789062 163.199219 C 212.847656 163.425781 212.953125 163.628906 213.105469 163.808594 C 213.253906 163.988281 213.4375 164.125 213.652344 164.226562 C 213.863281 164.324219 214.089844 164.375 214.328125 164.375 L 222.648438 164.375 C 223.027344 164.375 223.363281 164.257812 223.65625 164.019531 C 223.949219 163.78125 224.132812 163.480469 224.203125 163.113281 L 228.242188 142.664062 L 233.585938 142.664062 C 236.058594 142.664062 236.578125 143.183594 236.597656 143.207031 C 236.746094 143.363281 236.945312 144.097656 236.621094 145.75 L 233.308594 162.515625 C 233.265625 162.746094 233.269531 162.972656 233.328125 163.199219 C 233.386719 163.425781 233.492188 163.628906 233.640625 163.808594 C 233.792969 163.988281 233.976562 164.125 234.1875 164.226562 C 234.402344 164.324219 234.628906 164.375 234.863281 164.375 L 243.316406 164.375 C 243.699219 164.375 244.035156 164.257812 244.328125 164.019531 C 244.617188 163.78125 244.800781 163.480469 244.875 163.113281 L 248.355469 145.476562 C 249.171875 141.335938 248.472656 138.230469 246.28125 136.246094 C 244.183594 134.351562 240.675781 133.433594 235.554688 133.433594 L 230.0625 133.433594 L 231.6875 125.214844 C 231.730469 124.984375 231.726562 124.757812 231.667969 124.53125 C 231.609375 124.304688 231.503906 124.101562 231.355469 123.921875 C 231.203125 123.742188 231.019531 123.605469 230.808594 123.503906 C 230.59375 123.40625 230.367188 123.355469 230.132812 123.355469 M 230.132812 124.917969 L 228.140625 134.992188 L 235.554688 134.992188 C 240.21875 134.992188 243.4375 135.792969 245.207031 137.394531 C 246.976562 138.996094 247.507812 141.589844 246.800781 145.179688 L 243.320312 162.816406 L 234.867188 162.816406 L 238.175781 146.046875 C 238.550781 144.136719 238.414062 142.835938 237.761719 142.144531 C 237.105469 141.449219 235.714844 141.101562 233.585938 141.101562 L 226.933594 141.101562 L 222.648438 162.816406 L 214.328125 162.816406 L 221.808594 124.917969 L 230.128906 124.917969 " fill-opacity="1" fill-rule="nonzero"/><path fill="#000000" d="M 260.742188 156.054688 C 263.929688 156.054688 266.308594 155.476562 267.816406 154.335938 C 269.304688 153.207031 270.332031 151.25 270.871094 148.523438 C 271.375 145.972656 271.183594 144.191406 270.304688 143.230469 C 269.402344 142.25 267.457031 141.753906 264.519531 141.753906 L 259.425781 141.753906 L 256.601562 156.054688 Z M 244.085938 173.671875 C 243.847656 173.671875 243.625 173.566406 243.472656 173.386719 C 243.316406 173.199219 243.261719 172.984375 243.308594 172.742188 L 250.789062 134.84375 C 250.828125 134.660156 250.917969 134.507812 251.0625 134.390625 C 251.210938 134.273438 251.378906 134.210938 251.570312 134.210938 L 267.695312 134.210938 C 272.765625 134.210938 276.539062 135.566406 278.910156 138.238281 C 281.292969 140.925781 282.027344 144.679688 281.097656 149.398438 C 280.71875 151.320312 280.066406 153.109375 279.15625 154.707031 C 278.25 156.308594 277.046875 157.789062 275.589844 159.109375 C 273.839844 160.71875 271.863281 161.886719 269.714844 162.574219 C 267.601562 163.25 264.886719 163.59375 261.644531 163.59375 L 255.109375 163.59375 L 253.246094 173.039062 C 253.210938 173.222656 253.117188 173.375 252.972656 173.492188 C 252.824219 173.613281 252.65625 173.671875 252.46875 173.671875 L 244.082031 173.671875 Z M 244.085938 173.671875 " fill-opacity="1" fill-rule="nonzero"/><path fill="#ffffff" d="M 260.082031 142.53125 L 264.519531 142.53125 C 268.066406 142.53125 269.296875 143.296875 269.714844 143.753906 C 270.410156 144.511719 270.539062 146.109375 270.09375 148.375 C 269.59375 150.910156 268.664062 152.707031 267.332031 153.71875 C 265.96875 154.75 263.75 155.273438 260.742188 155.273438 L 257.566406 155.273438 Z M 267.695312 133.433594 L 251.566406 133.433594 C 251.1875 133.433594 250.851562 133.550781 250.558594 133.789062 C 250.265625 134.027344 250.085938 134.328125 250.011719 134.695312 L 242.527344 172.59375 C 242.484375 172.824219 242.492188 173.050781 242.546875 173.277344 C 242.605469 173.503906 242.710938 173.707031 242.863281 173.886719 C 243.011719 174.066406 243.195312 174.203125 243.410156 174.304688 C 243.621094 174.402344 243.847656 174.453125 244.085938 174.453125 L 252.472656 174.453125 C 252.851562 174.453125 253.1875 174.335938 253.480469 174.097656 C 253.773438 173.859375 253.953125 173.558594 254.027344 173.191406 L 255.765625 164.378906 L 261.644531 164.378906 C 264.96875 164.378906 267.765625 164.019531 269.960938 163.316406 C 272.214844 162.59375 274.292969 161.371094 276.128906 159.679688 C 277.648438 158.304688 278.902344 156.761719 279.847656 155.089844 C 280.796875 153.417969 281.480469 151.554688 281.875 149.550781 C 282.855469 144.582031 282.058594 140.605469 279.503906 137.726562 C 276.976562 134.878906 273.003906 133.433594 267.695312 133.433594 M 255.640625 156.835938 L 260.742188 156.835938 C 264.125 156.835938 266.644531 156.210938 268.296875 154.957031 C 269.953125 153.703125 271.070312 151.609375 271.648438 148.675781 C 272.203125 145.859375 271.953125 143.871094 270.890625 142.710938 C 269.832031 141.554688 267.707031 140.976562 264.519531 140.976562 L 258.773438 140.976562 L 255.640625 156.835938 M 267.695312 134.996094 C 272.546875 134.996094 276.085938 136.246094 278.3125 138.753906 C 280.535156 141.261719 281.207031 144.761719 280.320312 149.253906 C 279.953125 151.101562 279.335938 152.796875 278.464844 154.328125 C 277.59375 155.863281 276.457031 157.265625 275.050781 158.535156 C 273.378906 160.078125 271.515625 161.179688 269.46875 161.832031 C 267.421875 162.492188 264.816406 162.816406 261.644531 162.816406 L 254.460938 162.816406 L 252.472656 172.894531 L 244.085938 172.894531 L 251.570312 134.996094 L 267.695312 134.996094 " fill-opacity="1" fill-rule="nonzero"/></svg>