<svg xmlns="http://www.w3.org/2000/svg" xmlns:xlink="http://www.w3.org/1999/xlink" width="611" zoomAndPan="magnify" viewBox="0 0 458.25 305.999988" height="408" preserveAspectRatio="xMidYMid meet" version="1.0"><defs><filter x="0%" y="0%" width="100%" height="100%" id="547f60e607"><feColorMatrix values="0 0 0 0 1 0 0 0 0 1 0 0 0 0 1 0 0 0 1 0" color-interpolation-filters="sRGB"/></filter><mask id="2b1e8d1989"><g filter="url(#547f60e607)"><rect x="-45.825" width="549.9" fill="#000000" y="-30.599999" height="367.199986" fill-opacity="0.64"/></g></mask><clipPath id="2658c06f57"><path d="M 0.40625 0.65625 L 224.726562 0.65625 L 224.726562 224.972656 L 0.40625 224.972656 Z M 0.40625 0.65625 " clip-rule="nonzero"/></clipPath><clipPath id="8bfc8cba79"><path d="M 112.566406 0.65625 C 50.621094 0.65625 0.40625 50.871094 0.40625 112.816406 C 0.40625 174.757812 50.621094 224.972656 112.566406 224.972656 C 174.511719 224.972656 224.726562 174.757812 224.726562 112.816406 C 224.726562 50.871094 174.511719 0.65625 112.566406 0.65625 Z M 112.566406 0.65625 " clip-rule="nonzero"/></clipPath><radialGradient gradientTransform="matrix(1, 0, 0, 1, 0.407813, 0.657205)" gradientUnits="userSpaceOnUse" r="158.615876" cx="112.15857" id="a49b23bd47" cy="112.15857" fx="112.15857" fy="112.15857"><stop stop-opacity="1" stop-color="rgb(0.1297%, 0.1297%, 0.1297%)" offset="0"/><stop stop-opacity="1" stop-color="rgb(0.454712%, 0.454712%, 0.454712%)" offset="0.0078125"/><stop stop-opacity="1" stop-color="rgb(0.843811%, 0.843811%, 0.843811%)" offset="0.0195312"/><stop stop-opacity="1" stop-color="rgb(1.234436%, 1.234436%, 1.234436%)" offset="0.03125"/><stop stop-opacity="1" stop-color="rgb(1.625061%, 1.625061%, 1.625061%)" offset="0.0429688"/><stop stop-opacity="1" stop-color="rgb(2.015686%, 2.015686%, 2.015686%)" offset="0.0546875"/><stop stop-opacity="1" stop-color="rgb(2.404785%, 2.404785%, 2.404785%)" offset="0.0664062"/><stop stop-opacity="1" stop-color="rgb(2.79541%, 2.79541%, 2.79541%)" offset="0.078125"/><stop stop-opacity="1" stop-color="rgb(3.186035%, 3.186035%, 3.186035%)" offset="0.0898438"/><stop stop-opacity="1" stop-color="rgb(3.57666%, 3.57666%, 3.57666%)" offset="0.101562"/><stop stop-opacity="1" stop-color="rgb(3.965759%, 3.965759%, 3.965759%)" offset="0.113281"/><stop stop-opacity="1" stop-color="rgb(4.356384%, 4.356384%, 4.356384%)" offset="0.125"/><stop stop-opacity="1" stop-color="rgb(4.747009%, 4.747009%, 4.747009%)" offset="0.136719"/><stop stop-opacity="1" stop-color="rgb(5.137634%, 5.137634%, 5.137634%)" offset="0.148438"/><stop stop-opacity="1" stop-color="rgb(5.526733%, 5.526733%, 5.526733%)" offset="0.160156"/><stop stop-opacity="1" stop-color="rgb(5.917358%, 5.917358%, 5.917358%)" offset="0.171875"/><stop stop-opacity="1" stop-color="rgb(6.307983%, 6.307983%, 6.307983%)" offset="0.183594"/><stop stop-opacity="1" stop-color="rgb(6.698608%, 6.698608%, 6.698608%)" offset="0.195312"/><stop stop-opacity="1" stop-color="rgb(7.087708%, 7.087708%, 7.087708%)" offset="0.207031"/><stop stop-opacity="1" stop-color="rgb(7.478333%, 7.478333%, 7.478333%)" offset="0.21875"/><stop stop-opacity="1" stop-color="rgb(7.868958%, 7.868958%, 7.868958%)" offset="0.230469"/><stop stop-opacity="1" stop-color="rgb(8.259583%, 8.259583%, 8.259583%)" offset="0.242188"/><stop stop-opacity="1" stop-color="rgb(8.584595%, 8.584595%, 8.584595%)" offset="0.253906"/><stop stop-opacity="1" stop-color="rgb(8.843994%, 8.843994%, 8.843994%)" offset="0.261719"/><stop stop-opacity="1" stop-color="rgb(9.104919%, 9.104919%, 9.104919%)" offset="0.269531"/><stop stop-opacity="1" stop-color="rgb(9.364319%, 9.364319%, 9.364319%)" offset="0.277344"/><stop stop-opacity="1" stop-color="rgb(9.625244%, 9.625244%, 9.625244%)" offset="0.285156"/><stop stop-opacity="1" stop-color="rgb(9.884644%, 9.884644%, 9.884644%)" offset="0.292969"/><stop stop-opacity="1" stop-color="rgb(10.145569%, 10.145569%, 10.145569%)" offset="0.300781"/><stop stop-opacity="1" stop-color="rgb(10.404968%, 10.404968%, 10.404968%)" offset="0.308594"/><stop stop-opacity="1" stop-color="rgb(10.665894%, 10.665894%, 10.665894%)" offset="0.316406"/><stop stop-opacity="1" stop-color="rgb(10.925293%, 10.925293%, 10.925293%)" offset="0.324219"/><stop stop-opacity="1" stop-color="rgb(11.186218%, 11.186218%, 11.186218%)" offset="0.332031"/><stop stop-opacity="1" stop-color="rgb(11.445618%, 11.445618%, 11.445618%)" offset="0.339844"/><stop stop-opacity="1" stop-color="rgb(11.706543%, 11.706543%, 11.706543%)" offset="0.347656"/><stop stop-opacity="1" stop-color="rgb(11.965942%, 11.965942%, 11.965942%)" offset="0.355469"/><stop stop-opacity="1" stop-color="rgb(12.226868%, 12.226868%, 12.226868%)" offset="0.363281"/><stop stop-opacity="1" stop-color="rgb(12.486267%, 12.486267%, 12.486267%)" offset="0.371094"/><stop stop-opacity="1" stop-color="rgb(12.747192%, 12.747192%, 12.747192%)" offset="0.378906"/><stop stop-opacity="1" stop-color="rgb(13.006592%, 13.006592%, 13.006592%)" offset="0.386719"/><stop stop-opacity="1" stop-color="rgb(13.267517%, 13.267517%, 13.267517%)" offset="0.394531"/><stop stop-opacity="1" stop-color="rgb(13.526917%, 13.526917%, 13.526917%)" offset="0.402344"/><stop stop-opacity="1" stop-color="rgb(13.787842%, 13.787842%, 13.787842%)" offset="0.410156"/><stop stop-opacity="1" stop-color="rgb(14.047241%, 14.047241%, 14.047241%)" offset="0.417969"/><stop stop-opacity="1" stop-color="rgb(14.308167%, 14.308167%, 14.308167%)" offset="0.425781"/><stop stop-opacity="1" stop-color="rgb(14.567566%, 14.567566%, 14.567566%)" offset="0.433594"/><stop stop-opacity="1" stop-color="rgb(14.828491%, 14.828491%, 14.828491%)" offset="0.441406"/><stop stop-opacity="1" stop-color="rgb(15.087891%, 15.087891%, 15.087891%)" offset="0.449219"/><stop stop-opacity="1" stop-color="rgb(15.348816%, 15.348816%, 15.348816%)" offset="0.457031"/><stop stop-opacity="1" stop-color="rgb(15.608215%, 15.608215%, 15.608215%)" offset="0.464844"/><stop stop-opacity="1" stop-color="rgb(15.869141%, 15.869141%, 15.869141%)" offset="0.472656"/><stop stop-opacity="1" stop-color="rgb(16.12854%, 16.12854%, 16.12854%)" offset="0.480469"/><stop stop-opacity="1" stop-color="rgb(16.389465%, 16.389465%, 16.389465%)" offset="0.488281"/><stop stop-opacity="1" stop-color="rgb(16.648865%, 16.648865%, 16.648865%)" offset="0.496094"/><stop stop-opacity="1" stop-color="rgb(16.973877%, 16.973877%, 16.973877%)" offset="0.503906"/><stop stop-opacity="1" stop-color="rgb(17.364502%, 17.364502%, 17.364502%)" offset="0.515625"/><stop stop-opacity="1" stop-color="rgb(17.755127%, 17.755127%, 17.755127%)" offset="0.527344"/><stop stop-opacity="1" stop-color="rgb(18.144226%, 18.144226%, 18.144226%)" offset="0.539062"/><stop stop-opacity="1" stop-color="rgb(18.534851%, 18.534851%, 18.534851%)" offset="0.550781"/><stop stop-opacity="1" stop-color="rgb(18.925476%, 18.925476%, 18.925476%)" offset="0.5625"/><stop stop-opacity="1" stop-color="rgb(19.316101%, 19.316101%, 19.316101%)" offset="0.574219"/><stop stop-opacity="1" stop-color="rgb(19.7052%, 19.7052%, 19.7052%)" offset="0.585938"/><stop stop-opacity="1" stop-color="rgb(20.095825%, 20.095825%, 20.095825%)" offset="0.597656"/><stop stop-opacity="1" stop-color="rgb(20.48645%, 20.48645%, 20.48645%)" offset="0.609375"/><stop stop-opacity="1" stop-color="rgb(20.877075%, 20.877075%, 20.877075%)" offset="0.621094"/><stop stop-opacity="1" stop-color="rgb(21.202087%, 21.202087%, 21.202087%)" offset="0.632812"/><stop stop-opacity="1" stop-color="rgb(21.461487%, 21.461487%, 21.461487%)" offset="0.640625"/><stop stop-opacity="1" stop-color="rgb(21.722412%, 21.722412%, 21.722412%)" offset="0.648438"/><stop stop-opacity="1" stop-color="rgb(21.981812%, 21.981812%, 21.981812%)" offset="0.65625"/><stop stop-opacity="1" stop-color="rgb(22.242737%, 22.242737%, 22.242737%)" offset="0.664062"/><stop stop-opacity="1" stop-color="rgb(22.502136%, 22.502136%, 22.502136%)" offset="0.671875"/><stop stop-opacity="1" stop-color="rgb(22.763062%, 22.763062%, 22.763062%)" offset="0.679688"/><stop stop-opacity="1" stop-color="rgb(23.022461%, 23.022461%, 23.022461%)" offset="0.6875"/><stop stop-opacity="1" stop-color="rgb(23.283386%, 23.283386%, 23.283386%)" offset="0.695312"/><stop stop-opacity="1" stop-color="rgb(23.542786%, 23.542786%, 23.542786%)" offset="0.703125"/><stop stop-opacity="1" stop-color="rgb(23.803711%, 23.803711%, 23.803711%)" offset="0.710938"/><stop stop-opacity="1" stop-color="rgb(24.06311%, 24.06311%, 24.06311%)" offset="0.71875"/><stop stop-opacity="1" stop-color="rgb(24.324036%, 24.324036%, 24.324036%)" offset="0.726562"/><stop stop-opacity="1" stop-color="rgb(24.583435%, 24.583435%, 24.583435%)" offset="0.734375"/><stop stop-opacity="1" stop-color="rgb(24.84436%, 24.84436%, 24.84436%)" offset="0.742188"/><stop stop-opacity="1" stop-color="rgb(25.10376%, 25.10376%, 25.10376%)" offset="0.75"/><stop stop-opacity="1" stop-color="rgb(25.428772%, 25.428772%, 25.428772%)" offset="0.757812"/><stop stop-opacity="1" stop-color="rgb(25.819397%, 25.819397%, 25.819397%)" offset="0.769531"/><stop stop-opacity="1" stop-color="rgb(26.210022%, 26.210022%, 26.210022%)" offset="0.78125"/><stop stop-opacity="1" stop-color="rgb(26.600647%, 26.600647%, 26.600647%)" offset="0.792969"/><stop stop-opacity="1" stop-color="rgb(26.989746%, 26.989746%, 26.989746%)" offset="0.804688"/><stop stop-opacity="1" stop-color="rgb(27.314758%, 27.314758%, 27.314758%)" offset="0.816406"/><stop stop-opacity="1" stop-color="rgb(27.575684%, 27.575684%, 27.575684%)" offset="0.824219"/><stop stop-opacity="1" stop-color="rgb(27.835083%, 27.835083%, 27.835083%)" offset="0.832031"/><stop stop-opacity="1" stop-color="rgb(28.096008%, 28.096008%, 28.096008%)" offset="0.839844"/><stop stop-opacity="1" stop-color="rgb(28.355408%, 28.355408%, 28.355408%)" offset="0.847656"/><stop stop-opacity="1" stop-color="rgb(28.616333%, 28.616333%, 28.616333%)" offset="0.855469"/><stop stop-opacity="1" stop-color="rgb(28.875732%, 28.875732%, 28.875732%)" offset="0.863281"/><stop stop-opacity="1" stop-color="rgb(29.136658%, 29.136658%, 29.136658%)" offset="0.871094"/><stop stop-opacity="1" stop-color="rgb(29.46167%, 29.46167%, 29.46167%)" offset="0.878906"/><stop stop-opacity="1" stop-color="rgb(29.852295%, 29.852295%, 29.852295%)" offset="0.890625"/><stop stop-opacity="1" stop-color="rgb(30.24292%, 30.24292%, 30.24292%)" offset="0.902344"/><stop stop-opacity="1" stop-color="rgb(30.567932%, 30.567932%, 30.567932%)" offset="0.914062"/><stop stop-opacity="1" stop-color="rgb(30.827332%, 30.827332%, 30.827332%)" offset="0.921875"/><stop stop-opacity="1" stop-color="rgb(31.088257%, 31.088257%, 31.088257%)" offset="0.929688"/><stop stop-opacity="1" stop-color="rgb(31.347656%, 31.347656%, 31.347656%)" offset="0.9375"/><stop stop-opacity="1" stop-color="rgb(31.672668%, 31.672668%, 31.672668%)" offset="0.945312"/><stop stop-opacity="1" stop-color="rgb(31.997681%, 31.997681%, 31.997681%)" offset="0.957031"/><stop stop-opacity="1" stop-color="rgb(32.258606%, 32.258606%, 32.258606%)" offset="0.964844"/><stop stop-opacity="1" stop-color="rgb(32.583618%, 32.583618%, 32.583618%)" offset="0.972656"/><stop stop-opacity="1" stop-color="rgb(32.90863%, 32.90863%, 32.90863%)" offset="0.984375"/><stop stop-opacity="1" stop-color="rgb(33.16803%, 33.16803%, 33.16803%)" offset="0.992188"/><stop stop-opacity="1" stop-color="rgb(33.299255%, 33.299255%, 33.299255%)" offset="1"/></radialGradient><clipPath id="7193e4c82b"><rect x="0" width="225" y="0" height="226"/></clipPath><clipPath id="1623ad091e"><path d="M 173.765625 113 L 295.066406 113 L 295.066406 201.355469 L 173.765625 201.355469 Z M 173.765625 113 " clip-rule="nonzero"/></clipPath></defs><g mask="url(#2b1e8d1989)"><g transform="matrix(1, 0, 0, 1, 115, 39)"><g clip-path="url(#7193e4c82b)"><g clip-path="url(#2658c06f57)"><g clip-path="url(#8bfc8cba79)"><path fill="url(#a49b23bd47)" d="M 0.40625 0.65625 L 0.40625 224.972656 L 224.726562 224.972656 L 224.726562 0.65625 Z M 0.40625 0.65625 " fill-rule="nonzero"/></g></g></g></g></g><g clip-path="url(#1623ad091e)"><path fill="#fafafa" d="M 289.609375 113.011719 L 179.28125 113.011719 C 178.917969 113.011719 178.5625 113.046875 178.207031 113.117188 C 177.851562 113.1875 177.503906 113.292969 177.171875 113.429688 C 176.835938 113.570312 176.519531 113.738281 176.21875 113.941406 C 175.914062 114.140625 175.636719 114.371094 175.382812 114.625 C 175.125 114.882812 174.894531 115.160156 174.695312 115.460938 C 174.492188 115.761719 174.324219 116.082031 174.183594 116.414062 C 174.046875 116.75 173.941406 117.09375 173.871094 117.449219 C 173.800781 117.804688 173.765625 118.164062 173.765625 118.527344 L 173.765625 195.753906 C 173.765625 196.117188 173.800781 196.476562 173.871094 196.832031 C 173.941406 197.1875 174.046875 197.53125 174.183594 197.867188 C 174.324219 198.199219 174.492188 198.519531 174.695312 198.820312 C 174.894531 199.121094 175.125 199.398438 175.382812 199.65625 C 175.636719 199.910156 175.914062 200.140625 176.21875 200.34375 C 176.519531 200.542969 176.835938 200.714844 177.171875 200.851562 C 177.503906 200.992188 177.851562 201.09375 178.207031 201.164062 C 178.5625 201.234375 178.917969 201.273438 179.28125 201.273438 L 289.609375 201.273438 C 289.972656 201.273438 290.328125 201.234375 290.683594 201.164062 C 291.039062 201.09375 291.386719 200.992188 291.71875 200.851562 C 292.054688 200.714844 292.371094 200.542969 292.671875 200.34375 C 292.976562 200.140625 293.253906 199.910156 293.507812 199.65625 C 293.765625 199.398438 293.996094 199.121094 294.195312 198.820312 C 294.398438 198.519531 294.566406 198.199219 294.707031 197.867188 C 294.84375 197.53125 294.949219 197.1875 295.019531 196.832031 C 295.089844 196.476562 295.125 196.117188 295.125 195.753906 L 295.125 118.527344 C 295.125 118.164062 295.089844 117.804688 295.019531 117.449219 C 294.949219 117.09375 294.84375 116.75 294.707031 116.414062 C 294.566406 116.082031 294.398438 115.761719 294.195312 115.460938 C 293.996094 115.160156 293.765625 114.882812 293.507812 114.625 C 293.253906 114.371094 292.976562 114.140625 292.671875 113.941406 C 292.371094 113.738281 292.054688 113.570312 291.71875 113.429688 C 291.386719 113.292969 291.039062 113.1875 290.683594 113.117188 C 290.328125 113.046875 289.972656 113.011719 289.609375 113.011719 Z M 179.28125 118.527344 L 289.609375 118.527344 L 289.609375 129.558594 L 179.28125 129.558594 Z M 179.28125 195.753906 L 179.28125 135.074219 L 289.609375 135.074219 L 289.609375 195.753906 Z M 179.28125 195.753906 " fill-opacity="1" fill-rule="nonzero"/></g><path fill="#fafafa" d="M 184.796875 121.285156 C 184.433594 121.285156 184.082031 121.355469 183.742188 121.496094 C 183.40625 121.632812 183.105469 121.832031 182.847656 122.09375 C 182.589844 122.351562 182.390625 122.648438 182.25 122.988281 C 182.109375 123.324219 182.039062 123.675781 182.039062 124.042969 C 182.039062 124.410156 182.109375 124.761719 182.25 125.097656 C 182.390625 125.4375 182.589844 125.734375 182.847656 125.992188 C 183.105469 126.25 183.40625 126.449219 183.742188 126.589844 C 184.082031 126.730469 184.433594 126.800781 184.796875 126.800781 C 185.164062 126.800781 185.515625 126.730469 185.855469 126.589844 C 186.191406 126.449219 186.488281 126.25 186.75 125.992188 C 187.007812 125.734375 187.207031 125.4375 187.347656 125.097656 C 187.484375 124.761719 187.554688 124.410156 187.554688 124.042969 C 187.554688 123.675781 187.484375 123.324219 187.347656 122.988281 C 187.207031 122.648438 187.007812 122.351562 186.75 122.09375 C 186.488281 121.832031 186.191406 121.632812 185.855469 121.496094 C 185.515625 121.355469 185.164062 121.285156 184.796875 121.285156 Z M 184.796875 121.285156 " fill-opacity="1" fill-rule="nonzero"/><path fill="#fafafa" d="M 193.074219 121.285156 C 192.707031 121.285156 192.355469 121.355469 192.015625 121.496094 C 191.679688 121.632812 191.382812 121.832031 191.121094 122.09375 C 190.863281 122.351562 190.664062 122.648438 190.523438 122.988281 C 190.382812 123.324219 190.3125 123.675781 190.3125 124.042969 C 190.3125 124.410156 190.382812 124.761719 190.523438 125.097656 C 190.664062 125.4375 190.863281 125.734375 191.121094 125.992188 C 191.382812 126.25 191.679688 126.449219 192.015625 126.589844 C 192.355469 126.730469 192.707031 126.800781 193.074219 126.800781 C 193.4375 126.800781 193.789062 126.730469 194.128906 126.589844 C 194.464844 126.449219 194.765625 126.25 195.023438 125.992188 C 195.28125 125.734375 195.480469 125.4375 195.621094 125.097656 C 195.761719 124.761719 195.832031 124.410156 195.832031 124.042969 C 195.832031 123.675781 195.761719 123.324219 195.621094 122.988281 C 195.480469 122.648438 195.28125 122.351562 195.023438 122.09375 C 194.765625 121.832031 194.464844 121.632812 194.128906 121.496094 C 193.789062 121.355469 193.4375 121.285156 193.074219 121.285156 Z M 193.074219 121.285156 " fill-opacity="1" fill-rule="nonzero"/><path fill="#fafafa" d="M 201.347656 121.285156 C 200.980469 121.285156 200.628906 121.355469 200.292969 121.496094 C 199.953125 121.632812 199.65625 121.832031 199.398438 122.09375 C 199.136719 122.351562 198.9375 122.648438 198.800781 122.988281 C 198.660156 123.324219 198.589844 123.675781 198.589844 124.042969 C 198.589844 124.410156 198.660156 124.761719 198.800781 125.097656 C 198.9375 125.4375 199.136719 125.734375 199.398438 125.992188 C 199.65625 126.25 199.953125 126.449219 200.292969 126.589844 C 200.628906 126.730469 200.980469 126.800781 201.347656 126.800781 C 201.710938 126.800781 202.066406 126.730469 202.402344 126.589844 C 202.742188 126.449219 203.039062 126.25 203.296875 125.992188 C 203.554688 125.734375 203.753906 125.4375 203.894531 125.097656 C 204.035156 124.761719 204.105469 124.410156 204.105469 124.042969 C 204.105469 123.675781 204.035156 123.324219 203.894531 122.988281 C 203.753906 122.648438 203.554688 122.351562 203.296875 122.09375 C 203.039062 121.832031 202.742188 121.632812 202.402344 121.496094 C 202.066406 121.355469 201.710938 121.285156 201.347656 121.285156 Z M 201.347656 121.285156 " fill-opacity="1" fill-rule="nonzero"/><path fill="#fafafa" d="M 216.792969 163.207031 L 194.726562 146.660156 C 194.433594 146.441406 194.113281 146.285156 193.757812 146.195312 C 193.402344 146.105469 193.042969 146.085938 192.683594 146.136719 C 192.320312 146.1875 191.980469 146.304688 191.667969 146.492188 C 191.351562 146.679688 191.085938 146.917969 190.867188 147.210938 C 190.648438 147.503906 190.492188 147.828125 190.402344 148.183594 C 190.308594 148.535156 190.289062 148.894531 190.34375 149.257812 C 190.394531 149.617188 190.511719 149.957031 190.699219 150.273438 C 190.886719 150.585938 191.125 150.851562 191.417969 151.074219 L 210.53125 165.414062 L 191.417969 179.757812 C 191.125 179.976562 190.886719 180.246094 190.699219 180.558594 C 190.511719 180.875 190.394531 181.210938 190.34375 181.574219 C 190.289062 181.9375 190.308594 182.292969 190.402344 182.648438 C 190.492188 183.003906 190.648438 183.328125 190.867188 183.621094 C 191.125 183.964844 191.449219 184.238281 191.839844 184.429688 C 192.226562 184.625 192.636719 184.722656 193.074219 184.722656 C 193.683594 184.722656 194.238281 184.539062 194.726562 184.171875 L 216.792969 167.621094 C 216.964844 167.492188 217.117188 167.347656 217.253906 167.183594 C 217.394531 167.019531 217.507812 166.839844 217.605469 166.648438 C 217.699219 166.457031 217.773438 166.257812 217.824219 166.050781 C 217.871094 165.839844 217.894531 165.628906 217.894531 165.414062 C 217.894531 165.203125 217.871094 164.988281 217.824219 164.78125 C 217.773438 164.574219 217.699219 164.375 217.605469 164.183594 C 217.507812 163.992188 217.394531 163.8125 217.253906 163.648438 C 217.117188 163.484375 216.964844 163.335938 216.792969 163.207031 Z M 216.792969 163.207031 " fill-opacity="1" fill-rule="nonzero"/><path fill="#fafafa" d="M 275.816406 179.207031 L 220.65625 179.207031 C 220.289062 179.207031 219.9375 179.277344 219.597656 179.417969 C 219.261719 179.554688 218.960938 179.753906 218.703125 180.015625 C 218.445312 180.273438 218.246094 180.570312 218.105469 180.910156 C 217.964844 181.246094 217.894531 181.597656 217.894531 181.964844 C 217.894531 182.332031 217.964844 182.683594 218.105469 183.019531 C 218.246094 183.359375 218.445312 183.65625 218.703125 183.914062 C 218.960938 184.171875 219.261719 184.371094 219.597656 184.511719 C 219.9375 184.652344 220.289062 184.722656 220.65625 184.722656 L 275.816406 184.722656 C 276.183594 184.722656 276.535156 184.652344 276.875 184.511719 C 277.210938 184.371094 277.507812 184.171875 277.769531 183.914062 C 278.027344 183.65625 278.226562 183.359375 278.367188 183.019531 C 278.507812 182.683594 278.578125 182.332031 278.578125 181.964844 C 278.578125 181.597656 278.507812 181.246094 278.367188 180.910156 C 278.226562 180.570312 278.027344 180.273438 277.769531 180.015625 C 277.507812 179.753906 277.210938 179.554688 276.875 179.417969 C 276.535156 179.277344 276.183594 179.207031 275.816406 179.207031 Z M 275.816406 179.207031 " fill-opacity="1" fill-rule="nonzero"/></svg>