<svg xmlns="http://www.w3.org/2000/svg" xmlns:xlink="http://www.w3.org/1999/xlink" width="611" zoomAndPan="magnify" viewBox="0 0 458.25 305.999988" height="408" preserveAspectRatio="xMidYMid meet" version="1.0"><defs><filter x="0%" y="0%" width="100%" height="100%" id="7ad5ac81df"><feColorMatrix values="0 0 0 0 1 0 0 0 0 1 0 0 0 0 1 0 0 0 1 0" color-interpolation-filters="sRGB"/></filter><mask id="087f7af5eb"><g filter="url(#7ad5ac81df)"><rect x="-45.825" width="549.9" fill="#000000" y="-30.599999" height="367.199986" fill-opacity="0.64"/></g></mask><clipPath id="b46fbdc3cd"><path d="M 0.40625 0.65625 L 224.726562 0.65625 L 224.726562 224.972656 L 0.40625 224.972656 Z M 0.40625 0.65625 " clip-rule="nonzero"/></clipPath><clipPath id="a07cf85218"><path d="M 112.566406 0.65625 C 50.621094 0.65625 0.40625 50.871094 0.40625 112.816406 C 0.40625 174.757812 50.621094 224.972656 112.566406 224.972656 C 174.511719 224.972656 224.726562 174.757812 224.726562 112.816406 C 224.726562 50.871094 174.511719 0.65625 112.566406 0.65625 Z M 112.566406 0.65625 " clip-rule="nonzero"/></clipPath><radialGradient gradientTransform="matrix(1, 0, 0, 1, 0.407813, 0.657198)" gradientUnits="userSpaceOnUse" r="158.615876" cx="112.15857" id="ee2d0f6583" cy="112.15857" fx="112.15857" fy="112.15857"><stop stop-opacity="1" stop-color="rgb(0.1297%, 0.1297%, 0.1297%)" offset="0"/><stop stop-opacity="1" stop-color="rgb(0.454712%, 0.454712%, 0.454712%)" offset="0.0078125"/><stop stop-opacity="1" stop-color="rgb(0.843811%, 0.843811%, 0.843811%)" offset="0.0195312"/><stop stop-opacity="1" stop-color="rgb(1.234436%, 1.234436%, 1.234436%)" offset="0.03125"/><stop stop-opacity="1" stop-color="rgb(1.625061%, 1.625061%, 1.625061%)" offset="0.0429688"/><stop stop-opacity="1" stop-color="rgb(2.015686%, 2.015686%, 2.015686%)" offset="0.0546875"/><stop stop-opacity="1" stop-color="rgb(2.404785%, 2.404785%, 2.404785%)" offset="0.0664062"/><stop stop-opacity="1" stop-color="rgb(2.79541%, 2.79541%, 2.79541%)" offset="0.078125"/><stop stop-opacity="1" stop-color="rgb(3.186035%, 3.186035%, 3.186035%)" offset="0.0898438"/><stop stop-opacity="1" stop-color="rgb(3.57666%, 3.57666%, 3.57666%)" offset="0.101562"/><stop stop-opacity="1" stop-color="rgb(3.965759%, 3.965759%, 3.965759%)" offset="0.113281"/><stop stop-opacity="1" stop-color="rgb(4.356384%, 4.356384%, 4.356384%)" offset="0.125"/><stop stop-opacity="1" stop-color="rgb(4.747009%, 4.747009%, 4.747009%)" offset="0.136719"/><stop stop-opacity="1" stop-color="rgb(5.137634%, 5.137634%, 5.137634%)" offset="0.148438"/><stop stop-opacity="1" stop-color="rgb(5.526733%, 5.526733%, 5.526733%)" offset="0.160156"/><stop stop-opacity="1" stop-color="rgb(5.917358%, 5.917358%, 5.917358%)" offset="0.171875"/><stop stop-opacity="1" stop-color="rgb(6.307983%, 6.307983%, 6.307983%)" offset="0.183594"/><stop stop-opacity="1" stop-color="rgb(6.698608%, 6.698608%, 6.698608%)" offset="0.195312"/><stop stop-opacity="1" stop-color="rgb(7.087708%, 7.087708%, 7.087708%)" offset="0.207031"/><stop stop-opacity="1" stop-color="rgb(7.478333%, 7.478333%, 7.478333%)" offset="0.21875"/><stop stop-opacity="1" stop-color="rgb(7.868958%, 7.868958%, 7.868958%)" offset="0.230469"/><stop stop-opacity="1" stop-color="rgb(8.259583%, 8.259583%, 8.259583%)" offset="0.242188"/><stop stop-opacity="1" stop-color="rgb(8.584595%, 8.584595%, 8.584595%)" offset="0.253906"/><stop stop-opacity="1" stop-color="rgb(8.843994%, 8.843994%, 8.843994%)" offset="0.261719"/><stop stop-opacity="1" stop-color="rgb(9.104919%, 9.104919%, 9.104919%)" offset="0.269531"/><stop stop-opacity="1" stop-color="rgb(9.364319%, 9.364319%, 9.364319%)" offset="0.277344"/><stop stop-opacity="1" stop-color="rgb(9.625244%, 9.625244%, 9.625244%)" offset="0.285156"/><stop stop-opacity="1" stop-color="rgb(9.884644%, 9.884644%, 9.884644%)" offset="0.292969"/><stop stop-opacity="1" stop-color="rgb(10.145569%, 10.145569%, 10.145569%)" offset="0.300781"/><stop stop-opacity="1" stop-color="rgb(10.404968%, 10.404968%, 10.404968%)" offset="0.308594"/><stop stop-opacity="1" stop-color="rgb(10.665894%, 10.665894%, 10.665894%)" offset="0.316406"/><stop stop-opacity="1" stop-color="rgb(10.925293%, 10.925293%, 10.925293%)" offset="0.324219"/><stop stop-opacity="1" stop-color="rgb(11.186218%, 11.186218%, 11.186218%)" offset="0.332031"/><stop stop-opacity="1" stop-color="rgb(11.445618%, 11.445618%, 11.445618%)" offset="0.339844"/><stop stop-opacity="1" stop-color="rgb(11.706543%, 11.706543%, 11.706543%)" offset="0.347656"/><stop stop-opacity="1" stop-color="rgb(11.965942%, 11.965942%, 11.965942%)" offset="0.355469"/><stop stop-opacity="1" stop-color="rgb(12.226868%, 12.226868%, 12.226868%)" offset="0.363281"/><stop stop-opacity="1" stop-color="rgb(12.486267%, 12.486267%, 12.486267%)" offset="0.371094"/><stop stop-opacity="1" stop-color="rgb(12.747192%, 12.747192%, 12.747192%)" offset="0.378906"/><stop stop-opacity="1" stop-color="rgb(13.006592%, 13.006592%, 13.006592%)" offset="0.386719"/><stop stop-opacity="1" stop-color="rgb(13.267517%, 13.267517%, 13.267517%)" offset="0.394531"/><stop stop-opacity="1" stop-color="rgb(13.526917%, 13.526917%, 13.526917%)" offset="0.402344"/><stop stop-opacity="1" stop-color="rgb(13.787842%, 13.787842%, 13.787842%)" offset="0.410156"/><stop stop-opacity="1" stop-color="rgb(14.047241%, 14.047241%, 14.047241%)" offset="0.417969"/><stop stop-opacity="1" stop-color="rgb(14.308167%, 14.308167%, 14.308167%)" offset="0.425781"/><stop stop-opacity="1" stop-color="rgb(14.567566%, 14.567566%, 14.567566%)" offset="0.433594"/><stop stop-opacity="1" stop-color="rgb(14.828491%, 14.828491%, 14.828491%)" offset="0.441406"/><stop stop-opacity="1" stop-color="rgb(15.087891%, 15.087891%, 15.087891%)" offset="0.449219"/><stop stop-opacity="1" stop-color="rgb(15.348816%, 15.348816%, 15.348816%)" offset="0.457031"/><stop stop-opacity="1" stop-color="rgb(15.608215%, 15.608215%, 15.608215%)" offset="0.464844"/><stop stop-opacity="1" stop-color="rgb(15.869141%, 15.869141%, 15.869141%)" offset="0.472656"/><stop stop-opacity="1" stop-color="rgb(16.12854%, 16.12854%, 16.12854%)" offset="0.480469"/><stop stop-opacity="1" stop-color="rgb(16.389465%, 16.389465%, 16.389465%)" offset="0.488281"/><stop stop-opacity="1" stop-color="rgb(16.648865%, 16.648865%, 16.648865%)" offset="0.496094"/><stop stop-opacity="1" stop-color="rgb(16.973877%, 16.973877%, 16.973877%)" offset="0.503906"/><stop stop-opacity="1" stop-color="rgb(17.364502%, 17.364502%, 17.364502%)" offset="0.515625"/><stop stop-opacity="1" stop-color="rgb(17.755127%, 17.755127%, 17.755127%)" offset="0.527344"/><stop stop-opacity="1" stop-color="rgb(18.144226%, 18.144226%, 18.144226%)" offset="0.539062"/><stop stop-opacity="1" stop-color="rgb(18.534851%, 18.534851%, 18.534851%)" offset="0.550781"/><stop stop-opacity="1" stop-color="rgb(18.925476%, 18.925476%, 18.925476%)" offset="0.5625"/><stop stop-opacity="1" stop-color="rgb(19.316101%, 19.316101%, 19.316101%)" offset="0.574219"/><stop stop-opacity="1" stop-color="rgb(19.7052%, 19.7052%, 19.7052%)" offset="0.585938"/><stop stop-opacity="1" stop-color="rgb(20.095825%, 20.095825%, 20.095825%)" offset="0.597656"/><stop stop-opacity="1" stop-color="rgb(20.48645%, 20.48645%, 20.48645%)" offset="0.609375"/><stop stop-opacity="1" stop-color="rgb(20.877075%, 20.877075%, 20.877075%)" offset="0.621094"/><stop stop-opacity="1" stop-color="rgb(21.202087%, 21.202087%, 21.202087%)" offset="0.632812"/><stop stop-opacity="1" stop-color="rgb(21.461487%, 21.461487%, 21.461487%)" offset="0.640625"/><stop stop-opacity="1" stop-color="rgb(21.722412%, 21.722412%, 21.722412%)" offset="0.648438"/><stop stop-opacity="1" stop-color="rgb(21.981812%, 21.981812%, 21.981812%)" offset="0.65625"/><stop stop-opacity="1" stop-color="rgb(22.242737%, 22.242737%, 22.242737%)" offset="0.664062"/><stop stop-opacity="1" stop-color="rgb(22.502136%, 22.502136%, 22.502136%)" offset="0.671875"/><stop stop-opacity="1" stop-color="rgb(22.763062%, 22.763062%, 22.763062%)" offset="0.679688"/><stop stop-opacity="1" stop-color="rgb(23.022461%, 23.022461%, 23.022461%)" offset="0.6875"/><stop stop-opacity="1" stop-color="rgb(23.283386%, 23.283386%, 23.283386%)" offset="0.695312"/><stop stop-opacity="1" stop-color="rgb(23.542786%, 23.542786%, 23.542786%)" offset="0.703125"/><stop stop-opacity="1" stop-color="rgb(23.803711%, 23.803711%, 23.803711%)" offset="0.710938"/><stop stop-opacity="1" stop-color="rgb(24.06311%, 24.06311%, 24.06311%)" offset="0.71875"/><stop stop-opacity="1" stop-color="rgb(24.324036%, 24.324036%, 24.324036%)" offset="0.726562"/><stop stop-opacity="1" stop-color="rgb(24.583435%, 24.583435%, 24.583435%)" offset="0.734375"/><stop stop-opacity="1" stop-color="rgb(24.84436%, 24.84436%, 24.84436%)" offset="0.742188"/><stop stop-opacity="1" stop-color="rgb(25.10376%, 25.10376%, 25.10376%)" offset="0.75"/><stop stop-opacity="1" stop-color="rgb(25.428772%, 25.428772%, 25.428772%)" offset="0.757812"/><stop stop-opacity="1" stop-color="rgb(25.819397%, 25.819397%, 25.819397%)" offset="0.769531"/><stop stop-opacity="1" stop-color="rgb(26.210022%, 26.210022%, 26.210022%)" offset="0.78125"/><stop stop-opacity="1" stop-color="rgb(26.600647%, 26.600647%, 26.600647%)" offset="0.792969"/><stop stop-opacity="1" stop-color="rgb(26.989746%, 26.989746%, 26.989746%)" offset="0.804688"/><stop stop-opacity="1" stop-color="rgb(27.314758%, 27.314758%, 27.314758%)" offset="0.816406"/><stop stop-opacity="1" stop-color="rgb(27.575684%, 27.575684%, 27.575684%)" offset="0.824219"/><stop stop-opacity="1" stop-color="rgb(27.835083%, 27.835083%, 27.835083%)" offset="0.832031"/><stop stop-opacity="1" stop-color="rgb(28.096008%, 28.096008%, 28.096008%)" offset="0.839844"/><stop stop-opacity="1" stop-color="rgb(28.355408%, 28.355408%, 28.355408%)" offset="0.847656"/><stop stop-opacity="1" stop-color="rgb(28.616333%, 28.616333%, 28.616333%)" offset="0.855469"/><stop stop-opacity="1" stop-color="rgb(28.875732%, 28.875732%, 28.875732%)" offset="0.863281"/><stop stop-opacity="1" stop-color="rgb(29.136658%, 29.136658%, 29.136658%)" offset="0.871094"/><stop stop-opacity="1" stop-color="rgb(29.46167%, 29.46167%, 29.46167%)" offset="0.878906"/><stop stop-opacity="1" stop-color="rgb(29.852295%, 29.852295%, 29.852295%)" offset="0.890625"/><stop stop-opacity="1" stop-color="rgb(30.24292%, 30.24292%, 30.24292%)" offset="0.902344"/><stop stop-opacity="1" stop-color="rgb(30.567932%, 30.567932%, 30.567932%)" offset="0.914062"/><stop stop-opacity="1" stop-color="rgb(30.827332%, 30.827332%, 30.827332%)" offset="0.921875"/><stop stop-opacity="1" stop-color="rgb(31.088257%, 31.088257%, 31.088257%)" offset="0.929688"/><stop stop-opacity="1" stop-color="rgb(31.347656%, 31.347656%, 31.347656%)" offset="0.9375"/><stop stop-opacity="1" stop-color="rgb(31.672668%, 31.672668%, 31.672668%)" offset="0.945312"/><stop stop-opacity="1" stop-color="rgb(31.997681%, 31.997681%, 31.997681%)" offset="0.957031"/><stop stop-opacity="1" stop-color="rgb(32.258606%, 32.258606%, 32.258606%)" offset="0.964844"/><stop stop-opacity="1" stop-color="rgb(32.583618%, 32.583618%, 32.583618%)" offset="0.972656"/><stop stop-opacity="1" stop-color="rgb(32.90863%, 32.90863%, 32.90863%)" offset="0.984375"/><stop stop-opacity="1" stop-color="rgb(33.16803%, 33.16803%, 33.16803%)" offset="0.992188"/><stop stop-opacity="1" stop-color="rgb(33.299255%, 33.299255%, 33.299255%)" offset="1"/></radialGradient><clipPath id="72a65a4311"><rect x="0" width="225" y="0" height="226"/></clipPath><clipPath id="8f4e00b9bf"><path d="M 165.417969 105.5 L 291.960938 105.5 L 291.960938 200.59375 L 165.417969 200.59375 Z M 165.417969 105.5 " clip-rule="nonzero"/></clipPath></defs><g mask="url(#087f7af5eb)"><g transform="matrix(1, 0, 0, 1, 115, 39)"><g clip-path="url(#72a65a4311)"><g clip-path="url(#b46fbdc3cd)"><g clip-path="url(#a07cf85218)"><path fill="url(#ee2d0f6583)" d="M 0.40625 0.65625 L 0.40625 224.972656 L 224.726562 224.972656 L 224.726562 0.65625 Z M 0.40625 0.65625 " fill-rule="nonzero"/></g></g></g></g></g><g clip-path="url(#8f4e00b9bf)"><path fill="#fafafa" d="M 284.035156 105.683594 L 173.109375 105.683594 C 172.601562 105.683594 172.101562 105.734375 171.605469 105.832031 C 171.109375 105.929688 170.628906 106.074219 170.164062 106.269531 C 169.695312 106.464844 169.25 106.699219 168.832031 106.980469 C 168.410156 107.261719 168.023438 107.582031 167.664062 107.9375 C 167.308594 108.296875 166.988281 108.6875 166.710938 109.105469 C 166.429688 109.527344 166.191406 109.96875 166 110.4375 C 165.804688 110.90625 165.660156 111.386719 165.5625 111.882812 C 165.464844 112.378906 165.417969 112.878906 165.417969 113.382812 L 165.417969 192.449219 C 165.417969 192.953125 165.464844 193.457031 165.5625 193.953125 C 165.660156 194.449219 165.808594 194.929688 166 195.398438 C 166.195312 195.863281 166.429688 196.308594 166.710938 196.730469 C 166.992188 197.152344 167.3125 197.539062 167.667969 197.898438 C 168.027344 198.253906 168.417969 198.574219 168.835938 198.855469 C 169.257812 199.136719 169.703125 199.375 170.167969 199.566406 C 170.636719 199.761719 171.117188 199.90625 171.613281 200.003906 C 172.109375 200.101562 172.613281 200.152344 173.117188 200.148438 L 284.046875 200.148438 C 284.550781 200.152344 285.050781 200.101562 285.546875 200.003906 C 286.042969 199.90625 286.527344 199.761719 286.992188 199.566406 C 287.460938 199.375 287.90625 199.136719 288.328125 198.855469 C 288.746094 198.574219 289.136719 198.253906 289.492188 197.898438 C 289.851562 197.539062 290.171875 197.152344 290.453125 196.730469 C 290.734375 196.308594 290.96875 195.863281 291.164062 195.398438 C 291.355469 194.929688 291.5 194.449219 291.601562 193.953125 C 291.699219 193.457031 291.746094 192.953125 291.746094 192.449219 L 291.746094 113.382812 C 291.746094 112.878906 291.699219 112.375 291.601562 111.878906 C 291.5 111.382812 291.355469 110.902344 291.160156 110.433594 C 290.96875 109.964844 290.730469 109.519531 290.449219 109.101562 C 290.167969 108.679688 289.847656 108.289062 289.488281 107.933594 C 289.132812 107.574219 288.742188 107.253906 288.320312 106.972656 C 287.898438 106.695312 287.453125 106.457031 286.988281 106.261719 C 286.519531 106.070312 286.035156 105.925781 285.539062 105.828125 C 285.042969 105.730469 284.542969 105.683594 284.035156 105.683594 Z M 283.089844 191.5 L 174.09375 191.5 L 174.09375 114.332031 L 283.089844 114.332031 Z M 283.089844 191.5 " fill-opacity="1" fill-rule="nonzero"/></g><path fill="#fafafa" d="M 186.277344 171.25 C 186.457031 171.472656 186.660156 171.675781 186.878906 171.855469 C 187.097656 172.039062 187.332031 172.199219 187.585938 172.332031 C 187.835938 172.46875 188.097656 172.578125 188.371094 172.660156 C 188.644531 172.746094 188.921875 172.800781 189.207031 172.828125 C 189.492188 172.855469 189.773438 172.859375 190.058594 172.828125 C 190.34375 172.800781 190.621094 172.746094 190.894531 172.664062 C 191.167969 172.582031 191.429688 172.472656 191.683594 172.335938 C 191.933594 172.203125 192.167969 172.042969 192.390625 171.863281 L 211.40625 156.269531 C 211.601562 156.101562 211.78125 155.921875 211.949219 155.726562 L 212.019531 155.65625 C 212.203125 155.433594 212.363281 155.199219 212.496094 154.945312 C 212.558594 154.820312 212.597656 154.699219 212.652344 154.578125 C 212.710938 154.441406 212.765625 154.300781 212.8125 154.160156 C 212.855469 154.003906 212.886719 153.847656 212.90625 153.691406 C 212.90625 153.578125 212.964844 153.457031 212.976562 153.34375 C 212.988281 153.230469 212.976562 153.070312 212.976562 152.925781 C 212.976562 152.785156 212.976562 152.652344 212.976562 152.507812 C 212.976562 152.367188 212.976562 152.273438 212.90625 152.152344 C 212.886719 151.996094 212.855469 151.84375 212.8125 151.695312 C 212.757812 151.519531 212.6875 151.351562 212.609375 151.183594 C 212.609375 151.09375 212.546875 151 212.496094 150.910156 C 212.359375 150.652344 212.199219 150.414062 212.019531 150.1875 C 211.941406 150.101562 211.859375 150.023438 211.773438 149.953125 C 211.664062 149.8125 211.542969 149.6875 211.40625 149.574219 L 192.371094 133.992188 C 192.148438 133.808594 191.914062 133.648438 191.664062 133.507812 C 191.410156 133.371094 191.148438 133.261719 190.875 133.175781 C 190.601562 133.089844 190.324219 133.035156 190.039062 133.003906 C 189.753906 132.976562 189.46875 132.972656 189.183594 133 C 188.898438 133.027344 188.621094 133.082031 188.34375 133.164062 C 188.070312 133.246094 187.808594 133.355469 187.554688 133.492188 C 187.300781 133.625 187.066406 133.785156 186.84375 133.964844 C 186.621094 134.148438 186.421875 134.347656 186.242188 134.570312 C 186.058594 134.792969 185.902344 135.03125 185.765625 135.28125 C 185.632812 135.535156 185.523438 135.800781 185.441406 136.074219 C 185.363281 136.347656 185.308594 136.628906 185.28125 136.914062 C 185.253906 137.199219 185.257812 137.484375 185.285156 137.765625 C 185.316406 138.050781 185.375 138.332031 185.460938 138.605469 C 185.546875 138.878906 185.65625 139.140625 185.796875 139.390625 C 185.933594 139.640625 186.09375 139.878906 186.277344 140.097656 C 186.460938 140.316406 186.664062 140.515625 186.890625 140.691406 L 201.832031 152.917969 L 186.890625 165.140625 C 186.667969 165.320312 186.46875 165.519531 186.285156 165.742188 C 186.105469 165.960938 185.945312 166.195312 185.8125 166.449219 C 185.675781 166.699219 185.566406 166.960938 185.484375 167.234375 C 185.402344 167.507812 185.34375 167.785156 185.316406 168.070312 C 185.289062 168.351562 185.289062 168.636719 185.316406 168.921875 C 185.34375 169.203125 185.398438 169.484375 185.480469 169.757812 C 185.5625 170.027344 185.671875 170.292969 185.804688 170.542969 C 185.941406 170.796875 186.097656 171.03125 186.277344 171.25 Z M 186.277344 171.25 " fill-opacity="1" fill-rule="nonzero"/><path fill="#fafafa" d="M 222.511719 171.089844 L 243.28125 171.089844 C 243.574219 171.101562 243.863281 171.085938 244.152344 171.042969 C 244.445312 170.996094 244.726562 170.925781 245 170.820312 C 245.273438 170.71875 245.535156 170.589844 245.785156 170.433594 C 246.035156 170.28125 246.265625 170.101562 246.476562 169.898438 C 246.6875 169.695312 246.878906 169.476562 247.046875 169.234375 C 247.210938 168.996094 247.355469 168.738281 247.46875 168.46875 C 247.585938 168.199219 247.671875 167.921875 247.730469 167.636719 C 247.789062 167.347656 247.820312 167.058594 247.820312 166.765625 C 247.820312 166.472656 247.789062 166.179688 247.730469 165.894531 C 247.671875 165.605469 247.585938 165.328125 247.46875 165.058594 C 247.355469 164.789062 247.210938 164.535156 247.046875 164.292969 C 246.878906 164.054688 246.6875 163.832031 246.476562 163.628906 C 246.265625 163.429688 246.035156 163.25 245.785156 163.09375 C 245.535156 162.9375 245.273438 162.808594 245 162.707031 C 244.726562 162.605469 244.445312 162.53125 244.152344 162.488281 C 243.863281 162.441406 243.574219 162.425781 243.28125 162.441406 L 222.511719 162.441406 C 221.957031 162.46875 221.425781 162.597656 220.917969 162.828125 C 220.414062 163.058594 219.96875 163.375 219.585938 163.777344 C 219.203125 164.179688 218.90625 164.640625 218.703125 165.15625 C 218.496094 165.671875 218.390625 166.207031 218.390625 166.765625 C 218.390625 167.320312 218.496094 167.855469 218.703125 168.371094 C 218.90625 168.890625 219.203125 169.347656 219.585938 169.75 C 219.96875 170.152344 220.414062 170.46875 220.917969 170.703125 C 221.425781 170.933594 221.957031 171.0625 222.511719 171.089844 Z M 222.511719 171.089844 " fill-opacity="1" fill-rule="nonzero"/></svg>