<svg xmlns="http://www.w3.org/2000/svg" xmlns:xlink="http://www.w3.org/1999/xlink" width="611" zoomAndPan="magnify" viewBox="0 0 458.25 305.999988" height="408" preserveAspectRatio="xMidYMid meet" version="1.0"><defs><filter x="0%" y="0%" width="100%" height="100%" id="f18c1b2c5c"><feColorMatrix values="0 0 0 0 1 0 0 0 0 1 0 0 0 0 1 0 0 0 1 0" color-interpolation-filters="sRGB"/></filter><mask id="4eac4346f4"><g filter="url(#f18c1b2c5c)"><rect x="-45.825" width="549.9" fill="#000000" y="-30.599999" height="367.199986" fill-opacity="0.64"/></g></mask><clipPath id="79255e8534"><path d="M 0.40625 0.65625 L 224.726562 0.65625 L 224.726562 224.972656 L 0.40625 224.972656 Z M 0.40625 0.65625 " clip-rule="nonzero"/></clipPath><clipPath id="c35236e29d"><path d="M 112.566406 0.65625 C 50.621094 0.65625 0.40625 50.871094 0.40625 112.816406 C 0.40625 174.757812 50.621094 224.972656 112.566406 224.972656 C 174.511719 224.972656 224.726562 174.757812 224.726562 112.816406 C 224.726562 50.871094 174.511719 0.65625 112.566406 0.65625 Z M 112.566406 0.65625 " clip-rule="nonzero"/></clipPath><radialGradient gradientTransform="matrix(1, 0, 0, 1, 0.407813, 0.657176)" gradientUnits="userSpaceOnUse" r="158.615876" cx="112.15857" id="329573c2fe" cy="112.15857" fx="112.15857" fy="112.15857"><stop stop-opacity="1" stop-color="rgb(0.1297%, 0.1297%, 0.1297%)" offset="0"/><stop stop-opacity="1" stop-color="rgb(0.454712%, 0.454712%, 0.454712%)" offset="0.0078125"/><stop stop-opacity="1" stop-color="rgb(0.843811%, 0.843811%, 0.843811%)" offset="0.0195312"/><stop stop-opacity="1" stop-color="rgb(1.234436%, 1.234436%, 1.234436%)" offset="0.03125"/><stop stop-opacity="1" stop-color="rgb(1.625061%, 1.625061%, 1.625061%)" offset="0.0429688"/><stop stop-opacity="1" stop-color="rgb(2.015686%, 2.015686%, 2.015686%)" offset="0.0546875"/><stop stop-opacity="1" stop-color="rgb(2.404785%, 2.404785%, 2.404785%)" offset="0.0664062"/><stop stop-opacity="1" stop-color="rgb(2.79541%, 2.79541%, 2.79541%)" offset="0.078125"/><stop stop-opacity="1" stop-color="rgb(3.186035%, 3.186035%, 3.186035%)" offset="0.0898438"/><stop stop-opacity="1" stop-color="rgb(3.57666%, 3.57666%, 3.57666%)" offset="0.101562"/><stop stop-opacity="1" stop-color="rgb(3.965759%, 3.965759%, 3.965759%)" offset="0.113281"/><stop stop-opacity="1" stop-color="rgb(4.356384%, 4.356384%, 4.356384%)" offset="0.125"/><stop stop-opacity="1" stop-color="rgb(4.747009%, 4.747009%, 4.747009%)" offset="0.136719"/><stop stop-opacity="1" stop-color="rgb(5.137634%, 5.137634%, 5.137634%)" offset="0.148438"/><stop stop-opacity="1" stop-color="rgb(5.526733%, 5.526733%, 5.526733%)" offset="0.160156"/><stop stop-opacity="1" stop-color="rgb(5.917358%, 5.917358%, 5.917358%)" offset="0.171875"/><stop stop-opacity="1" stop-color="rgb(6.307983%, 6.307983%, 6.307983%)" offset="0.183594"/><stop stop-opacity="1" stop-color="rgb(6.698608%, 6.698608%, 6.698608%)" offset="0.195312"/><stop stop-opacity="1" stop-color="rgb(7.087708%, 7.087708%, 7.087708%)" offset="0.207031"/><stop stop-opacity="1" stop-color="rgb(7.478333%, 7.478333%, 7.478333%)" offset="0.21875"/><stop stop-opacity="1" stop-color="rgb(7.868958%, 7.868958%, 7.868958%)" offset="0.230469"/><stop stop-opacity="1" stop-color="rgb(8.259583%, 8.259583%, 8.259583%)" offset="0.242188"/><stop stop-opacity="1" stop-color="rgb(8.584595%, 8.584595%, 8.584595%)" offset="0.253906"/><stop stop-opacity="1" stop-color="rgb(8.843994%, 8.843994%, 8.843994%)" offset="0.261719"/><stop stop-opacity="1" stop-color="rgb(9.104919%, 9.104919%, 9.104919%)" offset="0.269531"/><stop stop-opacity="1" stop-color="rgb(9.364319%, 9.364319%, 9.364319%)" offset="0.277344"/><stop stop-opacity="1" stop-color="rgb(9.625244%, 9.625244%, 9.625244%)" offset="0.285156"/><stop stop-opacity="1" stop-color="rgb(9.884644%, 9.884644%, 9.884644%)" offset="0.292969"/><stop stop-opacity="1" stop-color="rgb(10.145569%, 10.145569%, 10.145569%)" offset="0.300781"/><stop stop-opacity="1" stop-color="rgb(10.404968%, 10.404968%, 10.404968%)" offset="0.308594"/><stop stop-opacity="1" stop-color="rgb(10.665894%, 10.665894%, 10.665894%)" offset="0.316406"/><stop stop-opacity="1" stop-color="rgb(10.925293%, 10.925293%, 10.925293%)" offset="0.324219"/><stop stop-opacity="1" stop-color="rgb(11.186218%, 11.186218%, 11.186218%)" offset="0.332031"/><stop stop-opacity="1" stop-color="rgb(11.445618%, 11.445618%, 11.445618%)" offset="0.339844"/><stop stop-opacity="1" stop-color="rgb(11.706543%, 11.706543%, 11.706543%)" offset="0.347656"/><stop stop-opacity="1" stop-color="rgb(11.965942%, 11.965942%, 11.965942%)" offset="0.355469"/><stop stop-opacity="1" stop-color="rgb(12.226868%, 12.226868%, 12.226868%)" offset="0.363281"/><stop stop-opacity="1" stop-color="rgb(12.486267%, 12.486267%, 12.486267%)" offset="0.371094"/><stop stop-opacity="1" stop-color="rgb(12.747192%, 12.747192%, 12.747192%)" offset="0.378906"/><stop stop-opacity="1" stop-color="rgb(13.006592%, 13.006592%, 13.006592%)" offset="0.386719"/><stop stop-opacity="1" stop-color="rgb(13.267517%, 13.267517%, 13.267517%)" offset="0.394531"/><stop stop-opacity="1" stop-color="rgb(13.526917%, 13.526917%, 13.526917%)" offset="0.402344"/><stop stop-opacity="1" stop-color="rgb(13.787842%, 13.787842%, 13.787842%)" offset="0.410156"/><stop stop-opacity="1" stop-color="rgb(14.047241%, 14.047241%, 14.047241%)" offset="0.417969"/><stop stop-opacity="1" stop-color="rgb(14.308167%, 14.308167%, 14.308167%)" offset="0.425781"/><stop stop-opacity="1" stop-color="rgb(14.567566%, 14.567566%, 14.567566%)" offset="0.433594"/><stop stop-opacity="1" stop-color="rgb(14.828491%, 14.828491%, 14.828491%)" offset="0.441406"/><stop stop-opacity="1" stop-color="rgb(15.087891%, 15.087891%, 15.087891%)" offset="0.449219"/><stop stop-opacity="1" stop-color="rgb(15.348816%, 15.348816%, 15.348816%)" offset="0.457031"/><stop stop-opacity="1" stop-color="rgb(15.608215%, 15.608215%, 15.608215%)" offset="0.464844"/><stop stop-opacity="1" stop-color="rgb(15.869141%, 15.869141%, 15.869141%)" offset="0.472656"/><stop stop-opacity="1" stop-color="rgb(16.12854%, 16.12854%, 16.12854%)" offset="0.480469"/><stop stop-opacity="1" stop-color="rgb(16.389465%, 16.389465%, 16.389465%)" offset="0.488281"/><stop stop-opacity="1" stop-color="rgb(16.648865%, 16.648865%, 16.648865%)" offset="0.496094"/><stop stop-opacity="1" stop-color="rgb(16.973877%, 16.973877%, 16.973877%)" offset="0.503906"/><stop stop-opacity="1" stop-color="rgb(17.364502%, 17.364502%, 17.364502%)" offset="0.515625"/><stop stop-opacity="1" stop-color="rgb(17.755127%, 17.755127%, 17.755127%)" offset="0.527344"/><stop stop-opacity="1" stop-color="rgb(18.144226%, 18.144226%, 18.144226%)" offset="0.539062"/><stop stop-opacity="1" stop-color="rgb(18.534851%, 18.534851%, 18.534851%)" offset="0.550781"/><stop stop-opacity="1" stop-color="rgb(18.925476%, 18.925476%, 18.925476%)" offset="0.5625"/><stop stop-opacity="1" stop-color="rgb(19.316101%, 19.316101%, 19.316101%)" offset="0.574219"/><stop stop-opacity="1" stop-color="rgb(19.7052%, 19.7052%, 19.7052%)" offset="0.585938"/><stop stop-opacity="1" stop-color="rgb(20.095825%, 20.095825%, 20.095825%)" offset="0.597656"/><stop stop-opacity="1" stop-color="rgb(20.48645%, 20.48645%, 20.48645%)" offset="0.609375"/><stop stop-opacity="1" stop-color="rgb(20.877075%, 20.877075%, 20.877075%)" offset="0.621094"/><stop stop-opacity="1" stop-color="rgb(21.202087%, 21.202087%, 21.202087%)" offset="0.632812"/><stop stop-opacity="1" stop-color="rgb(21.461487%, 21.461487%, 21.461487%)" offset="0.640625"/><stop stop-opacity="1" stop-color="rgb(21.722412%, 21.722412%, 21.722412%)" offset="0.648438"/><stop stop-opacity="1" stop-color="rgb(21.981812%, 21.981812%, 21.981812%)" offset="0.65625"/><stop stop-opacity="1" stop-color="rgb(22.242737%, 22.242737%, 22.242737%)" offset="0.664062"/><stop stop-opacity="1" stop-color="rgb(22.502136%, 22.502136%, 22.502136%)" offset="0.671875"/><stop stop-opacity="1" stop-color="rgb(22.763062%, 22.763062%, 22.763062%)" offset="0.679688"/><stop stop-opacity="1" stop-color="rgb(23.022461%, 23.022461%, 23.022461%)" offset="0.6875"/><stop stop-opacity="1" stop-color="rgb(23.283386%, 23.283386%, 23.283386%)" offset="0.695312"/><stop stop-opacity="1" stop-color="rgb(23.542786%, 23.542786%, 23.542786%)" offset="0.703125"/><stop stop-opacity="1" stop-color="rgb(23.803711%, 23.803711%, 23.803711%)" offset="0.710938"/><stop stop-opacity="1" stop-color="rgb(24.06311%, 24.06311%, 24.06311%)" offset="0.71875"/><stop stop-opacity="1" stop-color="rgb(24.324036%, 24.324036%, 24.324036%)" offset="0.726562"/><stop stop-opacity="1" stop-color="rgb(24.583435%, 24.583435%, 24.583435%)" offset="0.734375"/><stop stop-opacity="1" stop-color="rgb(24.84436%, 24.84436%, 24.84436%)" offset="0.742188"/><stop stop-opacity="1" stop-color="rgb(25.10376%, 25.10376%, 25.10376%)" offset="0.75"/><stop stop-opacity="1" stop-color="rgb(25.428772%, 25.428772%, 25.428772%)" offset="0.757812"/><stop stop-opacity="1" stop-color="rgb(25.819397%, 25.819397%, 25.819397%)" offset="0.769531"/><stop stop-opacity="1" stop-color="rgb(26.210022%, 26.210022%, 26.210022%)" offset="0.78125"/><stop stop-opacity="1" stop-color="rgb(26.600647%, 26.600647%, 26.600647%)" offset="0.792969"/><stop stop-opacity="1" stop-color="rgb(26.989746%, 26.989746%, 26.989746%)" offset="0.804688"/><stop stop-opacity="1" stop-color="rgb(27.314758%, 27.314758%, 27.314758%)" offset="0.816406"/><stop stop-opacity="1" stop-color="rgb(27.575684%, 27.575684%, 27.575684%)" offset="0.824219"/><stop stop-opacity="1" stop-color="rgb(27.835083%, 27.835083%, 27.835083%)" offset="0.832031"/><stop stop-opacity="1" stop-color="rgb(28.096008%, 28.096008%, 28.096008%)" offset="0.839844"/><stop stop-opacity="1" stop-color="rgb(28.355408%, 28.355408%, 28.355408%)" offset="0.847656"/><stop stop-opacity="1" stop-color="rgb(28.616333%, 28.616333%, 28.616333%)" offset="0.855469"/><stop stop-opacity="1" stop-color="rgb(28.875732%, 28.875732%, 28.875732%)" offset="0.863281"/><stop stop-opacity="1" stop-color="rgb(29.136658%, 29.136658%, 29.136658%)" offset="0.871094"/><stop stop-opacity="1" stop-color="rgb(29.46167%, 29.46167%, 29.46167%)" offset="0.878906"/><stop stop-opacity="1" stop-color="rgb(29.852295%, 29.852295%, 29.852295%)" offset="0.890625"/><stop stop-opacity="1" stop-color="rgb(30.24292%, 30.24292%, 30.24292%)" offset="0.902344"/><stop stop-opacity="1" stop-color="rgb(30.567932%, 30.567932%, 30.567932%)" offset="0.914062"/><stop stop-opacity="1" stop-color="rgb(30.827332%, 30.827332%, 30.827332%)" offset="0.921875"/><stop stop-opacity="1" stop-color="rgb(31.088257%, 31.088257%, 31.088257%)" offset="0.929688"/><stop stop-opacity="1" stop-color="rgb(31.347656%, 31.347656%, 31.347656%)" offset="0.9375"/><stop stop-opacity="1" stop-color="rgb(31.672668%, 31.672668%, 31.672668%)" offset="0.945312"/><stop stop-opacity="1" stop-color="rgb(31.997681%, 31.997681%, 31.997681%)" offset="0.957031"/><stop stop-opacity="1" stop-color="rgb(32.258606%, 32.258606%, 32.258606%)" offset="0.964844"/><stop stop-opacity="1" stop-color="rgb(32.583618%, 32.583618%, 32.583618%)" offset="0.972656"/><stop stop-opacity="1" stop-color="rgb(32.90863%, 32.90863%, 32.90863%)" offset="0.984375"/><stop stop-opacity="1" stop-color="rgb(33.16803%, 33.16803%, 33.16803%)" offset="0.992188"/><stop stop-opacity="1" stop-color="rgb(33.299255%, 33.299255%, 33.299255%)" offset="1"/></radialGradient><clipPath id="02ded43e7f"><rect x="0" width="225" y="0" height="226"/></clipPath><clipPath id="371737488b"><path d="M 193 88.121094 L 264.996094 88.121094 L 264.996094 215 L 193 215 Z M 193 88.121094 " clip-rule="nonzero"/></clipPath></defs><g mask="url(#4eac4346f4)"><g transform="matrix(1, 0, 0, 1, 115, 39)"><g clip-path="url(#02ded43e7f)"><g clip-path="url(#79255e8534)"><g clip-path="url(#c35236e29d)"><path fill="url(#329573c2fe)" d="M 0.40625 0.65625 L 0.40625 224.972656 L 224.726562 224.972656 L 224.726562 0.65625 Z M 0.40625 0.65625 " fill-rule="nonzero"/></g></g></g></g></g><g clip-path="url(#371737488b)"><path fill="#ffffff" d="M 265.125 124.867188 C 265.128906 124.050781 265.054688 123.242188 264.910156 122.4375 C 264.765625 121.636719 264.550781 120.851562 264.265625 120.089844 C 263.976562 119.324219 263.625 118.59375 263.203125 117.894531 C 262.785156 117.195312 262.304688 116.539062 261.765625 115.925781 C 261.226562 115.3125 260.636719 114.753906 260 114.25 C 259.359375 113.742188 258.675781 113.300781 257.957031 112.917969 C 257.234375 112.535156 256.484375 112.222656 255.707031 111.976562 C 254.929688 111.730469 254.136719 111.558594 253.328125 111.457031 C 252.519531 111.355469 251.707031 111.328125 250.890625 111.375 C 250.078125 111.417969 249.273438 111.539062 248.480469 111.730469 C 247.6875 111.921875 246.917969 112.183594 246.171875 112.515625 C 245.429688 112.847656 244.71875 113.242188 244.046875 113.703125 C 243.371094 114.164062 242.746094 114.683594 242.167969 115.257812 C 241.585938 115.832031 241.0625 116.453125 240.597656 117.121094 C 240.132812 117.789062 239.730469 118.496094 239.390625 119.238281 C 239.050781 119.980469 238.785156 120.746094 238.585938 121.539062 C 238.386719 122.328125 238.257812 123.132812 238.207031 123.945312 C 238.152344 124.761719 238.171875 125.570312 238.265625 126.382812 C 238.363281 127.191406 238.527344 127.988281 238.765625 128.769531 C 239.003906 129.546875 239.3125 130.300781 239.6875 131.023438 C 240.0625 131.75 240.5 132.433594 241 133.078125 C 241.5 133.722656 242.050781 134.316406 242.660156 134.863281 C 243.269531 135.40625 243.917969 135.890625 244.613281 136.316406 C 245.3125 136.742188 246.039062 137.101562 246.800781 137.398438 C 246.589844 138.703125 246.269531 139.976562 245.835938 141.226562 C 245.402344 142.476562 244.863281 143.675781 244.214844 144.828125 C 243.570312 145.980469 242.828125 147.066406 241.988281 148.089844 C 241.152344 149.113281 240.230469 150.050781 239.226562 150.910156 C 238.222656 151.769531 237.148438 152.535156 236.011719 153.207031 C 234.871094 153.875 233.683594 154.441406 232.445312 154.902344 C 231.207031 155.359375 229.9375 155.707031 228.636719 155.945312 C 227.335938 156.179688 226.023438 156.300781 224.703125 156.304688 C 222.269531 156.292969 219.902344 156.671875 217.59375 157.4375 C 215.289062 158.207031 213.167969 159.328125 211.230469 160.796875 L 211.230469 115.074219 C 211.722656 114.898438 212.207031 114.695312 212.679688 114.464844 C 213.148438 114.234375 213.605469 113.976562 214.046875 113.691406 C 214.488281 113.40625 214.910156 113.097656 215.316406 112.761719 C 215.71875 112.429688 216.105469 112.070312 216.464844 111.691406 C 216.828125 111.3125 217.167969 110.914062 217.484375 110.496094 C 217.804688 110.078125 218.09375 109.640625 218.359375 109.1875 C 218.625 108.734375 218.863281 108.269531 219.074219 107.789062 C 219.285156 107.308594 219.46875 106.816406 219.621094 106.316406 C 219.773438 105.8125 219.898438 105.304688 219.992188 104.789062 C 220.085938 104.269531 220.152344 103.75 220.183594 103.226562 C 220.21875 102.703125 220.21875 102.179688 220.191406 101.65625 C 220.164062 101.132812 220.105469 100.609375 220.015625 100.09375 C 219.929688 99.574219 219.808594 99.066406 219.660156 98.5625 C 219.511719 98.058594 219.335938 97.566406 219.128906 97.082031 C 218.925781 96.597656 218.691406 96.128906 218.429688 95.675781 C 218.167969 95.21875 217.882812 94.78125 217.570312 94.359375 C 217.257812 93.9375 216.921875 93.535156 216.5625 93.152344 C 216.203125 92.769531 215.824219 92.40625 215.421875 92.070312 C 215.019531 91.730469 214.601562 91.417969 214.164062 91.128906 C 213.726562 90.839844 213.273438 90.574219 212.804688 90.339844 C 212.335938 90.101562 211.855469 89.894531 211.359375 89.714844 C 210.867188 89.535156 210.367188 89.382812 209.855469 89.261719 C 209.34375 89.140625 208.828125 89.050781 208.308594 88.988281 C 207.785156 88.929688 207.261719 88.898438 206.738281 88.898438 C 206.210938 88.898438 205.6875 88.929688 205.167969 88.988281 C 204.648438 89.050781 204.128906 89.140625 203.621094 89.261719 C 203.109375 89.382812 202.609375 89.535156 202.113281 89.714844 C 201.621094 89.894531 201.140625 90.101562 200.671875 90.339844 C 200.203125 90.574219 199.75 90.839844 199.3125 91.128906 C 198.875 91.417969 198.453125 91.730469 198.054688 92.070312 C 197.652344 92.40625 197.269531 92.769531 196.910156 93.152344 C 196.554688 93.535156 196.21875 93.9375 195.90625 94.359375 C 195.59375 94.78125 195.304688 95.21875 195.046875 95.675781 C 194.785156 96.128906 194.550781 96.597656 194.34375 97.082031 C 194.140625 97.566406 193.960938 98.058594 193.8125 98.5625 C 193.664062 99.066406 193.546875 99.574219 193.457031 100.09375 C 193.367188 100.609375 193.308594 101.132812 193.28125 101.65625 C 193.253906 102.179688 193.257812 102.703125 193.289062 103.226562 C 193.324219 103.75 193.386719 104.269531 193.480469 104.789062 C 193.574219 105.304688 193.699219 105.8125 193.855469 106.316406 C 194.007812 106.816406 194.191406 107.308594 194.402344 107.789062 C 194.613281 108.269531 194.851562 108.734375 195.117188 109.1875 C 195.382812 109.640625 195.671875 110.078125 195.988281 110.496094 C 196.304688 110.914062 196.644531 111.3125 197.007812 111.691406 C 197.371094 112.070312 197.753906 112.429688 198.160156 112.761719 C 198.566406 113.097656 198.988281 113.40625 199.429688 113.691406 C 199.871094 113.976562 200.324219 114.234375 200.796875 114.464844 C 201.269531 114.695312 201.75 114.898438 202.246094 115.074219 L 202.246094 188.554688 C 201.75 188.726562 201.269531 188.929688 200.796875 189.164062 C 200.324219 189.394531 199.871094 189.652344 199.429688 189.9375 C 198.988281 190.222656 198.566406 190.53125 198.160156 190.867188 C 197.753906 191.199219 197.371094 191.554688 197.007812 191.933594 C 196.644531 192.3125 196.304688 192.714844 195.988281 193.132812 C 195.671875 193.550781 195.382812 193.984375 195.117188 194.4375 C 194.851562 194.890625 194.613281 195.359375 194.402344 195.839844 C 194.191406 196.320312 194.007812 196.8125 193.851562 197.3125 C 193.699219 197.816406 193.574219 198.324219 193.480469 198.839844 C 193.386719 199.355469 193.324219 199.878906 193.289062 200.402344 C 193.257812 200.925781 193.253906 201.449219 193.28125 201.972656 C 193.308594 202.496094 193.367188 203.019531 193.457031 203.535156 C 193.546875 204.050781 193.664062 204.5625 193.8125 205.066406 C 193.960938 205.570312 194.140625 206.0625 194.34375 206.546875 C 194.550781 207.027344 194.785156 207.496094 195.046875 207.953125 C 195.304688 208.410156 195.59375 208.847656 195.90625 209.269531 C 196.21875 209.691406 196.554688 210.09375 196.910156 210.476562 C 197.269531 210.859375 197.652344 211.21875 198.054688 211.558594 C 198.453125 211.898438 198.875 212.210938 199.3125 212.5 C 199.75 212.789062 200.203125 213.050781 200.671875 213.289062 C 201.140625 213.523438 201.621094 213.734375 202.113281 213.914062 C 202.609375 214.09375 203.109375 214.242188 203.621094 214.363281 C 204.128906 214.488281 204.648438 214.578125 205.167969 214.640625 C 205.6875 214.699219 206.210938 214.730469 206.738281 214.730469 C 207.261719 214.730469 207.785156 214.699219 208.308594 214.640625 C 208.828125 214.578125 209.34375 214.488281 209.855469 214.363281 C 210.367188 214.242188 210.867188 214.09375 211.359375 213.914062 C 211.855469 213.734375 212.335938 213.523438 212.804688 213.289062 C 213.273438 213.050781 213.726562 212.789062 214.164062 212.5 C 214.601562 212.210938 215.019531 211.898438 215.421875 211.558594 C 215.824219 211.21875 216.203125 210.859375 216.5625 210.476562 C 216.921875 210.09375 217.257812 209.691406 217.570312 209.269531 C 217.882812 208.847656 218.167969 208.410156 218.429688 207.953125 C 218.691406 207.496094 218.925781 207.027344 219.128906 206.546875 C 219.335938 206.0625 219.511719 205.570312 219.660156 205.066406 C 219.808594 204.5625 219.929688 204.050781 220.015625 203.535156 C 220.105469 203.019531 220.164062 202.496094 220.191406 201.972656 C 220.21875 201.449219 220.21875 200.925781 220.183594 200.402344 C 220.152344 199.875 220.085938 199.355469 219.992188 198.839844 C 219.898438 198.324219 219.773438 197.816406 219.621094 197.3125 C 219.46875 196.8125 219.285156 196.320312 219.074219 195.839844 C 218.863281 195.359375 218.625 194.890625 218.359375 194.4375 C 218.09375 193.984375 217.804688 193.550781 217.484375 193.132812 C 217.167969 192.714844 216.828125 192.3125 216.464844 191.933594 C 216.105469 191.554688 215.71875 191.199219 215.316406 190.867188 C 214.910156 190.53125 214.488281 190.222656 214.046875 189.9375 C 213.605469 189.652344 213.148438 189.394531 212.679688 189.164062 C 212.207031 188.929688 211.722656 188.726562 211.230469 188.554688 L 211.230469 178.761719 C 211.230469 177.878906 211.316406 177 211.488281 176.132812 C 211.660156 175.265625 211.914062 174.421875 212.253906 173.605469 C 212.59375 172.789062 213.007812 172.011719 213.5 171.277344 C 213.992188 170.539062 214.550781 169.859375 215.175781 169.234375 C 215.800781 168.609375 216.480469 168.050781 217.21875 167.558594 C 217.953125 167.066406 218.730469 166.652344 219.546875 166.3125 C 220.363281 165.976562 221.207031 165.71875 222.074219 165.546875 C 222.941406 165.375 223.816406 165.289062 224.703125 165.289062 C 225.660156 165.292969 226.613281 165.257812 227.566406 165.175781 C 228.519531 165.097656 229.46875 164.972656 230.410156 164.808594 C 231.351562 164.640625 232.28125 164.429688 233.203125 164.179688 C 234.128906 163.925781 235.035156 163.632812 235.933594 163.296875 C 236.828125 162.964844 237.707031 162.589844 238.566406 162.175781 C 239.429688 161.757812 240.269531 161.304688 241.089844 160.8125 C 241.910156 160.320312 242.707031 159.792969 243.480469 159.230469 C 244.25 158.664062 244.996094 158.066406 245.714844 157.433594 C 246.429688 156.800781 247.117188 156.136719 247.773438 155.445312 C 248.429688 154.75 249.054688 154.023438 249.644531 153.273438 C 250.238281 152.519531 250.792969 151.742188 251.3125 150.941406 C 251.832031 150.136719 252.3125 149.3125 252.757812 148.46875 C 253.203125 147.621094 253.609375 146.753906 253.972656 145.871094 C 254.339844 144.988281 254.664062 144.089844 254.949219 143.175781 C 255.230469 142.261719 255.472656 141.339844 255.671875 140.402344 C 255.871094 139.46875 256.027344 138.527344 256.140625 137.578125 C 256.796875 137.34375 257.425781 137.066406 258.035156 136.738281 C 258.648438 136.410156 259.226562 136.035156 259.78125 135.617188 C 260.332031 135.199219 260.851562 134.742188 261.332031 134.246094 C 261.8125 133.746094 262.253906 133.214844 262.65625 132.648438 C 263.054688 132.082031 263.410156 131.492188 263.714844 130.871094 C 264.023438 130.25 264.285156 129.609375 264.492188 128.949219 C 264.703125 128.289062 264.859375 127.617188 264.964844 126.933594 C 265.074219 126.246094 265.125 125.558594 265.125 124.867188 Z M 206.738281 97.917969 C 207.03125 97.917969 207.324219 97.945312 207.613281 98.003906 C 207.902344 98.0625 208.183594 98.148438 208.457031 98.257812 C 208.730469 98.371094 208.988281 98.511719 209.234375 98.675781 C 209.476562 98.839844 209.703125 99.023438 209.914062 99.234375 C 210.121094 99.441406 210.308594 99.667969 210.472656 99.914062 C 210.636719 100.160156 210.773438 100.417969 210.886719 100.691406 C 211 100.960938 211.085938 101.242188 211.140625 101.53125 C 211.199219 101.820312 211.230469 102.113281 211.230469 102.410156 C 211.230469 102.703125 211.199219 102.996094 211.140625 103.285156 C 211.085938 103.574219 211 103.855469 210.886719 104.128906 C 210.773438 104.402344 210.636719 104.660156 210.472656 104.90625 C 210.308594 105.148438 210.121094 105.375 209.914062 105.585938 C 209.703125 105.792969 209.476562 105.980469 209.234375 106.144531 C 208.988281 106.308594 208.730469 106.445312 208.457031 106.558594 C 208.183594 106.671875 207.902344 106.757812 207.613281 106.8125 C 207.324219 106.871094 207.03125 106.902344 206.738281 106.902344 C 206.441406 106.902344 206.152344 106.871094 205.859375 106.8125 C 205.570312 106.757812 205.292969 106.671875 205.019531 106.558594 C 204.746094 106.445312 204.488281 106.308594 204.242188 106.144531 C 203.996094 105.980469 203.769531 105.792969 203.5625 105.585938 C 203.351562 105.375 203.167969 105.148438 203.003906 104.90625 C 202.839844 104.660156 202.699219 104.402344 202.589844 104.128906 C 202.476562 103.855469 202.390625 103.574219 202.332031 103.285156 C 202.273438 102.996094 202.246094 102.703125 202.246094 102.410156 C 202.246094 102.113281 202.273438 101.820312 202.332031 101.53125 C 202.390625 101.242188 202.476562 100.960938 202.589844 100.691406 C 202.699219 100.417969 202.839844 100.160156 203.003906 99.914062 C 203.167969 99.667969 203.351562 99.441406 203.5625 99.234375 C 203.769531 99.023438 203.996094 98.839844 204.242188 98.675781 C 204.488281 98.511719 204.746094 98.371094 205.019531 98.257812 C 205.292969 98.148438 205.570312 98.0625 205.859375 98.003906 C 206.152344 97.945312 206.441406 97.917969 206.738281 97.917969 Z M 206.738281 205.710938 C 206.441406 205.710938 206.152344 205.679688 205.859375 205.625 C 205.570312 205.566406 205.292969 205.480469 205.019531 205.367188 C 204.746094 205.253906 204.488281 205.117188 204.242188 204.953125 C 203.996094 204.789062 203.769531 204.601562 203.5625 204.394531 C 203.351562 204.1875 203.167969 203.960938 203.003906 203.714844 C 202.839844 203.46875 202.699219 203.210938 202.589844 202.9375 C 202.476562 202.664062 202.390625 202.382812 202.332031 202.09375 C 202.273438 201.804688 202.246094 201.515625 202.246094 201.21875 C 202.246094 200.925781 202.273438 200.632812 202.332031 200.34375 C 202.390625 200.054688 202.476562 199.773438 202.589844 199.5 C 202.699219 199.226562 202.839844 198.96875 203.003906 198.722656 C 203.167969 198.476562 203.351562 198.25 203.5625 198.042969 C 203.769531 197.835938 203.996094 197.648438 204.242188 197.484375 C 204.488281 197.320312 204.746094 197.183594 205.019531 197.070312 C 205.292969 196.957031 205.570312 196.871094 205.859375 196.8125 C 206.152344 196.757812 206.441406 196.726562 206.738281 196.726562 C 207.03125 196.726562 207.324219 196.757812 207.613281 196.8125 C 207.902344 196.871094 208.183594 196.957031 208.457031 197.070312 C 208.730469 197.183594 208.988281 197.320312 209.234375 197.484375 C 209.476562 197.648438 209.703125 197.835938 209.914062 198.042969 C 210.121094 198.25 210.308594 198.476562 210.472656 198.722656 C 210.636719 198.96875 210.773438 199.226562 210.886719 199.5 C 211 199.773438 211.085938 200.054688 211.140625 200.34375 C 211.199219 200.632812 211.230469 200.925781 211.230469 201.21875 C 211.230469 201.515625 211.199219 201.804688 211.140625 202.09375 C 211.085938 202.382812 211 202.664062 210.886719 202.9375 C 210.773438 203.210938 210.636719 203.46875 210.472656 203.714844 C 210.308594 203.960938 210.121094 204.1875 209.914062 204.394531 C 209.703125 204.601562 209.476562 204.789062 209.234375 204.953125 C 208.988281 205.117188 208.730469 205.253906 208.457031 205.367188 C 208.183594 205.480469 207.902344 205.566406 207.613281 205.625 C 207.324219 205.679688 207.03125 205.710938 206.738281 205.710938 Z M 251.652344 129.355469 C 251.355469 129.355469 251.0625 129.328125 250.773438 129.269531 C 250.484375 129.214844 250.203125 129.128906 249.933594 129.015625 C 249.660156 128.902344 249.402344 128.765625 249.15625 128.601562 C 248.910156 128.4375 248.683594 128.25 248.476562 128.042969 C 248.265625 127.832031 248.082031 127.605469 247.917969 127.359375 C 247.753906 127.117188 247.613281 126.855469 247.5 126.585938 C 247.386719 126.3125 247.304688 126.03125 247.246094 125.742188 C 247.1875 125.453125 247.160156 125.160156 247.160156 124.867188 C 247.160156 124.570312 247.1875 124.277344 247.246094 123.988281 C 247.304688 123.699219 247.386719 123.417969 247.5 123.148438 C 247.613281 122.875 247.753906 122.617188 247.917969 122.371094 C 248.082031 122.125 248.265625 121.898438 248.476562 121.691406 C 248.683594 121.480469 248.910156 121.296875 249.15625 121.132812 C 249.402344 120.96875 249.660156 120.828125 249.933594 120.714844 C 250.203125 120.605469 250.484375 120.519531 250.773438 120.460938 C 251.0625 120.402344 251.355469 120.375 251.652344 120.375 C 251.945312 120.375 252.238281 120.402344 252.527344 120.460938 C 252.816406 120.519531 253.097656 120.605469 253.371094 120.714844 C 253.640625 120.828125 253.902344 120.96875 254.144531 121.132812 C 254.390625 121.296875 254.617188 121.480469 254.828125 121.691406 C 255.035156 121.898438 255.222656 122.125 255.386719 122.371094 C 255.550781 122.617188 255.6875 122.875 255.800781 123.148438 C 255.914062 123.417969 256 123.699219 256.054688 123.988281 C 256.113281 124.277344 256.140625 124.570312 256.140625 124.867188 C 256.140625 125.160156 256.113281 125.453125 256.054688 125.742188 C 256 126.03125 255.914062 126.3125 255.800781 126.585938 C 255.6875 126.855469 255.550781 127.117188 255.386719 127.359375 C 255.222656 127.605469 255.035156 127.832031 254.828125 128.042969 C 254.617188 128.25 254.390625 128.4375 254.144531 128.601562 C 253.902344 128.765625 253.640625 128.902344 253.371094 129.015625 C 253.097656 129.128906 252.816406 129.214844 252.527344 129.269531 C 252.238281 129.328125 251.945312 129.355469 251.652344 129.355469 Z M 251.652344 129.355469 " fill-opacity="1" fill-rule="nonzero"/></g></svg>